<svg xmlns="http://www.w3.org/2000/svg" xmlns:xlink="http://www.w3.org/1999/xlink" width="242" height="48" viewBox="0 0 242 48">
    <defs>
        <path id="w20iu2u1ea" d="M0 0L24.569 0 24.569 30.359 0 30.359z"/>
        <path id="p5ez8zcs3c" d="M0 0L8.414 0 8.414 8.414 0 8.414z"/>
        <path id="tseq001fve" d="M0 0L46.715 0 46.715 12.124 0 12.124z"/>
    </defs>
    <g fill="none" fill-rule="evenodd">
        <g>
            <g>
                <path fill="#3180F1" d="M174.623 38.735L180.283 38.735 180.283 17.723 174.623 17.723z" transform="translate(-391 -36) translate(391 36)"/>
                <g>
                    <g transform="translate(-391 -36) translate(391 36) translate(0 8.452)">
                        <mask id="p8sh4teurb" fill="#fff">
                            <use xlink:href="#w20iu2u1ea"/>
                        </mask>
                        <path fill="#3180F1" d="M6.05 17.738v7.287l6.788.022c3.339 0 5.442-.781 5.442-3.688 0-2.84-2.103-3.62-5.442-3.62H6.05zm0-12.403v7.09h6.202c3.014 0 5.356-.628 5.356-3.577 0-2.863-2.385-3.513-5.378-3.513H6.05zM12.404 0c7.07 0 11.515 2.624 11.515 8.414 0 3.057-1.865 5.508-4.403 6.44 2.776.933 5.053 3.535 5.053 6.81 0 5.833-4.141 8.695-11.428 8.695H0V0h12.404z" mask="url(#p8sh4teurb)"/>
                    </g>
                    <path fill="#3180F1" d="M33.254 28.294c0 3.209 2.104 5.79 5.422 5.79 3.23 0 5.42-2.472 5.42-5.79 0-3.319-2.19-5.79-5.42-5.79-3.318 0-5.422 2.58-5.422 5.79zM49.453 38.81h-5.53v-2.32c-1.365 1.69-3.404 2.862-6.288 2.862-5.79 0-10.17-4.75-10.17-11.06 0-6.31 4.38-11.058 10.17-11.058 2.884 0 4.9 1.17 6.288 2.883v-2.32h5.53v21.013zM73.449 25.431v13.38h-5.66V27.253c0-3.036-1.519-4.706-4.1-4.706-2.428 0-4.444 1.583-4.444 4.749V38.81h-5.66V17.798h5.508v2.472c1.496-2.233 3.794-3.036 6.18-3.036 4.77 0 8.176 3.318 8.176 8.197M82.973 28.294c0 3.209 2.104 5.79 5.422 5.79 3.23 0 5.421-2.472 5.421-5.79 0-3.319-2.19-5.79-5.421-5.79-3.318 0-5.422 2.58-5.422 5.79zM99.172 38.81h-5.53v-2.32c-1.365 1.69-3.404 2.862-6.288 2.862-5.79 0-10.17-4.75-10.17-11.06 0-6.31 4.38-11.058 10.17-11.058 2.884 0 4.901 1.17 6.288 2.883v-2.32h5.53v21.013zM123.32 25.431v13.38h-5.66V27.253c0-3.036-1.517-4.706-4.098-4.706-2.429 0-4.445 1.583-4.445 4.749V38.81h-5.66V17.798h5.508v2.472c1.496-2.233 3.794-3.036 6.18-3.036 4.771 0 8.176 3.318 8.176 8.197M132.926 28.294c0 3.209 2.103 5.79 5.421 5.79 3.23 0 5.421-2.472 5.421-5.79 0-3.319-2.19-5.79-5.421-5.79-3.318 0-5.421 2.58-5.421 5.79zm16.198 10.517h-5.53v-2.32c-1.366 1.69-3.404 2.862-6.288 2.862-5.79 0-10.17-4.75-10.17-11.06 0-6.31 4.38-11.058 10.17-11.058 2.884 0 4.901 1.17 6.289 2.883v-2.32h5.529v21.013zM169.023 23.653c-1.67-.824-4.337-1.691-6.7-1.713-2.147 0-3.232.759-3.232 1.908 0 1.214 1.518 1.518 3.426 1.8l1.866.282c4.554.694 7.09 2.732 7.09 6.288 0 4.338-3.556 7.135-9.65 7.135-2.862 0-6.614-.542-9.346-2.472l2.234-4.294c1.8 1.193 3.99 2.06 7.156 2.06 2.624 0 3.881-.737 3.881-1.973 0-1.02-1.062-1.583-3.49-1.93l-1.714-.239c-4.857-.672-7.264-2.797-7.264-6.375 0-4.315 3.34-6.874 8.869-6.874 3.361 0 5.985.629 8.782 1.995l-1.908 4.402zM189.89 27.968c0 3.037 2.06 5.508 5.29 5.508 3.145 0 5.27-2.385 5.27-5.508 0-3.144-2.125-5.53-5.27-5.53-3.23 0-5.29 2.473-5.29 5.53m10.365-7.828v-2.341h5.551v19.277c0 6.744-4.402 10.82-11.34 10.82-3.32 0-6.832-.867-9.196-2.536l2.017-4.619c2.103 1.387 4.423 2.147 6.939 2.147 3.513 0 5.985-1.952 5.985-5.574V35.84c-1.431 1.756-3.556 2.84-6.462 2.84-5.117 0-9.672-4.271-9.672-10.712 0-6.462 4.555-10.733 9.672-10.733 2.928 0 5.074 1.127 6.506 2.905M229.393 25.431v13.38h-5.66V27.253c0-3.036-1.517-4.706-4.098-4.706-2.428 0-4.445 1.583-4.445 4.749V38.81h-5.66V17.798h5.508v2.472c1.496-2.233 3.795-3.036 6.18-3.036 4.77 0 8.175 3.318 8.175 8.197" transform="translate(-391 -36) translate(391 36)"/>
                    <g transform="translate(-391 -36) translate(391 36) translate(232.645 30.94)">
                        <mask id="9nmke2b92d" fill="#fff">
                            <use xlink:href="#p5ez8zcs3c"/>
                        </mask>
                        <path fill="#3180F1" d="M8.414 4.185c0 2.277-1.952 4.229-4.185 4.229C1.973 8.414 0 6.462 0 4.184 0 1.93 1.973 0 4.23 0c2.232 0 4.184 1.93 4.184 4.185" mask="url(#9nmke2b92d)"/>
                    </g>
                    <g transform="translate(-391 -36) translate(391 36) translate(154.095)">
                        <mask id="l9meby3vcf" fill="#fff">
                            <use xlink:href="#tseq001fve"/>
                        </mask>
                        <path fill="#FAE200" d="M1.803.142c1.761.577 3.518 1.14 5.308 1.573 1.777.471 3.573.863 5.381 1.158 3.612.606 7.264.958 10.923.895 3.658.037 7.306-.34 10.908-.97 1.803-.308 3.593-.711 5.363-1.193C41.468 1.16 43.216.587 44.967 0l1.748 4.18c-3.169 2.772-6.958 4.652-10.923 5.974-3.98 1.29-8.181 1.943-12.377 1.97-4.195.023-8.406-.58-12.405-1.824C7.024 9.025 3.207 7.19 0 4.455L1.803.142z" mask="url(#l9meby3vcf)"/>
                    </g>
                </g>
            </g>
        </g>
    </g>
</svg>
