<svg width="100" height="100" viewBox="0 0 100 100" fill="none" xmlns="http://www.w3.org/2000/svg">
  <!-- Square Lumin Logo -->
  <rect width="100" height="100" rx="16" fill="#F8FAFC"/>
  
  <!-- Lightning bolt icon (centered) -->
  <path d="M35 25L55 45H45L50 75L30 55H40L35 25Z" fill="#3B82F6" opacity="0.9"/>
  
  <!-- Text: Lumin (below icon) -->
  <g transform="translate(20, 80)">
    <!-- L -->
    <path d="M4 0H6.5V8H12V10H4V0Z" fill="#1F2937"/>
    
    <!-- u -->
    <path d="M14 2V8C14 8.8 14.6 9.5 15.5 9.5C16.4 9.5 17 8.8 17 8V2H19V8C19 10.5 17.5 11.5 15.5 11.5C13.5 11.5 12 10.5 12 8V2H14Z" fill="#1F2937"/>
    
    <!-- m -->
    <path d="M22 2V3C22.6 2.2 23.4 2 24.5 2C25.3 2 26 2.4 26.3 2.8C26.9 2.4 27.7 2 28.5 2C30 2 31 3 31 4V10H29V4.5C29 4 28.7 4 28.5 4C28.3 4 28 4 28 4.5V10H26V4.5C26 4 25.7 4 25.5 4C25.3 4 25 4 25 4.5V10H22V2Z" fill="#1F2937"/>
    
    <!-- i -->
    <path d="M34 0.5C34.6 0.5 35 0.1 35 -0.5C35 -1.1 34.6 -1.5 34 -1.5C33.4 -1.5 33 -1.1 33 -0.5C33 0.1 33.4 0.5 34 0.5ZM33 2H35V10H33V2Z" fill="#1F2937"/>
    
    <!-- n -->
    <path d="M38 2V3C38.6 2.2 39.4 2 40.5 2C42 2 43 3 43 4V10H41V4.5C41 4 40.7 4 40.5 4C40.3 4 40 4 40 4.5V10H38V2Z" fill="#1F2937"/>
  </g>
  
  <!-- Accent circle -->
  <circle cx="75" cy="25" r="4" fill="#3B82F6"/>
</svg>
