<svg width="27" height="15" viewBox="0 0 27 15" fill="none" xmlns="http://www.w3.org/2000/svg">
<path fill-rule="evenodd" clip-rule="evenodd" d="M6.79797 12.129H8.48912V5.95532H6.79797V12.129Z" fill="white"/>
<path fill-rule="evenodd" clip-rule="evenodd" d="M5.11935 7.69763C4.62039 7.45553 3.82355 7.20073 3.1173 7.19434C2.47578 7.19434 2.15184 7.41728 2.15184 7.75491C2.15184 8.11184 2.60538 8.20093 3.17562 8.28382L3.73283 8.36665C5.09329 8.57043 5.85152 9.16939 5.85152 10.2142C5.85152 11.4885 4.78887 12.3104 2.96826 12.3104C2.11296 12.3104 0.991991 12.1511 0.175781 11.5841L0.843019 10.3225C1.38086 10.6731 2.03534 10.9279 2.98108 10.9279C3.76516 10.9279 4.14093 10.7113 4.14093 10.3482C4.14093 10.0486 3.82355 9.88298 3.09779 9.78099L2.586 9.711C1.13469 9.51335 0.415474 8.88904 0.415474 7.83774C0.415474 6.56996 1.41333 5.81812 3.06532 5.81812C4.06972 5.81812 4.85367 6.0028 5.68945 6.4043L5.11935 7.69763Z" fill="white"/>
<path fill-rule="evenodd" clip-rule="evenodd" d="M11.3593 8.96556C11.3593 9.85751 11.9749 10.5839 12.9402 10.5839C13.8797 10.5839 14.5147 9.88293 14.5147 8.96556C14.5147 8.04166 13.8797 7.34085 12.9402 7.34085C11.9749 7.34085 11.3593 8.06721 11.3593 8.96556ZM14.4563 6.66546V5.97742H16.115V11.6416C16.115 13.6229 14.7997 14.8207 12.7264 14.8207C11.735 14.8207 10.6855 14.5659 9.97927 14.0753L10.5817 12.7182C11.2103 13.1259 11.9036 13.3489 12.655 13.3489C13.7047 13.3489 14.4432 12.7755 14.4432 11.7114V11.2784C14.0157 11.7944 13.3807 12.1129 12.5126 12.1129C10.9835 12.1129 9.6228 10.8577 9.6228 8.96551C9.6228 7.06677 10.9835 5.81183 12.5126 5.81183C13.3873 5.81183 14.0287 6.14308 14.4563 6.66546Z" fill="white"/>
<path fill-rule="evenodd" clip-rule="evenodd" d="M23.2013 8.22012V12.1511H21.5101V8.75528C21.5101 7.86332 21.0567 7.3728 20.2856 7.3728C19.56 7.3728 18.9574 7.83771 18.9574 8.76799V12.1511H17.2662V5.97742H18.912V6.70365C19.3591 6.04748 20.0458 5.81183 20.7586 5.81183C22.184 5.81183 23.2013 6.78648 23.2013 8.22012Z" fill="white"/>
<path fill-rule="evenodd" clip-rule="evenodd" d="M26.4636 10.967C26.4636 11.5927 25.9183 12.129 25.294 12.129C24.6638 12.129 24.1124 11.5927 24.1124 10.967C24.1124 10.3474 24.6638 9.81702 25.294 9.81702C25.9183 9.81702 26.4636 10.3474 26.4636 10.967Z" fill="white"/>
<path fill-rule="evenodd" clip-rule="evenodd" d="M1.3683 0.8747C1.88184 1.04042 2.39396 1.20156 2.91594 1.32577C3.43414 1.46102 3.9576 1.57306 4.48498 1.65782C5.53818 1.83152 6.6032 1.93238 7.6699 1.91435C8.73653 1.925 9.80013 1.81695 10.8505 1.63619C11.3764 1.54798 11.8979 1.43248 12.4141 1.29417C12.9338 1.16676 13.4435 1.0025 13.9541 0.833984L14.4638 2.03244C13.5395 2.82753 12.4349 3.36629 11.2785 3.74544C10.118 4.11554 8.89327 4.30268 7.6699 4.3102C6.44646 4.31692 5.21884 4.14401 4.05277 3.78748C2.89069 3.4217 1.77755 2.89546 0.842407 2.11141L1.3683 0.8747Z" fill="#FAE200"/>
</svg>
