<svg width="61" height="13" viewBox="0 0 61 13" fill="none" xmlns="http://www.w3.org/2000/svg">
<path fill-rule="evenodd" clip-rule="evenodd" d="M43.9866 10.1838H45.4016V4.93066H43.9866V10.1838Z" fill="#3180F1"/>
<mask id="mask0_18429_87770" style="mask-type:luminance" maskUnits="userSpaceOnUse" x="0" y="2" width="7" height="9">
<path fill-rule="evenodd" clip-rule="evenodd" d="M0.330994 2.61292H6.47329V10.2027H0.330994V2.61292Z" fill="white"/>
</mask>
<g mask="url(#mask0_18429_87770)">
<path fill-rule="evenodd" clip-rule="evenodd" d="M1.8435 7.04751V8.86914L3.5404 8.87455C4.37516 8.87455 4.90113 8.67934 4.90113 7.95275C4.90113 7.24272 4.37516 7.04751 3.5404 7.04751H1.8435ZM1.8435 3.94661V5.71939H3.39404C4.1475 5.71939 4.73313 5.56204 4.73313 4.8248C4.73313 4.1092 4.13668 3.94661 3.38863 3.94661H1.8435ZM3.4319 2.61292C5.19928 2.61292 6.31071 3.26886 6.31071 4.71646C6.31071 5.48075 5.8444 6.09342 5.21009 6.32649C5.90406 6.55956 6.4733 7.2101 6.4733 8.0288C6.4733 9.48706 5.43792 10.2027 3.61629 10.2027H0.330994V2.61292H3.4319Z" fill="#3180F1"/>
</g>
<path fill-rule="evenodd" clip-rule="evenodd" d="M8.64458 7.57345C8.64458 8.37576 9.17038 9.02088 9.9999 9.02088C10.8076 9.02088 11.3552 8.40297 11.3552 7.57345C11.3552 6.74393 10.8076 6.12601 9.9999 6.12601C9.17038 6.12601 8.64458 6.77114 8.64458 7.57345ZM12.6942 10.2028H11.3118V9.62274C10.9704 10.0454 10.4606 10.3383 9.73962 10.3383C8.29219 10.3383 7.19714 9.15103 7.19714 7.57345C7.19714 5.99587 8.29219 4.80872 9.73962 4.80872C10.4606 4.80872 10.965 5.10145 11.3118 5.52956V4.94967H12.6942V10.2028Z" fill="#3180F1"/>
<path fill-rule="evenodd" clip-rule="evenodd" d="M18.6931 6.85777V10.2027H17.2782V7.31309C17.2782 6.55422 16.8986 6.13675 16.2534 6.13675C15.6463 6.13675 15.1422 6.53242 15.1422 7.32391V10.2027H13.7272V4.94943H15.1041V5.56751C15.4783 5.00909 16.0528 4.80847 16.6493 4.80847C17.8418 4.80847 18.6931 5.63799 18.6931 6.85777Z" fill="#3180F1"/>
<path fill-rule="evenodd" clip-rule="evenodd" d="M21.0744 7.57345C21.0744 8.37576 21.6002 9.02088 22.4297 9.02088C23.2374 9.02088 23.785 8.40297 23.785 7.57345C23.785 6.74393 23.2374 6.12601 22.4297 6.12601C21.6002 6.12601 21.0744 6.77114 21.0744 7.57345ZM25.124 10.2028H23.7416V9.62274C23.4002 10.0454 22.8904 10.3383 22.1694 10.3383C20.722 10.3383 19.627 9.15103 19.627 7.57345C19.627 5.99587 20.722 4.80872 22.1694 4.80872C22.8904 4.80872 23.3948 5.10145 23.7416 5.52956V4.94967H25.124V10.2028Z" fill="#3180F1"/>
<path fill-rule="evenodd" clip-rule="evenodd" d="M31.1612 6.85777V10.2027H29.7462V7.31309C29.7462 6.55422 29.3667 6.13675 28.7214 6.13675C28.1143 6.13675 27.6102 6.53242 27.6102 7.32391V10.2027H26.1952V4.94943H27.5721V5.56751C27.9463 5.00909 28.5208 4.80847 29.1173 4.80847C30.31 4.80847 31.1612 5.63799 31.1612 6.85777Z" fill="#3180F1"/>
<path fill-rule="evenodd" clip-rule="evenodd" d="M33.5624 7.57345C33.5624 8.37576 34.0882 9.02088 34.9177 9.02088C35.7255 9.02088 36.2731 8.40297 36.2731 7.57345C36.2731 6.74393 35.7255 6.12601 34.9177 6.12601C34.0882 6.12601 33.5624 6.77114 33.5624 7.57345ZM37.612 10.2028H36.2296V9.62274C35.8881 10.0454 35.3785 10.3383 34.6575 10.3383C33.21 10.3383 32.115 9.15103 32.115 7.57345C32.115 5.99587 33.21 4.80872 34.6575 4.80872C35.3785 4.80872 35.8828 5.10145 36.2296 5.52956V4.94967H37.612V10.2028Z" fill="#3180F1"/>
<path fill-rule="evenodd" clip-rule="evenodd" d="M42.5868 6.4133C42.1693 6.20727 41.5025 5.99042 40.9117 5.98485C40.3749 5.98485 40.1038 6.17465 40.1038 6.46197C40.1038 6.76552 40.4832 6.84158 40.9603 6.91206L41.4267 6.98254C42.5651 7.15595 43.1994 7.66552 43.1994 8.55454C43.1994 9.63893 42.3103 10.3383 40.7869 10.3383C40.0712 10.3383 39.1333 10.2026 38.4503 9.72023L39.0087 8.64682C39.4587 8.94496 40.0063 9.16181 40.7978 9.16181C41.4537 9.16181 41.7681 8.97758 41.7681 8.66845C41.7681 8.41358 41.5025 8.27262 40.8953 8.18592L40.467 8.12626C39.2526 7.95826 38.6509 7.42704 38.6509 6.53245C38.6509 5.45364 39.4859 4.81409 40.8682 4.81409C41.7086 4.81409 42.3645 4.9711 43.0637 5.31268L42.5868 6.4133Z" fill="#3180F1"/>
<path fill-rule="evenodd" clip-rule="evenodd" d="M47.8032 7.49215C47.8032 8.25119 48.3184 8.86911 49.1259 8.86911C49.9122 8.86911 50.4434 8.27283 50.4434 7.49215C50.4434 6.70607 49.9122 6.10962 49.1259 6.10962C48.3184 6.10962 47.8032 6.72787 47.8032 7.49215ZM50.3947 5.53497V4.94967H51.7825V9.76911C51.7825 11.455 50.6819 12.4742 48.9473 12.4742C48.1176 12.4742 47.2394 12.2573 46.6485 11.84L47.1527 10.6853C47.6785 11.0322 48.2586 11.222 48.8875 11.222C49.7657 11.222 50.3837 10.734 50.3837 9.8286V9.46015C50.0259 9.89908 49.4947 10.1702 48.7683 10.1702C47.4889 10.1702 46.3502 9.10218 46.3502 7.49215C46.3502 5.87655 47.4889 4.80872 48.7683 4.80872C49.5001 4.80872 50.0368 5.09063 50.3947 5.53497Z" fill="#3180F1"/>
<path fill-rule="evenodd" clip-rule="evenodd" d="M57.6794 6.85777V10.2027H56.2644V7.31309C56.2644 6.55422 55.8849 6.13675 55.2396 6.13675C54.6327 6.13675 54.1284 6.53242 54.1284 7.32391V10.2027H52.7134V4.94943H54.0905V5.56751C54.4645 5.00909 55.0392 4.80847 55.6355 4.80847C56.8282 4.80847 57.6794 5.63799 57.6794 6.85777Z" fill="#3180F1"/>
<mask id="mask1_18429_87770" style="mask-type:luminance" maskUnits="userSpaceOnUse" x="58" y="8" width="3" height="3">
<path fill-rule="evenodd" clip-rule="evenodd" d="M58.4923 8.23486H60.5958V10.3382H58.4923V8.23486Z" fill="white"/>
</mask>
<g mask="url(#mask1_18429_87770)">
<path fill-rule="evenodd" clip-rule="evenodd" d="M60.5959 9.28106C60.5959 9.85047 60.1079 10.3382 59.5497 10.3382C58.9857 10.3382 58.4923 9.85047 58.4923 9.28106C58.4923 8.7174 58.9857 8.23486 59.5497 8.23486C60.1079 8.23486 60.5959 8.7174 60.5959 9.28106Z" fill="#3180F1"/>
</g>
<mask id="mask2_18429_87770" style="mask-type:luminance" maskUnits="userSpaceOnUse" x="38" y="0" width="13" height="4">
<path fill-rule="evenodd" clip-rule="evenodd" d="M38.8549 0.5H50.5337V3.53106H38.8549V0.5Z" fill="white"/>
</mask>
<g mask="url(#mask2_18429_87770)">
<path fill-rule="evenodd" clip-rule="evenodd" d="M39.3056 0.535493C39.7459 0.679831 40.185 0.820451 40.6327 0.928789C41.0769 1.04659 41.5258 1.14445 41.9779 1.21831C42.8809 1.36975 43.794 1.4578 44.7087 1.44192C45.6232 1.45121 46.5352 1.35707 47.4357 1.19938C47.8865 1.12248 48.3338 1.02175 48.7763 0.901239C49.2218 0.790197 49.6587 0.646873 50.0967 0.5L50.5337 1.54485C49.7414 2.23814 48.7941 2.708 47.8028 3.03859C46.8076 3.36124 45.7576 3.52434 44.7087 3.53093C43.6598 3.53685 42.6071 3.38608 41.6073 3.0751C40.6109 2.75634 39.6565 2.29746 38.8549 1.6138L39.3056 0.535493Z" fill="#FAE200"/>
</g>
</svg>
