<svg width="62" height="12" viewBox="0 0 62 12" fill="none" xmlns="http://www.w3.org/2000/svg">
<path fill-rule="evenodd" clip-rule="evenodd" d="M44.4866 9.68379H45.9016V4.43066H44.4866V9.68379Z" fill="white"/>
<mask id="mask0_18429_87455" style="mask-type:luminance" maskUnits="userSpaceOnUse" x="0" y="2" width="7" height="8">
<path fill-rule="evenodd" clip-rule="evenodd" d="M0.830933 2.11292H6.97322V9.70266H0.830933V2.11292Z" fill="white"/>
</mask>
<g mask="url(#mask0_18429_87455)">
<path fill-rule="evenodd" clip-rule="evenodd" d="M2.34344 6.54751V8.36914L4.04034 8.37455C4.8751 8.37455 5.40107 8.17934 5.40107 7.45275C5.40107 6.74272 4.8751 6.54751 4.04034 6.54751H2.34344ZM2.34344 3.44661V5.21939H3.89397C4.64744 5.21939 5.23307 5.06204 5.23307 4.3248C5.23307 3.6092 4.63662 3.44661 3.88857 3.44661H2.34344ZM3.93183 2.11292C5.69921 2.11292 6.81065 2.76886 6.81065 4.21646C6.81065 4.98075 6.34434 5.59342 5.71003 5.82649C6.404 6.05956 6.97324 6.7101 6.97324 7.5288C6.97324 8.98706 5.93786 9.70266 4.11623 9.70266H0.830933V2.11292H3.93183Z" fill="white"/>
</g>
<path fill-rule="evenodd" clip-rule="evenodd" d="M9.14446 7.07345C9.14446 7.87576 9.67026 8.52089 10.4998 8.52089C11.3075 8.52089 11.8551 7.90297 11.8551 7.07345C11.8551 6.24393 11.3075 5.62601 10.4998 5.62601C9.67026 5.62601 9.14446 6.27114 9.14446 7.07345V7.07345ZM13.194 9.7028H11.8117V9.12274C11.4703 9.54545 10.9605 9.83835 10.2395 9.83835C8.79206 9.83835 7.69702 8.65103 7.69702 7.07345C7.69702 5.49587 8.79206 4.30872 10.2395 4.30872C10.9605 4.30872 11.4649 4.60145 11.8117 5.02956V4.44967H13.194V9.7028Z" fill="white"/>
<path fill-rule="evenodd" clip-rule="evenodd" d="M19.1931 6.35777V9.70273H17.7782V6.81309C17.7782 6.05422 17.3986 5.63675 16.7534 5.63675C16.1463 5.63675 15.6422 6.03242 15.6422 6.82391V9.70273H14.2272V4.44943H15.6041V5.06751C15.9783 4.50909 16.5528 4.30847 17.1493 4.30847C18.3418 4.30847 19.1931 5.13799 19.1931 6.35777" fill="white"/>
<path fill-rule="evenodd" clip-rule="evenodd" d="M21.5743 7.07345C21.5743 7.87576 22.1001 8.52089 22.9296 8.52089C23.7373 8.52089 24.2849 7.90297 24.2849 7.07345C24.2849 6.24393 23.7373 5.62601 22.9296 5.62601C22.1001 5.62601 21.5743 6.27114 21.5743 7.07345V7.07345ZM25.6238 9.7028H24.2415V9.12274C23.9001 9.54545 23.3903 9.83835 22.6693 9.83835C21.2219 9.83835 20.1268 8.65103 20.1268 7.07345C20.1268 5.49587 21.2219 4.30872 22.6693 4.30872C23.3903 4.30872 23.8947 4.60145 24.2415 5.02956V4.44967H25.6238V9.7028Z" fill="white"/>
<path fill-rule="evenodd" clip-rule="evenodd" d="M31.661 6.35777V9.70273H30.2461V6.81309C30.2461 6.05422 29.8666 5.63675 29.2213 5.63675C28.6142 5.63675 28.1101 6.03242 28.1101 6.82391V9.70273H26.6951V4.44943H28.072V5.06751C28.4462 4.50909 29.0207 4.30847 29.6172 4.30847C30.8099 4.30847 31.661 5.13799 31.661 6.35777" fill="white"/>
<path fill-rule="evenodd" clip-rule="evenodd" d="M34.0623 7.07345C34.0623 7.87576 34.5881 8.52089 35.4176 8.52089C36.2253 8.52089 36.773 7.90297 36.773 7.07345C36.773 6.24393 36.2253 5.62601 35.4176 5.62601C34.5881 5.62601 34.0623 6.27114 34.0623 7.07345V7.07345ZM38.1119 9.7028H36.7295V9.12274C36.3879 9.54545 35.8784 9.83835 35.1573 9.83835C33.7099 9.83835 32.6149 8.65103 32.6149 7.07345C32.6149 5.49587 33.7099 4.30872 35.1573 4.30872C35.8784 4.30872 36.3827 4.60145 36.7295 5.02956V4.44967H38.1119V9.7028Z" fill="white"/>
<path fill-rule="evenodd" clip-rule="evenodd" d="M43.0868 5.9133C42.6693 5.70727 42.0025 5.49043 41.4117 5.48485C40.8749 5.48485 40.6038 5.67465 40.6038 5.96197C40.6038 6.26552 40.9832 6.34158 41.4603 6.41206L41.9267 6.48254C43.0651 6.65595 43.6994 7.16552 43.6994 8.05454C43.6994 9.13893 42.8103 9.83831 41.2869 9.83831C40.5712 9.83831 39.6333 9.70259 38.9503 9.22023L39.5087 8.14682C39.9587 8.44496 40.5063 8.66181 41.2978 8.66181C41.9537 8.66181 42.2681 8.47758 42.2681 8.16845C42.2681 7.91358 42.0025 7.77262 41.3953 7.68592L40.967 7.62626C39.7526 7.45826 39.1509 6.92704 39.1509 6.03245C39.1509 4.95364 39.9859 4.31409 41.3682 4.31409C42.2086 4.31409 42.8645 4.4711 43.5637 4.81268L43.0868 5.9133Z" fill="white"/>
<path fill-rule="evenodd" clip-rule="evenodd" d="M48.3032 6.99215C48.3032 7.75119 48.8184 8.36911 49.6259 8.36911C50.4122 8.36911 50.9434 7.77283 50.9434 6.99215C50.9434 6.20607 50.4122 5.60962 49.6259 5.60962C48.8184 5.60962 48.3032 6.22787 48.3032 6.99215M50.8947 5.03497V4.44967H52.2825V9.26911C52.2825 10.955 51.1819 11.9742 49.4473 11.9742C48.6176 11.9742 47.7394 11.7573 47.1485 11.34L47.6527 10.1853C48.1785 10.5322 48.7586 10.722 49.3875 10.722C50.2657 10.722 50.8837 10.234 50.8837 9.3286V8.96015C50.5259 9.39908 49.9947 9.67018 49.2683 9.67018C47.9889 9.67018 46.8502 8.60218 46.8502 6.99215C46.8502 5.37655 47.9889 4.30872 49.2683 4.30872C50.0001 4.30872 50.5368 4.59063 50.8947 5.03497" fill="white"/>
<path fill-rule="evenodd" clip-rule="evenodd" d="M58.1794 6.35777V9.70273H56.7644V6.81309C56.7644 6.05422 56.3849 5.63675 55.7396 5.63675C55.1327 5.63675 54.6284 6.03242 54.6284 6.82391V9.70273H53.2134V4.44943H54.5905V5.06751C54.9645 4.50909 55.5392 4.30847 56.1355 4.30847C57.3282 4.30847 58.1794 5.13799 58.1794 6.35777" fill="white"/>
<mask id="mask1_18429_87455" style="mask-type:luminance" maskUnits="userSpaceOnUse" x="58" y="7" width="4" height="3">
<path fill-rule="evenodd" clip-rule="evenodd" d="M58.9922 7.73486H61.0957V9.83824H58.9922V7.73486Z" fill="white"/>
</mask>
<g mask="url(#mask1_18429_87455)">
<path fill-rule="evenodd" clip-rule="evenodd" d="M61.0957 8.78106C61.0957 9.35047 60.6078 9.83824 60.0495 9.83824C59.4855 9.83824 58.9922 9.35047 58.9922 8.78106C58.9922 8.2174 59.4855 7.73486 60.0495 7.73486C60.6078 7.73486 61.0957 8.2174 61.0957 8.78106" fill="white"/>
</g>
<mask id="mask2_18429_87455" style="mask-type:luminance" maskUnits="userSpaceOnUse" x="39" y="0" width="13" height="4">
<path fill-rule="evenodd" clip-rule="evenodd" d="M39.3547 0H51.0336V3.03106H39.3547V0Z" fill="white"/>
</mask>
<g mask="url(#mask2_18429_87455)">
<path fill-rule="evenodd" clip-rule="evenodd" d="M39.8055 0.035493C40.2458 0.179831 40.6849 0.320451 41.1326 0.428789C41.5768 0.546592 42.0257 0.644451 42.4778 0.71831C43.3808 0.869747 44.2938 0.957803 45.2085 0.941916C46.1231 0.951211 47.0351 0.85707 47.9356 0.69938C48.3863 0.622479 48.8337 0.521747 49.2762 0.401239C49.7217 0.290197 50.1586 0.146873 50.5965 0L51.0336 1.04485C50.2413 1.73814 49.2939 2.208 48.3027 2.53859C47.3075 2.86124 46.2574 3.02434 45.2085 3.03093C44.1596 3.03685 43.107 2.88608 42.1071 2.5751C41.1108 2.25634 40.1564 1.79746 39.3547 1.1138L39.8055 0.035493Z" fill="#FAE200"/>
</g>
</svg>
