<?xml version="1.0" encoding="UTF-8"?>
<svg id="Layer_1" data-name="Layer 1" xmlns="http://www.w3.org/2000/svg" xmlns:xlink="http://www.w3.org/1999/xlink" viewBox="0 0 200 200">
  <defs>
    <style>
      .cls-1 {
        fill: none;
      }

      .cls-2 {
        fill: #bebeff;
      }

      .cls-3 {
        fill: #073542;
      }

      .cls-4 {
        fill: #073644;
      }

      .cls-5 {
        fill: #4640ff;
      }

      .cls-6 {
        fill: url(#Dots_Dense);
      }
    </style>
    <pattern id="Dots_Dense" x="0" y="0" width="10.2" height="10.2" patternTransform="translate(-7645.18 -5941.02) scale(.24)" patternUnits="userSpaceOnUse" viewBox="0 0 10.2 10.2">
      <g>
        <rect class="cls-1" x="0" y="0" width="10.2" height="10.2"/>
        <circle class="cls-4" cx="10.2" cy="7.65" r="1"/>
        <circle class="cls-4" cx="5.1" cy="10.2" r="1"/>
        <circle class="cls-4" cx="0" cy="7.65" r="1"/>
        <circle class="cls-4" cx="10.2" cy="2.55" r="1"/>
        <circle class="cls-4" cx="5.1" cy="5.1" r="1"/>
        <circle class="cls-4" cx="0" cy="2.55" r="1"/>
        <circle class="cls-4" cx="5.1" cy="0" r="1"/>
      </g>
    </pattern>
  </defs>
  <path class="cls-6" d="m97.42,114.83h86.55c-3.03-23.64-25.88-14.58-25.88-14.58-11.03-27.97-35.06-14.47-39-4.87-11.06-17.26-21.67,4.48-21.67,19.45Z"/>
  <g>
    <path class="cls-6" d="m128.93,42.36h0c.87,7.21,6.55,12.89,13.76,13.76h0s0,0,0,0c-7.21.87-12.89,6.55-13.76,13.76h0s0,0,0,0c-.87-7.21-6.55-12.89-13.76-13.76h0s0,0,0,0c7.21-.87,12.89-6.55,13.76-13.76h0Z"/>
    <path class="cls-6" d="m108.17,35h0c.44,3.67,3.33,6.56,7,7h0,0c-3.67.44-6.56,3.33-7,7h0s0,0,0,0c-.44-3.67-3.33-6.56-7-7h0,0c3.67-.44,6.56-3.33,7-7h0Z"/>
  </g>
  <g>
    <path class="cls-2" d="m164.52,144.67l-50.49,13.08c-.82.21-1.62-.38-1.66-1.22-.33-8.01-5.32-43.99-66.04-83.67-1.01-.66-.69-2.21.49-2.42l53.64-9.84c.3-.05.61,0,.87.14,38.82,20.97,57.98,64.01,64.1,82.22.25.73-.18,1.51-.93,1.7Z"/>
    <g>
      <path class="cls-3" d="m67.66,79.64c.13,0,.34-.04.53-.08-.16,0-.32.03-.53.08Z"/>
      <polygon class="cls-3" points="68.2 79.55 68.2 79.55 68.2 79.55 68.2 79.55"/>
      <path class="cls-3" d="m106.03,69.2s-.1.03-.16.04c.05-.01.11-.02.16-.04Z"/>
      <path class="cls-3" d="m77.74,77.4l.02-.06c.47-.11.15.03.58-.09.15-.11.72-.16.86-.23,0,0,.21-.04.2-.02.06-.05.22-.06.35-.1.05-.02-.04,0-.08,0l.3-.09c.12-.02.16,0,.03.04.8-.17,4.64-1.04,5.49-1.26-.12,0-.38.08-.49.06.22-.08.34-.07.43-.12.1.05.5-.1.69-.07l.06-.05h.12c.99-.28.22-.08,1.11-.28.51-.13.74-.24,1.03-.29-.04,0-.16.01-.03-.03.03.03.35-.11.42-.09.13-.03.55-.13.4-.14.08,0,.46-.07.24,0,.13-.03.25-.05.34-.08l-.17.03c.43-.11.67-.13.94-.23l-.16.02c.26-.06.47-.12.58-.09l-.26.08c.42-.1.68-.16,1.03-.27l-.13.03c.44-.15,2.79-.75,3.19-.9h-.2s.35-.11.35-.11c-.04,0-.14.16-.18.15.76-.18,4.74-1.15,5.45-1.29.29-.05.06.05.06.05.34-.1.14-.07.44-.14.08-.01-.01.03-.05.05.13-.03.25-.05.26-.07-.16.02-.11-.04-.18-.05l.38-.09v.03c.07-.02.19-.13.56-.2.63-.14,1.31-.31,1.95-.45,0,.02-.14.06-.27.1.09-.02.21-.05.29-.06-.16,0,.26-.08.14-.07.45-.18,1.06-.26,1.46-.4.02-.07.62-1.28.61-1.35.13-.03.25-.06.29-.06-.04,0-.29.04-.42.08v.05c-.32.09-.09,0-.39.07-.02-.03.25-.1.49-.16-.22.05-.44.07-.52.13-.21.03.01-.05-.24,0-.17.05-.4.14-.6.16h0c-.5.08-.74.22-1.19.29l.05-.02c-.16.02-.47.12-.76.16.08-.01.16,0-.01.04-.33.06-.55.13-.8.16l-.22.09c-1.14.26-5.64,1.37-6.79,1.64l.04-.02c-1.74.43-5.33,1.27-7.13,1.74-.29.03-.67.13-.96.19.17-.03.11.01-.01.04-.89.21-.05.04-.95.26-1.03.27-4.99,1.17-5.92,1.36-.48.16-1.11.27-1.58.41l.05-.02c-.51.14-3.46.79-4.06.95h.08c-.52.14-.46.07-.88.15.07.04-.38.17-.55.22h0c-.26.06-.83.24-1.26.35v-.03c-.34.11-1.01.26-1.27.32-.59.13-1.51.29-2.28.51l-.53.04-.07.03s-.59,1.17.5,1.13v.03s.19-.05.19-.05c.25-.04.35-.1.34-.07l-.34.08c.25-.05.08,0-.01.04.1-.02.2-.04.29-.05.05-.02-.04,0-.08,0,.13-.04.31-.11.47-.14.25-.06.03.04.32-.02,1.56-.34,3.08-.67,4.65-1.04.04,0,0,.01-.05.03.47-.12.89-.22,1.32-.33.12-.02.16,0,.2,0-.08,0,2.38-.59,2.42-.59Z"/>
    </g>
    <g>
      <path class="cls-3" d="m76.25,86.71c.13,0,.34-.04.53-.08-.16,0-.32.03-.53.08Z"/>
      <polygon class="cls-3" points="76.79 86.63 76.79 86.63 76.78 86.63 76.79 86.63"/>
      <path class="cls-3" d="m114.61,76.27s-.1.03-.16.04c.05-.01.11-.02.16-.04Z"/>
      <path class="cls-3" d="m86.33,84.48l.02-.06c.47-.11.15.03.58-.09.15-.11.72-.16.86-.23,0,0,.21-.04.2-.02.06-.05.22-.06.35-.1.05-.02-.04,0-.08,0l.3-.09c.12-.02.16,0,.03.04.8-.17,4.64-1.04,5.49-1.26-.12,0-.38.08-.49.06.22-.08.34-.07.43-.12.1.05.5-.1.69-.07l.06-.05h.12c.99-.28.22-.08,1.11-.28.51-.13.74-.24,1.03-.29-.04,0-.16.01-.03-.03.03.03.35-.11.42-.09.13-.03.55-.13.4-.14.08,0,.46-.07.24,0,.13-.03.25-.05.34-.08l-.17.03c.43-.11.67-.13.94-.23l-.16.02c.26-.06.47-.12.58-.09l-.26.08c.42-.1.68-.16,1.03-.27l-.13.03c.44-.15,2.79-.75,3.19-.9h-.2s.35-.11.35-.11c-.04,0-.14.16-.18.15.76-.18,4.74-1.15,5.45-1.29.29-.05.06.05.06.05.34-.1.14-.07.44-.14.08-.01-.01.03-.05.05.13-.03.25-.05.26-.07-.16.02-.11-.04-.18-.05l.38-.09v.03c.07-.02.19-.13.56-.2.63-.14,1.31-.31,1.95-.45,0,.02-.14.06-.27.1.09-.02.21-.05.29-.06-.16,0,.26-.08.14-.07.45-.18,1.06-.26,1.46-.4.02-.07.62-1.28.61-1.35.13-.03.25-.06.29-.06-.04,0-.29.04-.42.08v.05c-.32.09-.09,0-.39.07-.02-.03.25-.1.49-.16-.22.05-.44.07-.52.13-.21.03.01-.05-.24,0-.17.05-.4.14-.6.16h0c-.5.08-.74.22-1.19.29l.05-.02c-.16.02-.47.12-.76.16.08-.01.16,0-.01.04-.33.06-.55.13-.8.16l-.22.09c-1.14.26-5.64,1.37-6.79,1.64l.04-.02c-1.74.43-5.33,1.27-7.13,1.74-.29.03-.67.13-.96.19.17-.03.11.01-.01.04-.89.21-.05.04-.95.26-1.03.27-4.99,1.17-5.92,1.36-.48.16-1.11.27-1.58.41l.05-.02c-.51.14-3.46.79-4.06.95h.08c-.52.14-.46.07-.88.15.07.04-.38.17-.55.22h0c-.26.06-.83.24-1.26.35v-.03c-.34.11-1.01.26-1.27.32-.59.13-1.51.29-2.28.51l-.53.04-.07.03s-.59,1.17.5,1.13v.03s.19-.05.19-.05c.25-.04.35-.1.34-.07l-.34.08c.25-.05.08,0-.01.04.1-.02.2-.04.29-.05.05-.02-.04,0-.08,0,.13-.04.31-.11.47-.14.25-.06.03.04.32-.02,1.56-.34,3.08-.67,4.65-1.04.04,0,0,.01-.05.03.47-.12.89-.22,1.32-.33.12-.02.16,0,.2,0-.08,0,2.38-.59,2.42-.59Z"/>
    </g>
    <g>
      <path class="cls-3" d="m84.84,93.79c.13,0,.34-.04.53-.08-.16,0-.32.03-.53.08Z"/>
      <polygon class="cls-3" points="85.37 93.7 85.38 93.7 85.37 93.7 85.37 93.7"/>
      <path class="cls-3" d="m123.2,83.35s-.1.03-.16.04c.05-.01.11-.02.16-.04Z"/>
      <path class="cls-3" d="m94.92,91.55l.02-.06c.47-.11.15.03.58-.09.15-.11.72-.16.86-.23,0,0,.21-.04.2-.02.06-.05.22-.06.35-.1.05-.02-.04,0-.08,0l.3-.09c.12-.02.16,0,.03.04.8-.17,4.64-1.04,5.49-1.26-.12,0-.38.08-.49.06.22-.08.34-.07.43-.12.1.05.5-.1.69-.07l.06-.05h.12c.99-.28.22-.08,1.11-.28.51-.13.74-.24,1.03-.29-.04,0-.16.01-.03-.03.03.03.35-.11.42-.09.13-.03.55-.13.4-.14.08,0,.46-.07.24,0,.13-.03.25-.05.34-.08l-.17.03c.43-.11.67-.13.94-.23l-.16.02c.26-.06.47-.12.58-.09l-.26.08c.42-.1.68-.16,1.03-.27l-.13.03c.44-.15,2.79-.75,3.19-.9h-.2s.35-.11.35-.11c-.04,0-.14.16-.18.15.76-.18,4.74-1.15,5.45-1.29.29-.05.06.05.06.05.34-.1.14-.07.44-.14.08-.01-.01.03-.05.05.13-.03.25-.05.26-.07-.16.02-.11-.04-.18-.05l.38-.09v.03c.07-.02.19-.13.56-.2.63-.14,1.31-.31,1.95-.45,0,.02-.14.06-.27.1.08-.02.21-.05.29-.06-.16,0,.26-.08.14-.07.45-.18,1.06-.26,1.46-.4.02-.07.62-1.28.61-1.35.13-.03.25-.06.29-.06-.04,0-.29.04-.42.08v.05c-.32.09-.09,0-.39.07-.02-.03.25-.1.49-.16-.22.05-.44.07-.52.13-.21.03.01-.05-.24,0-.17.05-.4.14-.6.16h0c-.5.08-.74.22-1.19.29l.05-.02c-.16.02-.47.12-.76.16.08-.01.16,0-.01.04-.33.06-.55.13-.8.16l-.22.09c-1.14.26-5.64,1.37-6.79,1.64l.04-.02c-1.74.43-5.33,1.27-7.13,1.74-.29.03-.67.13-.96.19.17-.03.11.01-.01.04-.89.21-.05.04-.95.26-1.03.27-4.99,1.17-5.92,1.36-.48.16-1.11.27-1.58.41l.05-.02c-.51.14-3.46.79-4.06.95h.08c-.52.14-.46.07-.88.15.07.04-.38.17-.55.22h0c-.26.06-.83.24-1.26.35v-.03c-.34.11-1.01.26-1.27.32-.59.13-1.51.29-2.28.51l-.53.04-.07.03s-.59,1.17.5,1.13v.03s.19-.05.19-.05c.25-.04.35-.1.34-.07l-.34.08c.25-.05.08,0-.01.04.1-.02.2-.04.29-.05.05-.02-.04,0-.08,0,.13-.04.31-.11.47-.14.25-.06.03.04.32-.02,1.56-.34,3.08-.67,4.65-1.04.04,0,0,.01-.05.03.47-.12.89-.22,1.32-.33.12-.02.16,0,.2,0-.08,0,2.38-.59,2.42-.59Z"/>
    </g>
    <g>
      <path class="cls-3" d="m92.06,101.13c.13,0,.34-.04.53-.08-.16,0-.32.03-.53.08Z"/>
      <polygon class="cls-3" points="92.6 101.04 92.6 101.04 92.6 101.04 92.6 101.04"/>
      <path class="cls-3" d="m130.43,90.69s-.1.03-.16.04c.05-.01.11-.02.16-.04Z"/>
      <path class="cls-3" d="m102.15,98.89l.02-.06c.47-.11.15.03.58-.09.15-.11.72-.16.86-.23,0,0,.21-.04.2-.02.06-.05.22-.06.35-.1.05-.02-.04,0-.08,0l.3-.09c.12-.02.16,0,.03.04.8-.17,4.64-1.04,5.49-1.26-.12,0-.38.08-.49.06.22-.08.34-.07.43-.12.1.05.5-.1.69-.07l.06-.05h.12c.99-.28.22-.08,1.11-.28.51-.13.74-.24,1.03-.29-.04,0-.16.01-.03-.03.03.03.35-.11.42-.09.13-.03.55-.13.4-.14.08,0,.46-.07.24,0,.13-.03.25-.05.34-.08l-.17.03c.43-.11.67-.13.94-.23l-.16.02c.26-.06.47-.12.58-.09l-.26.08c.42-.1.68-.16,1.03-.27l-.13.03c.44-.15,2.79-.75,3.19-.9h-.2s.35-.11.35-.11c-.04,0-.14.16-.18.15.76-.18,4.74-1.15,5.45-1.29.29-.05.06.05.06.05.34-.1.14-.07.44-.14.08-.01-.01.03-.05.05.13-.03.25-.05.26-.07-.16.02-.11-.04-.18-.05l.38-.09v.03c.07-.02.19-.13.56-.2.63-.14,1.31-.31,1.95-.45,0,.02-.14.06-.27.1.08-.02.21-.05.29-.06-.16,0,.26-.08.14-.07.45-.18,1.06-.26,1.46-.4.02-.07.62-1.28.61-1.35.13-.03.25-.06.29-.06-.04,0-.29.04-.42.08v.05c-.32.09-.09,0-.39.07-.02-.03.25-.1.49-.16-.22.05-.44.07-.52.13-.21.03.01-.05-.24,0-.17.05-.4.14-.6.16h0c-.5.08-.74.22-1.19.29l.05-.02c-.16.02-.47.12-.76.16.08-.01.16,0-.01.04-.33.06-.55.13-.8.16l-.22.09c-1.14.26-5.64,1.37-6.79,1.64l.04-.02c-1.74.43-5.33,1.27-7.13,1.74-.29.03-.67.13-.96.19.17-.03.11.01-.01.04-.89.21-.05.04-.95.26-1.03.27-4.99,1.17-5.92,1.36-.48.16-1.11.27-1.58.41l.05-.02c-.51.14-3.46.79-4.06.95h.08c-.52.14-.46.07-.88.15.07.04-.38.17-.55.22h0c-.26.06-.83.24-1.26.35v-.03c-.34.11-1.01.26-1.27.32-.59.13-1.51.29-2.28.51l-.53.04-.07.03s-.59,1.17.5,1.13v.03s.19-.05.19-.05c.25-.04.35-.1.34-.07l-.34.08c.25-.05.08,0-.01.04.1-.02.2-.04.29-.05.05-.02-.04,0-.08,0,.13-.04.31-.11.47-.14.25-.06.03.04.32-.02,1.56-.34,3.08-.67,4.65-1.04.04,0,0,.01-.05.03.47-.12.89-.22,1.32-.33.12-.02.16,0,.2,0-.08,0,2.38-.59,2.42-.59Z"/>
    </g>
    <g>
      <path class="cls-3" d="m99.69,108.93c.13,0,.34-.04.53-.08-.16,0-.32.03-.53.08Z"/>
      <polygon class="cls-3" points="100.23 108.85 100.23 108.85 100.23 108.85 100.23 108.85"/>
      <path class="cls-3" d="m138.06,98.5s-.1.03-.16.04c.05-.01.11-.02.16-.04Z"/>
      <path class="cls-3" d="m109.78,106.7l.02-.06c.47-.11.15.03.58-.09.15-.11.72-.16.86-.23,0,0,.21-.04.2-.02.06-.05.22-.06.35-.1.05-.02-.04,0-.08,0l.3-.09c.12-.02.16,0,.03.04.8-.17,4.64-1.04,5.49-1.26-.12,0-.38.08-.49.06.22-.08.34-.07.43-.12.1.05.5-.1.69-.07l.06-.05h.12c.99-.28.22-.08,1.11-.28.51-.13.74-.24,1.03-.29-.04,0-.16.01-.03-.03.03.03.35-.11.42-.09.13-.03.55-.13.4-.14.08,0,.46-.07.24,0,.13-.03.25-.05.34-.08l-.17.03c.43-.11.67-.13.94-.23l-.16.02c.26-.06.47-.12.58-.09l-.26.08c.42-.1.68-.16,1.03-.27l-.13.03c.44-.15,2.79-.75,3.19-.9h-.2s.35-.11.35-.11c-.04,0-.14.16-.18.15.76-.18,4.74-1.15,5.45-1.29.29-.05.06.05.06.05.34-.1.14-.07.44-.14.08-.01-.01.03-.05.05.13-.03.25-.05.26-.07-.17.02-.11-.04-.18-.05l.38-.09v.03c.07-.02.19-.13.56-.2.63-.14,1.31-.31,1.95-.45,0,.02-.14.06-.27.1.09-.02.21-.05.29-.06-.16,0,.26-.08.14-.07.45-.18,1.06-.26,1.46-.4.02-.07.62-1.28.61-1.35.13-.03.25-.06.29-.06-.04,0-.29.04-.42.08v.05c-.32.09-.09,0-.39.07-.02-.03.25-.1.49-.16-.22.05-.44.07-.52.13-.21.03.01-.05-.24,0-.17.05-.4.14-.6.16h0c-.5.08-.74.22-1.19.29l.05-.02c-.16.02-.47.12-.76.16.08-.01.16,0-.01.04-.33.06-.55.13-.8.16l-.22.09c-1.14.26-5.64,1.37-6.79,1.64l.04-.02c-1.74.43-5.33,1.27-7.13,1.74-.29.03-.67.13-.96.19.17-.03.11.01-.01.04-.89.21-.05.04-.95.26-1.03.27-4.99,1.17-5.92,1.36-.48.16-1.11.27-1.58.41l.05-.02c-.51.14-3.46.79-4.06.95h.08c-.52.14-.46.07-.88.15.07.04-.38.17-.55.22h0c-.26.06-.83.24-1.26.35v-.03c-.34.11-1.01.26-1.27.32-.59.13-1.51.29-2.28.51l-.53.04-.07.03s-.59,1.17.5,1.13v.03s.19-.05.19-.05c.25-.04.35-.1.34-.07l-.34.08c.25-.05.08,0-.01.04.1-.02.2-.04.29-.05.05-.02-.04,0-.08,0,.13-.04.31-.11.47-.14.25-.06.03.04.32-.02,1.56-.34,3.08-.67,4.65-1.04.04,0,0,.01-.05.03.47-.12.89-.22,1.32-.33.12-.02.16,0,.2,0-.08,0,2.38-.59,2.42-.59Z"/>
    </g>
    <g>
      <path class="cls-3" d="m105.78,116.23c.13,0,.34-.04.53-.08-.16,0-.32.03-.53.08Z"/>
      <polygon class="cls-3" points="106.32 116.15 106.32 116.15 106.32 116.15 106.32 116.15"/>
      <path class="cls-3" d="m144.15,105.8s-.1.03-.16.04c.05-.01.11-.02.16-.04Z"/>
      <path class="cls-3" d="m115.87,114l.02-.06c.47-.11.15.03.58-.09.15-.11.72-.16.86-.23,0,0,.21-.04.2-.02.06-.05.22-.06.35-.1.05-.02-.04,0-.08,0l.3-.09c.12-.02.16,0,.03.04.8-.17,4.64-1.04,5.49-1.26-.12,0-.38.08-.49.06.22-.08.34-.07.43-.12.1.05.5-.1.69-.07l.06-.05h.12c.99-.28.22-.08,1.11-.28.51-.13.74-.24,1.03-.29-.04,0-.16.01-.03-.03.03.03.35-.11.42-.09.13-.03.55-.13.4-.14.08,0,.46-.07.24,0,.13-.03.25-.05.34-.08l-.17.03c.43-.11.67-.13.94-.23l-.16.02c.26-.06.47-.12.58-.09l-.26.08c.42-.1.68-.16,1.03-.27l-.13.03c.44-.15,2.79-.75,3.19-.9h-.2s.35-.11.35-.11c-.04,0-.14.16-.18.15.76-.18,4.74-1.15,5.45-1.29.29-.05.06.05.06.05.34-.1.14-.07.44-.14.08-.01-.01.03-.05.05.13-.03.25-.05.26-.07-.16.02-.11-.04-.18-.05l.38-.09v.03c.07-.02.19-.13.56-.2.63-.14,1.31-.31,1.95-.45,0,.02-.14.06-.27.1.09-.02.21-.05.29-.06-.16,0,.26-.08.14-.07.45-.18,1.06-.26,1.46-.4.02-.07.62-1.28.61-1.35.13-.03.25-.06.29-.06-.04,0-.29.04-.42.08v.05c-.32.09-.09,0-.39.07-.02-.03.25-.1.49-.16-.22.05-.44.07-.52.13-.21.03.01-.05-.24,0-.17.05-.4.14-.6.16h0c-.5.08-.74.22-1.19.29l.05-.02c-.16.02-.47.12-.76.16.08-.01.16,0-.01.04-.33.06-.55.13-.8.16l-.22.09c-1.14.26-5.64,1.37-6.79,1.64l.04-.02c-1.74.43-5.33,1.27-7.13,1.74-.29.03-.67.13-.96.19.17-.03.11.01-.01.04-.89.21-.05.04-.95.26-1.03.27-4.99,1.17-5.92,1.36-.48.16-1.11.27-1.58.41l.05-.02c-.51.14-3.46.79-4.06.95h.08c-.52.14-.46.07-.88.15.07.04-.38.17-.55.22h0c-.26.06-.83.24-1.26.35v-.03c-.34.11-1.01.26-1.27.32-.59.13-1.51.29-2.28.51l-.53.04-.07.03s-.59,1.17.5,1.13v.03s.19-.05.19-.05c.25-.04.35-.1.34-.07l-.34.08c.25-.05.08,0-.01.04.1-.02.2-.04.29-.05.05-.02-.04,0-.08,0,.13-.04.31-.11.47-.14.25-.06.03.04.32-.02,1.56-.34,3.08-.67,4.65-1.04.04,0,0,.01-.05.03.47-.12.89-.22,1.32-.33.12-.02.16,0,.2,0-.08,0,2.38-.59,2.42-.59Z"/>
    </g>
    <g>
      <path class="cls-5" d="m118.64,146.85c.27-.13.72-.37,1.13-.64-.45.26-.73.42-1.13.64Z"/>
      <polygon class="cls-5" points="119.78 146.2 119.78 146.2 119.77 146.21 119.78 146.2"/>
      <path class="cls-5" d="m148.58,134.68c-.08.07-.18.15-.27.23.1-.07.19-.15.27-.23Z"/>
      <path class="cls-5" d="m124.77,128.17s-.02.07-.03.1c-.51.48-.52.57-.6.62-.06.06-.12.11-.42.61-.19.42-.79,1.69-.83,2.07,0-.01-.16.5-.17.46,0,.17-.14.53-.19.86-.01.12.03-.08.06-.17l-.14.75c-.06.29-.1.36-.05.04-.18.97-.67,3.85.02,6.79.17.73.43,1.47.85,2.14.41.67,1.01,1.26,1.71,1.58.69.32,1.41.37,1.94.29.28-.02.51-.07.71-.13.2-.05.38-.09.51-.15-.28.07-1,.27-1.3.23.65-.07.91-.18,1.18-.26.12,0,.43-.11.76-.25.25-.11.44-.2.88-.4l.13-.12.27-.13c1.06-.74,1.12-.89,1.22-.94.08-.08.16-.1.96-.89.89-.95,1.19-1.49,1.62-2.05-.06.09-.25.3-.06.03.07-.02.47-.75.58-.87.17-.27.68-1.19.46-.9.12-.14.53-.98.31-.47.14-.28.28-.55.36-.77l-.18.36c.44-.97.67-1.51.85-2.19-.04.13-.09.25-.14.37.21-.61.33-1.13.44-1.37-.05.22-.09.44-.15.65.28-1.04.4-1.69.35-2.68,0,.12.01.24,0,.35-.01-.16,0-.39-.06-.7-.05-.3-.14-.72-.48-1.16-.18-.22-.46-.41-.77-.49-.32-.08-.6-.06-.88,0-.25.07-.5.15-.71.26-.2.07-.49.28-.69.48-.72.84-.9,1.73-1.06,2.44-.14.71-.18,1.28-.19,1.53l.09-.47c-.03.3-.05.59-.05.89,0-.1-.09-.44-.07-.52-.04.48-.12,1.45,0,2.68.05.61.15,1.29.34,1.98.18.7.45,1.42.92,2.09.45.66,1.26,1.26,2.14,1.28.87.05,1.54-.3,2.11-.59,1.1-.65,1.73-1.36,2.06-1.65.52-.49.14-.05.13-.04.58-.64.22-.3.71-.84.14-.14,0,.05-.08.14.21-.24.42-.46.41-.49-.26.3-.2.14-.33.24.21-.23.4-.48.59-.72v.05c.12-.17.28-.45.81-1.18.22-.3.44-.61.67-.92l.33-.5.17-.25s.05.12.08.18c.07.17.05.13.33.61-.01,0-.07-.08-.15-.2-.03-.05-.07-.1-.1-.16l-.04-.06c.08.13.17.3.28.48-.09-.19-.01-.03.12.12.14.15.28.3.17.17.41.49,1.16.89,1.89.96.74.08,1.43-.12,1.9-.36.04-.04.44-.52.71-1.04.28-.5.46-1.02.44-1.05.22-.17.43-.37.48-.41-.04.02-.47.39-.69.57l-.02.06c-.54.4-.14.08-.68.44-.05-.01.46-.32.87-.67-.37.31-.79.53-.93.66-.39.19.02-.06-.44.18-.32.15-.76.37-1.12.36h0c-.23.04-.39-.03-.55-.02-.14-.07-.3-.06-.42-.15-.26-.14-.5-.34-.73-.72l.06.08c-.05-.08-.09-.16-.14-.25-.13-.16-.27-.53-.38-.81-.12-.28-.26-.58-.39-.89-.07-.15-.13-.31-.2-.46l-.1-.24-.02-.06s-.02.03-.03.04l-.06.09c.1-.26.16.08.17.09,0,.02,0,0-.03-.05-.02-.01-.03-.12-.06-.09-.03.05-.07.12-.12.19-.4.6-.69,1.04-.98,1.47-.14.22-.28.43-.42.64-.07.1-.14.2-.21.31-.04.06-.09.12-.14.18l-.29.46c-.39.54-1.06,1.5-2,2.52-.46.51-1,1.03-1.59,1.49-.59.43-1.27.79-1.85.79-.57.05-1.04-.36-1.41-.93-.36-.58-.57-1.28-.71-1.94-.28-1.32-.26-2.48-.23-3.13v.1c.05-.97.17-2.31.72-3.41.14-.27.31-.45.45-.54.28-.14.58-.25.75-.24.14.02.15.03.27.26.09.22.12.58.11.92-.07,1.43-.62,2.95-1.21,4.23-.61,1.29-1.31,2.39-1.95,3.21-.42.49-1,1.15-1.5,1.58.28-.24.2-.14,0,.06-.76.66-.8.66-.82.69-.03.01-.03.09-.9.61-.49.26-1.43.79-2.48.79-.52,0-1.03-.19-1.46-.59-.43-.4-.75-.99-.98-1.62-.46-1.28-.55-2.73-.54-3.91.02-1.2.16-2.16.25-2.69.13-1.14.53-2.52.96-3.5l-.03.1c.12-.25.37-.87.87-1.37.12-.13.26-.22.39-.32.07-.02.14-.05.21-.09l.27-.05c.36-.04.64.03.87.3.48.54.58,1.61.54,2.4-.04.82-.16,1.49-.24,1.83l.05-.18c-.24,1.18-.27,1.01-.57,1.91.09-.1-.24.89-.41,1.25v-.02c-.23.56-.81,1.8-1.35,2.65v-.05c-.41.73-1.38,1.97-1.78,2.42-.9,1.04-2.47,2.47-3.98,3.51-.35.19-.68.4-1.04.57l-.14.09s-1.21,1.87,1.09.77l-.02.05.42-.28c.52-.32.72-.51.71-.47-.22.17-.46.31-.69.46.51-.33.17-.08-.02.06.21-.13.4-.25.6-.38.09-.08-.08.04-.16.09.27-.19.61-.49.94-.72.49-.38.06.02.63-.44,2.97-2.45,5.28-5.56,6.57-9.28.04-.08,0,.02-.02.13.37-1.13.63-2.16.73-3.27.04-.21.06-.36.08-.48-.02.04.03-.31-.01-.9-.04-.58-.12-1.42-.62-2.26-.27-.41-.68-.81-1.19-1-.5-.16-1-.16-1.34-.08-.34.05-.72.23-.9.34-.19.13-.3.21-.32.22Z"/>
    </g>
  </g>
  <g>
    <path class="cls-6" d="m33.72,145.34l32.34-41.57c2.54-3.05,4.15-1.55,4.15-1.55,3.85,3.29-2.21,12.38-2.21,12.38l10.53,16.14c1.83,2.81,1.79,6.45-.11,9.22-4.25,6.18-10.58,12.83-10.31,6.8,0,0-6.1,6.03-18.28,7.27,0,0-16.05-8.83-16.1-8.7Z"/>
    <g>
      <path class="cls-3" d="m77.52,139.92c-.25.29-.63.82-.99,1.32.3-.37.61-.77.99-1.32Z"/>
      <path class="cls-3" d="m76.52,141.25h0s.01,0,.01,0c0,0,0,0,0,0Z"/>
      <path class="cls-3" d="m67.12,114.61c-.08.13-.17.28-.27.44l.27-.44Z"/>
      <path class="cls-3" d="m74.57,132.8v-.11c.75-1.25.27-.34.96-1.49.14-.3.57-.97.93-1.52l-1.27-.74c-.19.35-.35.65-.42.81,0,0-.32.56-.32.52-.06.2-.32.59-.52.96-.06.14.06-.09.13-.18l-.46.83c-.2.31-.27.38-.07.03-.63,1.06-2.52,4.14-4.87,6.86-1.17,1.35-2.45,2.63-3.63,3.44-.58.4-1.16.68-1.53.73-.37.01-.24,0-.36-.13.02.09.06.12.09.15.04.03.22.03.33.03-.24.06-.33.01-.36,0-.04-.02-.06-.04-.1-.09,0-.05-.08-.25-.09-.6-.01-.34.04-.75.11-.99,0-.06,0-.13,0-.19l.09-.32c.33-1.44.44-1.61.47-1.74.05-.12.06-.21.56-1.47.59-1.46.88-2.17,1.28-2.96-.06.12-.23.42-.06.05.06-.05.46-1,.59-1.16.17-.37.79-1.53.54-1.15.12-.19.69-1.21.38-.59.19-.34.35-.65.51-.94l-.26.44c.64-1.18,1.03-1.79,1.43-2.57l-.27.42c.4-.69.73-1.28.94-1.52l-.4.72c.66-1.13,1.06-1.8,1.64-2.79l-.21.34c.27-.48,1.01-1.71,1.88-3.11l-1.07-.64c-1.2,2.29-2.8,4.91-3.22,5.59l.36-.48-.58.95c.07-.11.19-.52.27-.6-.66.98-2.66,4.16-5.26,6.67-.65.61-1.36,1.19-2.05,1.49-.34.15-.67.19-.79.11-.12-.05-.25-.27-.3-.58-.1-.61,0-1.28.08-1.8.1-.53.2-.94.28-1.2.25-.84.1-.14.1-.12.28-1.02.08-.45.36-1.32.08-.23.01.06-.03.19.12-.38.26-.72.25-.76-.18.47-.15.25-.25.44l.4-1.1v.06c.1-.24.17-.65.63-1.72.78-1.8,1.71-3.72,2.65-5.47,0,.03-.18.41-.37.78.12-.23.3-.6.43-.81-.25.41.37-.74.19-.42.62-1.31,1.6-2.92,2.21-4.05,0-.13.46-2.93.41-2.97.21-.33.41-.65.49-.78-.07.08-.49.75-.7,1.11v.08c-.49.83-.14.18-.62.99-.05.03.38-.72.78-1.37-.36.58-.73,1.16-.85,1.42-.34.55,0-.08-.41.58-.27.48-.61,1.13-.94,1.67h0c-.79,1.32-1.12,2.08-1.81,3.32l.06-.14c-.25.43-.68,1.32-1.1,2.12.12-.23.24-.42,0,.07-.48.93-.76,1.58-1.1,2.26l-.27.68c-.36.84-.99,2.29-1.56,4.15-.28.94-.55,1.97-.63,3.15-.02.59-.06,1.23.35,2,.2.38.68.75,1.16.81.47.07.85-.03,1.18-.14,1.27-.51,2.1-1.32,2.91-2.09.79-.78,1.48-1.58,2.09-2.33,1.21-1.5,2.1-2.82,2.61-3.57l-.08.12c1.07-1.6,2.45-3.83,3.84-6.39l-1.18-.7c-2.85,4.43-5.91,9.77-7.42,13.22-.4.8-.87,1.93-1.2,2.82.19-.48.15-.31.01.07-.47,1.35-.45,1.42-.46,1.47.01.06-.06.09-.32,1.57-.05.43-.15,1.02.04,1.85.09.39.41.98,1.03,1.19.59.18,1.12.06,1.57-.11,1.76-.73,3.19-2.15,4.55-3.58,2.69-2.91,4.75-6.21,5.51-7.45.61-1.07,1.34-2.35,1.94-3.52l-1.04-.6c-.19.3-.36.59-.54.88l.07-.14c-.44.69-1.88,3.02-3.19,5.47-1.33,2.44-2.43,5.04-2.75,5.95l.1-.24c-.56,1.59-.53,1.35-.93,2.63.09-.16-.27,1.25-.35,1.81v-.02c-.07.42-.19,1.1-.17,1.9,0,.4.05.82.17,1.25.15.42.35.9.81,1.16l-.08-.02c.16.14.4.19.63.26.23.01.49.04.71-.02.47-.08.86-.29,1.23-.5.71-.44,1.29-.94,1.59-1.24,1.44-1.27,3.16-3.63,4.54-5.65l.99-1.25.13-.19s.68-2.67-1.39-.14v-.06s-.37.53-.37.53c-.46.62-.64.93-.64.87l.62-.86c-.46.63-.16.18,0-.07-.19.25-.37.5-.53.72-.08.13.08-.08.15-.18-.23.35-.55.84-.86,1.24-.46.64-.07.02-.61.76-.7.98-1.45,1.9-2.25,2.75-.79.81-1.7,1.66-2.58,1.97-.22.08-.39.08-.52.08-.09-.06-.16-.04-.24-.19-.18-.25-.25-.81-.24-1.34.03-1.09.29-2.26.63-3.4.04-.1,0,.02-.03.16.39-1.39.87-2.6,1.38-3.83.16-.33.22-.42.28-.51-.06.1.68-1.6,1.56-3.28.45-.84.9-1.68,1.27-2.31.36-.64.61-1.07.63-1.09Z"/>
    </g>
    <g>
      <path class="cls-3" d="m44.64,81.6c.04.13.16.34.26.53-.06-.16-.14-.32-.26-.53Z"/>
      <polygon class="cls-3" points="44.91 82.13 44.91 82.14 44.91 82.13 44.91 82.13"/>
      <path class="cls-3" d="m67.87,118.35s-.06-.1-.09-.16c.03.05.06.11.09.16Z"/>
      <path class="cls-3" d="m50.26,91.4h.06c.27.45.03.16.28.58.16.13.4.7.52.82,0,0,.11.21.08.2.07.04.13.21.22.33.04.04,0-.04-.02-.08l.19.29c.06.12.05.16-.02.04.44.78,2.59,4.51,3.1,5.33-.04-.12-.21-.37-.22-.49.15.21.18.33.26.41-.01.12.27.49.31.69l.07.04.04.12c.61.95.15.21.64,1.07.3.49.48.7.63.99-.02-.04-.07-.16.02-.04-.02.04.22.33.23.41.08.12.31.53.27.37.02.08.23.45.08.24.07.12.13.25.2.33l-.08-.16c.25.41.35.66.55.9l-.07-.16c.15.25.27.45.29.57l-.16-.25c.24.41.39.66.62.99l-.07-.12c.3.41,1.68,2.68,1.96,3.05l-.08-.2.23.33s-.2-.11-.21-.15c.44.74,2.73,4.58,3.11,5.28.14.29-.02.08-.03.08.21.33.12.12.28.41.04.08-.03,0-.06-.04.08.12.13.25.16.25-.08-.16,0-.12-.01-.2l.21.37h-.03c.05.08.19.17.39.53.35.62.75,1.27,1.1,1.89-.02,0-.11-.12-.19-.25.05.08.13.21.16.29-.06-.16.17.25.11.12.33.41.61,1.03.89,1.4.08,0,1.45.29,1.51.25.07.12.14.25.16.29,0-.04-.14-.29-.22-.41h-.05c-.19-.29-.02-.08-.19-.37.02-.03.18.23.32.46-.12-.21-.22-.43-.3-.5-.1-.2.05,0-.08-.24-.11-.16-.27-.37-.37-.58h0c-.25-.49-.47-.7-.7-1.15l.04.04c-.07-.16-.27-.45-.42-.74.04.08.06.16-.04,0-.17-.33-.31-.53-.43-.78l-.16-.21c-.65-1.11-3.26-5.45-3.91-6.56l.03.04c-1.01-1.68-3.05-5.16-4.12-6.88-.13-.29-.36-.66-.52-.94.08.16.03.12-.04,0-.5-.86-.05-.05-.58-.91-.62-.99-2.84-4.83-3.34-5.74-.32-.45-.64-1.07-.94-1.52l.04.04c-.31-.49-1.95-3.36-2.31-3.93l.04.08c-.33-.49-.24-.45-.46-.86-.01.08-.3-.34-.4-.51h.01c-.16-.25-.53-.79-.78-1.2h.03c-.23-.33-.6-.98-.75-1.23-.32-.57-.8-1.48-1.28-2.22l-.22-.53-.05-.07s-1.33-.28-.92.83h-.03s.12.2.12.2c.13.25.22.34.19.34l-.19-.33c.13.24.02.08-.05,0,.06.1.11.2.15.28.04.04,0-.04-.03-.08.08.12.21.29.29.45.14.25-.03.04.13.33.87,1.52,1.7,2.99,2.6,4.51.01.04-.01,0-.04-.04.28.45.52.86.77,1.27.06.12.06.16.07.2-.02-.08,1.38,2.29,1.4,2.33Z"/>
    </g>
    <g>
      <path class="cls-3" d="m41.77,85.41s-.06.11-.09.19c.04-.05.07-.11.09-.19Z"/>
      <polygon class="cls-3" points="41.69 85.6 41.69 85.6 41.69 85.59 41.69 85.6"/>
      <path class="cls-3" d="m39.48,100.13s0-.04.01-.06c0,.02-.01.04-.01.06Z"/>
      <path class="cls-3" d="m40.7,89.12l.05.02c-.04.17-.07.04-.1.2.06.08-.07.26-.05.33,0,0-.03.08-.05.06.03.03-.01.08-.01.14,0,.02.02-.01.03-.02v.12s-.06.05-.06,0c-.09.29-.49,1.71-.55,2.03.04-.03.04-.14.1-.16,0,.09-.04.12-.02.17-.08.01-.06.18-.15.23l.03.03-.03.04c-.05.38,0,.09-.09.42-.04.19-.01.3-.06.4,0-.02.04-.05.04,0-.04,0,0,.14-.05.15,0,.05-.05.2,0,.16-.03.02-.08.16-.07.07-.01.05-.03.09-.03.13l.03-.06c-.03.16-.09.24-.08.35l.03-.05c-.02.1-.04.18-.09.2v-.1c-.03.16-.05.25-.06.39v-.05c.02.18-.17,1.07-.15,1.24l.05-.06v.14s-.1-.09-.09-.1c-.07.29-.41,1.77-.51,2.03-.05.1-.06,0-.07,0-.02.13.02.07,0,.17-.01.03-.03-.01-.03-.03,0,.05-.03.09-.02.1.03-.06.07-.02.1-.04l-.04.14h-.03s.06.09,0,.22c-.07.23-.13.49-.19.72-.02,0-.01-.06-.01-.11,0,.03-.02.08-.04.11.04-.05,0,.1.02.06.03.19-.09.4-.09.56.06.03.98.6,1.06.61-.01.05-.03.09-.04.11.02,0,.05-.1.05-.15l-.04-.02c.01-.12.03-.02.06-.13.03,0,.02.11,0,.2.02-.08.07-.15.04-.2.03-.07.04.02.07-.07,0-.07,0-.16.03-.23h0c.08-.17.02-.29.1-.45v.02c.04-.05.04-.18.09-.28-.01.03-.04.05-.03-.02.05-.12.05-.21.1-.29v-.09c.1-.42.48-2.11.58-2.54v.02c.15-.65.49-1.99.61-2.67.06-.1.09-.24.12-.35-.03.06-.05.03-.03-.02.09-.33-.02-.03.06-.37.07-.39.47-1.86.59-2.19,0-.19.09-.42.11-.6v.02c.04-.2.36-1.28.4-1.51v.03c0-.2.05-.16.1-.31-.06,0-.04-.17-.03-.23h.01c.02-.09.03-.32.06-.48h.03c0-.13.08-.37.1-.47.07-.22.2-.54.24-.84l.13-.17v-.03s-.9-.55-1.2-.22h-.03s-.02.06-.02.06c-.04.09-.02.14-.04.13l.04-.12c-.03.09-.03.02-.04-.02-.01.04-.03.07-.04.1,0,.02.02-.01.02-.02,0,.05,0,.13-.02.18-.03.09-.05,0-.08.1-.17.57-.34,1.13-.48,1.71-.02.01-.01,0-.01-.02-.03.18-.08.33-.1.5-.02.04-.04.05-.06.06.03-.02-.2.89-.21.91Z"/>
    </g>
    <g>
      <path class="cls-3" d="m39.34,80.2c-.05-.03-.14-.03-.22-.03.06.03.13.04.22.03Z"/>
      <polygon class="cls-3" points="39.12 80.17 39.12 80.17 39.12 80.17 39.12 80.17"/>
      <path class="cls-3" d="m23.63,82.32s.04,0,.07,0c-.02,0-.04,0-.07,0Z"/>
      <path class="cls-3" d="m35.23,80.27v.05c-.2,0-.07-.06-.24-.04-.07.08-.29,0-.35.05,0,0-.09,0-.08-.03-.02.04-.09.01-.14.03-.02.01.02.01.03.02l-.12.02s-.06-.03,0-.04c-.33,0-1.89.04-2.24.07.05.03.15,0,.2.05-.09.03-.14,0-.18.03-.04-.07-.2,0-.28-.08l-.02.04-.05-.02c-.41.06-.09.02-.45.03-.21.02-.31.08-.42.06.02,0,.06.02.01.03-.01-.03-.14.03-.17,0-.05,0-.22.01-.16.06-.03-.02-.18-.03-.09-.05-.05,0-.1,0-.14,0h.07c-.17.03-.27,0-.38.04l.07.02c-.1,0-.19.02-.23-.03l.11-.02c-.17,0-.28.02-.42.05h.05c-.18.06-1.14.14-1.31.21l.08.03-.14.04s.06-.12.08-.11c-.31.02-1.93.12-2.22.11-.12-.02-.02-.06-.02-.06-.14.02-.06.04-.18.04-.03,0,0-.03.02-.04-.05,0-.1,0-.11.01.07.01.04.06.07.09h-.15s0-.03,0-.03c-.03,0-.08.08-.24.08-.26,0-.54.02-.79.03,0-.02.06-.03.11-.04-.03,0-.09,0-.12,0,.06.03-.11.03-.06.04-.19.08-.43.03-.6.08-.01.06-.31,1.12-.3,1.19-.05,0-.1,0-.12,0,.01.02.12.02.17,0v-.04c.13-.02.04.02.16.01,0,.03-.1.05-.2.05.09,0,.18.02.21-.02.08,0,0,.04.09.05.07-.01.16-.05.25-.03h0c.2.03.3-.06.49-.03h-.02c.07.03.19,0,.31.01-.03,0-.06-.03,0-.04.13.01.22-.01.32.01l.09-.04c.47-.02,2.3-.15,2.77-.18h-.02c.71-.04,2.18-.11,2.91-.19.12.03.27.01.39.02-.07-.01-.05-.03,0-.04.36-.01.02-.02.39-.05.42-.05,2.04-.09,2.41-.08.2-.06.45-.03.65-.07h-.02c.21-.02,1.41-.03,1.66-.06h-.03c.21-.04.19,0,.36.02-.02-.05.16-.09.23-.1h0c.11,0,.34-.06.52-.08v.03c.14-.04.41-.04.52-.05.24,0,.61.03.93-.02l.21.07h.03s.29-1.03-.15-1.22v-.03s-.08,0-.08,0c-.1,0-.15.03-.14,0h.14c-.1,0-.03-.03,0-.04-.04,0-.08,0-.12,0-.02.01.02.01.03.02-.05.01-.13.04-.19.03-.1,0,0-.05-.13-.04-.64,0-1.25,0-1.89.04-.02-.01,0-.01.02-.02-.19.02-.36.03-.54.05-.05-.01-.06-.03-.08-.04.03.02-.97.07-.99.07Z"/>
    </g>
    <g>
      <path class="cls-3" d="m66.84,82.84s-.12-.06-.2-.08c.05.04.11.06.2.08Z"/>
      <polygon class="cls-3" points="66.64 82.76 66.64 82.76 66.64 82.76 66.64 82.76"/>
      <path class="cls-3" d="m51.42,81.49s.04,0,.06,0c-.02,0-.04,0-.06,0Z"/>
      <path class="cls-3" d="m62.92,82.01l-.02.05c-.18-.03-.04-.07-.21-.09-.08.06-.28-.06-.35-.03,0,0-.08-.02-.07-.04-.03.04-.09,0-.14,0-.02,0,.01.01.02.03h-.12s-.05-.05,0-.05c-.31-.07-1.81-.38-2.15-.42.04.04.15.04.18.09-.09.01-.13-.03-.17-.01-.02-.08-.19-.05-.25-.13l-.03.04-.04-.03c-.4-.03-.09,0-.44-.07-.2-.03-.31,0-.42-.03.02,0,.06.04,0,.04,0-.04-.14,0-.16-.04-.05,0-.22-.04-.17.02-.02-.03-.17-.06-.08-.07-.05-.01-.1-.03-.13-.02l.06.02c-.17-.02-.25-.08-.37-.05l.06.03c-.1-.01-.19-.03-.22-.08h.11c-.17-.02-.27-.04-.41-.04h.05c-.19.03-1.12-.1-1.29-.07l.07.05h-.15s.09-.1.1-.09c-.3-.05-1.87-.3-2.14-.37-.11-.04,0-.06,0-.07-.14-.01-.07.03-.18,0-.03-.01.01-.03.03-.03-.05,0-.1-.03-.1,0,.06.02.03.07.05.1l-.15-.03v-.03s-.09.06-.23.02c-.24-.06-.51-.09-.76-.14,0-.02.06-.02.11-.02-.03,0-.08-.01-.11-.03.05.04-.11,0-.06.02-.19.04-.42-.07-.59-.05-.03.06-.54,1.02-.55,1.1-.05-.01-.1-.02-.11-.03,0,.02.11.05.16.04l.02-.04c.12,0,.02.03.14.05,0,.03-.11.02-.2,0,.08.02.17.06.21.03.08.03-.02.04.08.07.07,0,.17-.01.24.02h0c.19.07.3,0,.47.07h-.02c.06.04.19.03.29.07-.03-.01-.05-.04.01-.03.12.04.22.04.31.08l.1-.02c.45.09,2.23.36,2.68.43h-.02c.69.11,2.1.36,2.81.44.1.05.26.07.37.1-.06-.02-.04-.04.01-.03.35.07.03-.02.38.03.41.04,1.96.35,2.31.44.2-.01.44.07.63.07h-.02c.21.03,1.35.27,1.59.3h-.03c.21,0,.17.04.33.09-.01-.06.17-.05.24-.05h0c.1.02.34.02.51.04v.03c.13,0,.4.05.5.07.23.05.57.17.89.18l.18.12h.03s.5-.93.13-1.22v-.03s-.07-.01-.07-.01c-.09-.03-.14,0-.13-.03l.13.03c-.1-.03-.03-.03.01-.04-.04,0-.08-.02-.11-.03-.02,0,.01.01.03.02-.05,0-.13.01-.19,0-.1-.02,0-.05-.11-.07-.61-.13-1.19-.27-1.81-.37-.01-.01,0-.01.02-.01-.19-.02-.35-.05-.52-.07-.04-.02-.05-.04-.07-.06.02.03-.94-.14-.95-.15Z"/>
    </g>
    <g>
      <path class="cls-3" d="m54.02,59.46s-.09.13-.12.21c.05-.05.09-.12.12-.21Z"/>
      <polygon class="cls-3" points="53.9 59.67 53.9 59.68 53.9 59.67 53.9 59.67"/>
      <path class="cls-3" d="m49.06,76.66s.02-.05.02-.07c0,.02-.02.05-.02.07Z"/>
      <path class="cls-3" d="m52.27,63.76l.04.03c-.07.2-.08.04-.14.23.04.1-.12.31-.11.39,0,0-.04.09-.06.07.03.04-.03.1-.04.16,0,.02.02-.01.03-.02l-.04.14s-.06.05-.04,0c-.14.34-.8,1.98-.92,2.36.05-.04.07-.16.13-.19-.01.11-.06.14-.05.19-.08.01-.1.21-.19.26l.03.04-.04.04c-.12.45-.02.11-.17.49-.08.22-.06.35-.13.46,0-.02.05-.06.04,0-.04,0-.03.16-.08.18-.02.06-.09.24-.02.19-.03.02-.1.18-.09.08-.02.05-.05.1-.05.15l.04-.07c-.06.19-.14.28-.14.41l.04-.06c-.04.11-.07.21-.13.23l.03-.12c-.07.18-.11.3-.14.46l.02-.05c-.03.21-.37,1.24-.38,1.45l.07-.07-.03.17s-.09-.12-.07-.13c-.12.33-.74,2.06-.88,2.36-.07.12-.06,0-.07,0-.04.15.01.08-.04.2-.02.03-.02-.02-.02-.04-.02.06-.05.1-.03.12.04-.07.07-.02.11-.04l-.07.16-.02-.02s.04.12-.04.28c-.11.27-.21.57-.32.84-.01-.01,0-.07,0-.13-.01.04-.03.09-.06.12.05-.06-.02.12,0,.07,0,.23-.17.46-.19.66.05.04.89.76.96.79-.02.05-.04.11-.06.12.02,0,.07-.11.08-.17l-.03-.02c.04-.14.03-.02.08-.15.03,0,0,.13-.04.23.04-.09.1-.18.08-.23.05-.08.03.02.09-.08.02-.08.03-.19.08-.27h0c.11-.2.07-.34.18-.52v.02c.05-.06.07-.21.14-.32-.02.03-.05.05-.03-.02.07-.13.09-.24.15-.33v-.11c.2-.49.88-2.46,1.06-2.95v.02c.27-.76.85-2.31,1.1-3.11.08-.11.13-.28.19-.4-.04.07-.05.03-.03-.02.15-.38-.01-.03.12-.43.14-.46.81-2.16.99-2.54.04-.23.17-.48.22-.7v.02c.07-.23.59-1.48.67-1.75l-.02.03c.06-.24.09-.19.18-.36-.06,0-.01-.2.01-.28h0c.03-.11.09-.38.15-.57l.02.02c.03-.17.15-.45.19-.56.11-.25.3-.62.39-.98l.16-.19v-.03s-.8-.7-1.17-.33l-.02-.02-.03.09c-.05.1-.04.16-.06.14l.06-.14c-.05.1-.03.02-.03-.02-.02.04-.04.09-.06.12,0,.02.02-.01.03-.03-.01.06-.02.15-.05.22-.04.11-.05,0-.1.12-.27.66-.55,1.3-.8,1.99-.02.01,0,0,0-.03-.06.21-.14.39-.19.58-.03.05-.05.06-.07.07.03-.02-.36,1.04-.37,1.05Z"/>
    </g>
    <g>
      <path class="cls-3" d="m43.26,76.24c0-.07-.06-.17-.1-.26.01.08.04.16.1.26Z"/>
      <polygon class="cls-3" points="43.16 75.98 43.16 75.98 43.16 75.98 43.16 75.98"/>
      <path class="cls-3" d="m32.01,59.42s.03.05.04.07c-.01-.03-.03-.05-.04-.07Z"/>
      <path class="cls-3" d="m40.76,71.62h-.05c-.12-.2.02-.08-.11-.27-.11-.04-.18-.33-.25-.38,0,0-.05-.1-.02-.1-.05,0-.06-.09-.11-.15-.02-.02,0,.02,0,.04l-.09-.13c-.02-.06,0-.09.03-.03-.19-.37-1.16-2.12-1.4-2.5,0,.07.09.17.07.24-.08-.09-.08-.16-.13-.19.04-.07-.11-.23-.1-.35h-.05s0-.07,0-.07c-.3-.43-.08-.09-.3-.5-.14-.23-.25-.31-.31-.45.01.02.02.08-.02.03.02-.03-.11-.15-.1-.19-.04-.06-.14-.25-.15-.16,0-.04-.09-.22-.01-.13-.03-.06-.06-.12-.09-.15l.03.08c-.12-.19-.15-.31-.26-.42l.02.08c-.07-.11-.13-.21-.11-.28l.08.11c-.11-.19-.18-.31-.29-.45l.03.06c-.16-.18-.81-1.23-.97-1.39l.02.11-.12-.15s.15.02.15.04c-.2-.34-1.26-2.13-1.42-2.46-.06-.14.04-.05.04-.05-.1-.15-.07-.05-.15-.18-.02-.04.03,0,.05.01-.04-.06-.06-.12-.07-.11.03.08-.03.07-.04.12l-.1-.17h.03s-.12-.06-.21-.24c-.15-.29-.34-.6-.5-.88.02,0,.06.05.1.11-.02-.04-.06-.1-.07-.14.01.08-.09-.11-.07-.05-.18-.17-.28-.48-.43-.64-.06.02-1.18.15-1.25.19-.03-.06-.06-.12-.07-.14,0,.02.05.14.09.2h.04c.09.12,0,.03.08.17-.02.02-.1-.1-.17-.2.05.1.09.21.14.23.04.1-.04.01.01.13.05.07.14.16.18.26h0c.1.24.24.32.33.53l-.02-.02c.02.08.13.21.18.35-.02-.04-.01-.08.04,0,.07.16.14.25.18.37l.09.09c.29.52,1.5,2.54,1.81,3.05l-.02-.02c.47.78,1.4,2.41,1.91,3.2.04.14.15.31.22.45-.03-.08,0-.07.04,0,.23.4.03.02.28.42.29.45,1.29,2.26,1.51,2.69.17.2.3.5.45.7l-.02-.02c.15.23.88,1.58,1.05,1.84l-.02-.04c.16.22.1.22.19.41.03-.05.18.14.22.21h-.01c.08.12.27.36.39.55h-.03c.12.15.28.46.35.58.14.27.33.71.57,1.04l.06.27.03.03s1.08-.13,1-.7h.03s-.06-.1-.06-.1c-.05-.12-.11-.15-.08-.16l.08.15c-.06-.12,0-.05.04-.01-.02-.05-.05-.1-.06-.14-.02-.02,0,.02,0,.04-.04-.06-.12-.13-.15-.2-.06-.12.04-.03-.04-.17-.38-.72-.75-1.41-1.16-2.12,0-.02.01,0,.03.02-.13-.21-.24-.4-.36-.59-.02-.06-.01-.08-.01-.11,0,.04-.64-1.06-.65-1.09Z"/>
    </g>
    <g>
      <path class="cls-3" d="m52.5,167.74c.16-.13.41-.4.64-.65-.2.17-.39.37-.64.65Z"/>
      <polygon class="cls-3" points="53.14 167.09 53.14 167.09 53.13 167.09 53.14 167.09"/>
      <path class="cls-3" d="m16.76,167.78c.05-.07.12-.14.18-.22-.06.07-.11.14-.18.22Z"/>
      <path class="cls-3" d="m53.22,155.5l-.07.02c-.7-.4-.17-.17-.83-.52-.29-.08-1.07-.62-1.32-.71,0,0-.31-.18-.28-.19-.12-.02-.33-.18-.54-.28-.08-.03.05.04.1.08l-.47-.25c-.17-.11-.21-.16,0-.05-1.21-.69-6.93-3.95-8.24-4.7.15.12.56.33.69.46-.36-.17-.5-.29-.66-.35-.1-.14-.74-.44-.97-.65l-.12-.02-.16-.12c-1.52-.81-.35-.18-1.68-.94-.77-.43-1.17-.59-1.59-.85.06.04.22.15.02.05-.02-.05-.54-.28-.62-.37-.2-.11-.83-.47-.64-.31-.1-.08-.66-.41-.31-.24-.09-.05-.19-.11-.27-.16-.14-.08-.26-.14-.42-.23l.42.25c-.43-.25-.79-.45-1.11-.63-.21.25-.4.47-.58.68-.08.09-.15.18-.24.3-.04.05-.08.11-.13.18l.19-.2c-.29.35-.52.63-.67.74l.28-.36c-.47.56-.75.91-1.13,1.39l.14-.17c-.46.63-3.05,3.78-3.47,4.37l.24-.23-.37.49c.05-.06.1-.31.15-.35-.85,1.02-5.23,6.26-6.05,7.24-.33.37-.1.03-.1.02-.37.47-.14.22-.47.61-.09.1,0-.04.04-.1-.14.17-.28.33-.28.35.19-.21.15-.09.25-.16l-.42.5v-.04c-.1.11-.18.34-.61.82-.71.84-1.46,1.73-2.17,2.57,0-.02.14-.21.28-.39-.09.11-.23.29-.33.38.19-.18-.28.37-.14.22-.46.66-1.18,1.41-1.59,1.99,0,.09-.13,1.87-.07,1.92-.14.16-.26.3-.33.38.05-.03.33-.36.47-.54v-.06c.32-.41.09-.08.42-.48.04,0-.26.37-.52.69.24-.29.5-.56.57-.7.24-.26,0,.06.29-.26.19-.24.42-.57.66-.82h0c.57-.62.79-1.02,1.32-1.59l-.04.07c.19-.2.52-.63.85-.99-.1.1-.19.18,0-.05.38-.42.61-.73.9-1.03l.23-.33c1.26-1.52,6.25-7.52,7.51-9.05l-.05.06c1.27-1.52,3.45-4.15,5.28-6.36,1,.55,1.9,1.05,2.6,1.44.4.27.99.59,1.42.84-.24-.15-.14-.12.05-.01,1.34.76.1.03,1.46.78,1.57.85,7.51,4.26,8.88,5.06.77.38,1.67.93,2.42,1.32l-.08-.03c.81.46,5.17,2.94,6.11,3.47l-.12-.07c.86.45.59.36.72.45.02-.01.06,0,.11,0,0,.04-.06.12-.1.16h0c-.26.3-.92,1.07-1.33,1.56v-.04c-.39.48-1.18,1.33-1.48,1.66-.69.75-1.78,1.87-2.66,2.91l-.65.59-.08.1s-.2,1.72,1.16.53v.04s.24-.27.24-.27c.3-.31.4-.47.4-.43l-.39.43c.29-.31.1-.08,0,.05.11-.12.22-.23.34-.36.05-.07-.05.04-.1.08.15-.18.34-.43.54-.63.3-.32.05.01.4-.37,1.96-2.15,3.86-4.23,5.83-6.38-.18-.1-.36-.2-.54-.3-.09-.07.03,0,.18.08-.96-.54-1.76-.98-2.65-1.47-.17-.11-.21-.16-.26-.2.05.04-.85-.46-1.77-.98-.92-.52-1.83-1.04-1.88-1.07Z"/>
    </g>
  </g>
</svg>