<?xml version="1.0" encoding="UTF-8"?>
<svg id="Layer_1" data-name="Layer 1" xmlns="http://www.w3.org/2000/svg" xmlns:xlink="http://www.w3.org/1999/xlink" viewBox="0 0 200 200">
  <defs>
    <style>
      .cls-1 {
        fill: none;
      }

      .cls-2 {
        clip-path: url(#clippath);
      }

      .cls-3 {
        fill: #e7ccff;
      }

      .cls-4 {
        fill: #bdbfff;
      }

      .cls-5 {
        fill: #bebeff;
      }

      .cls-6 {
        fill: #d9d5cb;
      }

      .cls-7 {
        fill: #073542;
      }

      .cls-8 {
        fill: #073644;
      }

      .cls-9 {
        fill: #7861ff;
      }

      .cls-10 {
        clip-path: url(#clippath-1);
      }

      .cls-11 {
        fill: url(#Dots_Dense);
      }
    </style>
    <clipPath id="clippath">
      <path class="cls-1" d="m185.5,86.63s-6.11,6.96-13.95,15.5l-6.48-3.55,2.85-3.7c-18.24-1.45-20.15-16.25-36.04-23.17.08-.18.11-.29.11-.29,2.96,1.14,6.69-4.92,11-5.81l42.51,21.02Z"/>
    </clipPath>
    <clipPath id="clippath-1">
      <path class="cls-1" d="m161.8,108.61v1.9c0,.87-.76,1.55-1.63,1.44-.78-.09-1.35-.79-1.28-1.58l.41-4.57s-1.71.07-3.65-.45c-11.32-1.57-21.17-15.25-21.17-15.25l.68,12.84-24.74-10.56c4.15-4.37,2.07-11.66,2.07-11.66-12.59,2.22-20.04-.29-20.04-.29l1.51-2.31-4.52.88c-.82.09-1.64-.33-1.89-1.11-.21-.66.11-1.38.75-1.67l1.79-.81-3.59-2.2c-5.53,5.65-11.83,11.46-18.45,16.42C37.71,112.38,4.52,127.24,4.52,127.24l57.5,30.76h39.28s33.31-19.02,47.79-32.65c4.45-4.19,9.73-9.6,14.87-15.04l-2.15-1.7Zm-64.18,20.5c-14.63,8.93-17.98,1.63-12.39-6.17l-.35.38c-17.25,10.73-17.93-2.22-7.48-11.03l12.86,2.54-1.02,3.17,17.19,3.52s-1.37,3.07-8.81,7.59Z"/>
    </clipPath>
    <pattern id="Dots_Dense" x="0" y="0" width="10.2" height="10.2" patternTransform="translate(-7097.66 -5941.02) scale(.24)" patternUnits="userSpaceOnUse" viewBox="0 0 10.2 10.2">
      <g>
        <rect class="cls-1" x="0" y="0" width="10.2" height="10.2"/>
        <circle class="cls-8" cx="10.2" cy="7.65" r="1"/>
        <circle class="cls-8" cx="5.1" cy="10.2" r="1"/>
        <circle class="cls-8" cx="0" cy="7.65" r="1"/>
        <circle class="cls-8" cx="10.2" cy="2.55" r="1"/>
        <circle class="cls-8" cx="5.1" cy="5.1" r="1"/>
        <circle class="cls-8" cx="0" cy="2.55" r="1"/>
        <circle class="cls-8" cx="5.1" cy="0" r="1"/>
      </g>
    </pattern>
  </defs>
  <path class="cls-5" d="m185.5,86.63s-6.11,6.96-13.95,15.5l-6.48-3.55,2.85-3.7c-18.24-1.45-20.15-16.25-36.04-23.17.08-.18.11-.29.11-.29,2.96,1.14,6.69-4.92,11-5.81l42.51,21.02Z"/>
  <g class="cls-2">
    <g>
      <path class="cls-9" d="m90.3,131.42c.57.22,1.56.23,2.5.26-.72-.21-1.49-.3-2.5-.26Z"/>
      <path class="cls-9" d="m92.81,131.69h.01s-.02,0-.03,0h.02Z"/>
      <path class="cls-9" d="m86.99,43.68c.22,0,.46,0,.71,0-.24-.01-.48-.02-.71,0Z"/>
      <path class="cls-9" d="m138.03,123l-.03-.4c2.09-1.08.81.06,2.69-1.09.49-.84,3.15-1.89,3.63-2.56,0,.04.9-.58.94-.41.1-.43.88-.71,1.38-1.19.14-.22-.19.06-.4.09.4-.35.78-.72,1.16-1.08.54-.32.76-.29.26.16.41-.32,1.02-.78,1.73-1.44.36-.32.75-.68,1.17-1.06.41-.39.83-.84,1.28-1.3,1.78-1.86,3.76-4.3,5.35-7.04,1.61-2.73,2.81-5.74,3.5-8.36.71-2.61.96-4.81,1.03-5.98-.25.58-.33,2.03-.73,2.52-.02-1.24.32-1.79.17-2.34.54-.43.32-2.67.78-3.6l-.29-.35.17-.62c-.29-2.69-.41-2.98-.43-3.21-.05-.22.07-.4-.32-2.74-.57-2.69-1.36-3.79-1.67-5.26.07.21.08.83-.2.19.1-.09-.08-.52-.28-.97-.22-.44-.44-.9-.38-1.1-.24-.64-1.1-2.64-1.12-1.82,0-.4-.73-2.2-.12-1.21-.25-.61-.52-1.18-.8-1.57l.3.79c-1.03-1.95-1.43-3.1-2.43-4.17.11.25.2.51.3.76-.68-1.12-1.33-1.98-1.32-2.61l.82,1.07c-.59-.91-1.08-1.63-1.6-2.27-.51-.65-1-1.25-1.64-1.89l.39.5c-.83-.8-3.18-3.46-5.79-5.75-2.58-2.34-5.41-4.27-6.33-4.74l.57.79c-.5-.31-1-.61-1.52-.88.16.12,1.2-.19,1.28,0-1.5-1.14-6.26-4.54-11.45-7.04-5.14-2.6-10.53-4.44-12.15-5-1.27-.56-.11-.48-.08-.51-1.64-.42-.77.03-2.15-.38-.36-.15.14-.18.36-.15-.61-.14-1.15-.39-1.23-.28.73.3.32.53.58.82l-1.76-.52.13-.18c-.39-.13-1.15.29-2.86-.24-1.46-.41-3.02-.69-4.56-1-1.56-.24-3.12-.53-4.62-.72.06-.12.71-.11,1.35-.1-.4-.06-1.03-.1-1.39-.24.7.31-1.29-.01-.73.15-1.13.09-2.4,0-3.63-.12-1.23-.14-2.44-.22-3.42-.1-.1.23-1.24,2.1-2.28,4.03-1.05,1.94-2,3.89-2,4.16-.56-.02-1.12-.04-1.29-.09.14.13,1.24.21,1.83.15l.11-.29c1.35-.08.31.18,1.63.18.06.23-1.15.27-2.21.27.96.05,1.9.23,2.3-.01.89.15-.11.28.96.44.77-.02,1.79-.22,2.66,0l-.02.04c2.11.43,3.3-.08,5.21.43l-.22.05c.67.2,2.04.23,3.24.58-.34-.1-.62-.32.12-.23,1.39.36,2.36.45,3.35.82.34,0,.69-.03,1.03-.02.6.15,1.43.34,2.42.58.99.25,2.14.57,3.39.92,2.5.74,5.4,1.73,8.22,2.91,2.82,1.17,5.53,2.57,7.77,3.86.56.33,1.09.64,1.59.94.49.32.95.61,1.37.89.86.53,1.52,1.04,2.02,1.39l-.18-.08c3.06,2.13,7.43,5.84,10.88,10.29,1.73,2.21,3.24,4.58,4.4,6.84,1.17,2.26,1.98,4.41,2.55,6.15.08,1.15.46,2.64.54,3.8.01-.65.2-.46.26.04.24,1.76.19,1.82.28,1.88.03.03.06.06.11.31.05.25.12.71.13,1.61.09,1.03,0,2.8-.37,4.88-.38,2.07-1.14,4.43-2.28,6.61-1.13,2.18-2.57,4.2-3.99,5.73-1.42,1.54-2.73,2.66-3.47,3.25-1.31,1.6-3.59,2.88-5.2,4.13l.13-.18c-.9.62-4.1,2.45-7.64,3.81-.89.33-1.78.66-2.63.98-.87.28-1.71.56-2.47.81-1.54.46-2.79.81-3.42,1.02l.36-.05c-2.19.77-1.98.34-3.77.65.32.32-1.59.93-2.33,1.11v-.09c-.54.16-1.45.41-2.46.67-1.01.27-2.11.55-3.06.69l.05-.21c-.78.21-1.91.41-3,.54-1.09.11-2.13.21-2.7.27-1.31.11-3,.06-4.79.13-1.79.01-3.69.07-5.46.24l-2.29-.57-.33.06s-.92,1.78-1.28,3.75c-.35,1.96-.13,4.12,2.34,4.86l-.08.21.97-.03c1.17.09,1.7-.15,1.63.05h-1.6c1.17.04.36.16-.09.28.49.02.97.04,1.36.1.23-.08-.17-.08-.36-.13.63-.07,1.51-.31,2.28-.24,1.21-.02.09.33,1.5.3,7.43-.13,14.72-.74,22.22-2.44.19.04-.01.09-.22.17,2.24-.62,4.25-1.09,6.27-1.8.59-.08.79,0,.98.03-.1,0,.55-.26,1.59-.64.52-.18,1.13-.4,1.79-.64.65-.26,1.36-.54,2.07-.82,1.42-.53,2.82-1.23,3.91-1.69,1.06-.52,1.79-.89,1.84-.9Z"/>
    </g>
  </g>
  <path class="cls-5" d="m161.8,108.61v1.9c0,.87-.76,1.55-1.63,1.44-.78-.09-1.35-.79-1.28-1.58l.41-4.57s-1.71.07-3.65-.45c-11.32-1.57-21.17-15.25-21.17-15.25l.68,12.84-24.74-10.56c4.15-4.37,2.07-11.66,2.07-11.66-12.59,2.22-20.04-.29-20.04-.29l1.51-2.31-4.52.88c-.82.09-1.64-.33-1.89-1.11-.21-.66.11-1.38.75-1.67l1.79-.81-3.59-2.2c-5.53,5.65-11.83,11.46-18.45,16.42C37.71,112.38,4.52,127.24,4.52,127.24l57.5,30.76h39.28s33.31-19.02,47.79-32.65c4.45-4.19,9.73-9.6,14.87-15.04l-2.15-1.7Zm-64.18,20.5c-14.63,8.93-17.98,1.63-12.39-6.17l-.35.38c-17.25,10.73-17.93-2.22-7.48-11.03l12.86,2.54-1.02,3.17,17.19,3.52s-1.37,3.07-8.81,7.59Z"/>
  <path class="cls-3" d="m121.49,68.65s0,0-.01,0h0s0,0,.01,0Z"/>
  <path class="cls-5" d="m120.14,67.6c.88.89,1.27,1.03,1.34,1.05-.02.1-.03.19-.05.29-8.17-.63-10.14,3.94-21.76.46l-.08.12-5.74-4.16c8.06-9.02,13.23-16.12,13.23-16.12l18.6,8.89-5.24,6.13c-.99.83-1.21,2.42-.3,3.34Z"/>
  <g class="cls-10">
    <g>
      <path class="cls-9" d="m-.43,126.31c1.26,1.04,3.65,2.54,5.89,3.97-1.64-1.26-3.44-2.48-5.89-3.97Z"/>
      <path class="cls-9" d="m5.51,130.3s.03.01.04.02c-.03-.02-.05-.03-.08-.05.02.01.03.02.04.03Z"/>
      <path class="cls-9" d="m88.16,43.7c.61.01,1.31,0,2.01.03-.67-.04-1.36-.04-2.01-.03Z"/>
      <path class="cls-9" d="m128.95,155.82l.36-.41c3.11-.41,3.59-.41,4-.37.41.03.76.09,3.7-.5,1.11-.49,3.56-.96,6.01-1.65,1.22-.3,2.44-.71,3.47-1.05,1.03-.37,1.87-.75,2.35-1.01-.02.11,2.82-1.25,2.72-1.01.73-.69,2.85-1.58,4.48-2.8.56-.47-.5.23-1,.45.62-.44,1.28-.84,1.87-1.33l1.79-1.45c1.42-1.11,1.85-1.31.41.04.57-.51,1.27-1.13,2.08-1.86.76-.78,1.65-1.67,2.55-2.72.86-1.08,1.85-2.24,2.71-3.6.47-.73.86-1.16,1.52-2.46.56-1.17,1.05-2.55,1.17-4.09.14-1.51-.03-3.12-.49-4.49-.44-1.38-1.08-2.64-1.79-3.67-1.43-2.13-3.11-3.65-4.8-5.03-3.42-2.7-7.07-4.65-10.76-6.38-7.38-3.42-14.93-5.76-21.35-7.48-6.42-1.71-11.71-2.72-14.55-3.21,1.42.47,4.95,1.04,6.2,1.66-3.02-.45-4.38-.98-5.74-1.03-1.06-.74-6.58-1.28-8.8-2.08l-.91.16-1.49-.37c-6.71-.66-7.5-.57-8.08-.65-.59-.02-.94-.22-6.99-.47-3.51-.07-6.13.12-8.37.33-2.24.22-4.1.47-6.15.72.61-.1,2.24-.13.36.19-.18-.09-1.45.14-2.73.45-1.31.3-2.75.73-3.26.75-.95.28-3.03.98-4.54,1.81-1.51.81-2.43,1.53-1.34,1.06-.55.21-2.14,1.19-3.12,1.97-.97.78-1.49,1.17-.13-.13-.77.65-1.67,1.46-2.4,2.38-.74.91-1.33,1.92-1.69,2.84.51-1.06,1.16-2.03,1.87-2.84-1.35,1.66-2.25,3.64-2.61,5.46-.37,1.82-.34,3.44-.05,5,.61,3.1,2.18,5.43,4.21,7.15-.71-.73-1.35-1.54-1.9-2.42.72,1.04,1.53,1.91,2.35,2.63.41.37.83.69,1.25.99.21.15.42.3.63.43.22.14.42.27.57.35,1.27.76,2.3,1.34,2.92,1.81-.6-.27-1.22-.53-1.81-.83l-.89-.46c-.31-.17-.54-.26-.96-.52l.34.21.26.14c.17.09.34.19.51.28.34.18.67.36.99.54.66.31,1.29.63,1.91.9,1.24.53,2.42.96,3.57,1.33,2.31.72,4.53,1.17,7.06,1.47l-1.8-.32c1.63.24,4.96.64,8.96.72,2,.05,4.15.04,6.38,0,2.25-.06,4.59-.09,6.94-.25,9.39-.41,18.67-2.22,21.38-3.08l-2.6.26c1.56-.42,3.14-.75,4.69-1.23-.55.15-2.09,1.36-2.59,1.36,2.55-.53,7.8-1.68,14.15-4.22,3.16-1.29,6.59-2.93,9.97-5.09,3.37-2.16,6.69-4.84,9.55-8.05,2.82-3.23,5.16-6.97,6.63-10.87,1.47-3.9,2.18-7.88,2.21-11.45.1-7.19-1.87-12.5-2.73-14.85-1.46-3.84.11-.86.18-.82-1.05-2.29-1.37-2.73-1.62-3.1-.28-.36-.4-.7-1.46-2.52-.54-1.02.3.1.66.65-.94-1.61-1.8-3.09-1.99-3.14,1.18,1.99.37,1.34.69,2.28-.9-1.55-1.9-3.03-2.96-4.47l.31.07c-.34-.49-.93-1-1.81-1.9-.45-.45-.98-.99-1.62-1.65-.64-.67-1.38-1.45-2.27-2.39-6.09-6.31-14.19-11.41-22.13-14.85.17-.05,1.87.61,3.55,1.34-1.04-.53-2.68-1.22-3.63-1.73,1.85,1-3.43-1.25-1.95-.54-3.04-.93-6.47-2.09-9.88-2.99-3.41-.89-6.77-1.61-9.53-1.85-.28.17-3.5,1.66-6.44,3.37-.72.43-1.45.86-2.13,1.26-.67.43-1.28.84-1.8,1.19-1.04.72-1.71,1.24-1.72,1.38-1.58-.05-3.15-.08-3.64-.13.41.15,3.51.21,5.16.27l.3-.27c3.8.13.88.22,4.57.51.17.26-3.21-.04-6.21-.13,2.7.13,5.35.56,6.46.41,2.49.41-.31.25,2.69.73,1.07.1,2.31.26,3.6.41,1.27.21,2.58.42,3.77.78l-.05.03c1.45.39,2.73.73,3.91,1.05,1.19.29,2.27.61,3.35.91,2.14.61,4.2,1.29,6.65,2.49l-.56-.17c1.7.89,5.21,2.34,8.07,4.26-.81-.55-1.46-1.14.33-.09,3.29,2.19,5.52,3.71,7.6,5.69.74.54,1.49,1.07,2.19,1.66,2.45,2.32,6.62,6.64,9.71,12.86,1.5,3.1,2.71,6.64,3.15,10.38.21,1.86.24,3.77.07,5.66-.19,1.89-.61,3.76-1.23,5.57-1.22,3.63-3.39,6.94-6.04,9.71-2.62,2.8-5.79,5.01-8.87,6.78-6.23,3.52-12.21,5.18-15.62,6.06l.53-.17c-2.6.7-5.62,1.32-8.93,1.86-3.33.49-6.95.95-10.8,1.17-1.92.16-3.9.18-5.91.28-2.03,0-4.06.07-6.17.04-4.18-.03-8.28-.21-12.08-.98-1.9-.38-3.72-.91-5.45-1.6-.87-.34-1.7-.73-2.52-1.16l-.61-.33-.3-.16-.18-.11c-.22-.15-.46-.31-.67-.5-.43-.37-.76-.81-1-1.22-.22-.41-.34-.8-.39-1.21-.05-.41,0-.89.1-1.22.1-.35.28-.69.59-1.09.16-.2.34-.39.58-.62.27-.25.54-.49.83-.71.57-.45,1.16-.84,1.78-1.19,1.25-.69,2.64-1.2,4.12-1.6,3.07-.8,6.1-1.2,8.87-1.39,3.43,0,8.26.01,11.93.33-2.04-.21-1.33-.33.27-.23,5.61.42,5.81.49,6.02.43.21-.01.44-.14,6.13.59,3.28.41,8.87,1.28,15.49,2.79,6.61,1.51,14.29,3.66,21.48,6.55,3.58,1.45,7.06,3.08,10.03,4.92,1.48.92,2.82,1.9,3.91,2.88,1.11.98,1.87,2,2.23,2.75.16.37.21.65.24.87,0,.21-.04.38-.09.6-.08.12-.07.23-.18.37-.04.07-.08.14-.11.2l-.25.37c-.35.51-.69,1-1.01,1.48-.67.91-1.33,1.7-1.92,2.38-.64.64-1.15,1.23-1.63,1.66-1.87,2.07-4.45,3.93-7.32,5.34-2.87,1.42-6,2.41-8.84,3.2l.56-.22c-1.51.44-4.88,1.16-9.42,1.76-2.26.29-4.74.52-7.36.77-1.32.07-2.67.14-4.04.22-.68.04-1.37.07-2.06.11-.69,0-1.39.02-2.09.02-11.17.24-22.51-.83-26.35-1.21l1.03.15c-3.37-.19-4.81-.48-6.07-.72-1.26-.25-2.33-.52-4.96-.92.63.51-5.11-.27-7.3-.61l.1-.07c-3.29-.52-10.76-1.73-16.1-3.12l.26-.15c-1.12-.24-2.51-.5-3.95-.92-1.45-.42-3-.86-4.51-1.3-3.03-.83-5.83-1.87-7.39-2.4-.89-.32-1.83-.66-2.83-1.02-.5-.18-1.01-.37-1.53-.56-.51-.22-1.03-.44-1.56-.66-2.12-.89-4.4-1.85-6.74-2.84-2.29-1.1-4.66-2.22-7.03-3.31-1.2-.51-2.32-1.18-3.47-1.76-1.15-.58-2.28-1.16-3.4-1.73-1.84-1.13-3.53-2.49-5.25-3.77l-.83-.44s-3.15.14-5.07,1.27c-1.89,1.11-2.55,3.28,3.03,7.59l-.3.06,2.37,1.43c2.87,1.65,4.33,2.16,4.04,2.24l-3.99-2.16c2.91,1.62.8.63-.37.11,1.21.69,2.39,1.34,3.34,1.92.62.24-.39-.3-.82-.59,1.62.78,3.9,1.78,5.78,2.89,3.07,1.47.05.4,3.64,2.09,9.45,4.53,19.1,8.18,28.99,11.03,9.88,2.88,19.96,5.11,30.37,6.64.46.15-.1.07-.71.03,3.15.36,6.11.79,9.02,1.1,2.91.25,5.75.57,8.63.73,1.6.19,2.03.34,2.5.46-.24-.06,1.64.02,4.6.18,1.48.03,3.24.06,5.13.09.95.02,1.93.03,2.93.05,1.01-.02,2.03-.04,3.06-.05,4.1,0,8.28-.32,11.45-.51,3.19-.33,5.37-.55,5.5-.56Z"/>
    </g>
  </g>
  <path class="cls-8" d="m76.98,112.2l4.63-21.79c1.25-5.9,7.68-9.09,13.14-6.52l28.16,13.27c-.8,18.31-20.06,9.16-27.01,5.35l-1.72,13.21-17.19-3.52Z"/>
  <path class="cls-6" d="m121.48,68.65s0,0,.01,0c0,0,0,0-.01,0h0Z"/>
  <path class="cls-8" d="m89.24,117.99l4.63-21.79c1.25-5.9,7.68-9.09,13.14-6.52l28.16,13.27c-.8,18.31-21.15,14.02-27.01,5.35l-1.72,13.21-17.19-3.52Z"/>
  <g>
    <path class="cls-4" d="m89.51,116.4c.05-.11.1-.31.15-.49-.06.14-.11.29-.15.49Z"/>
    <polygon class="cls-4" points="89.66 115.9 89.66 115.9 89.66 115.91 89.66 115.9"/>
    <path class="cls-4" d="m107.26,88.58s-.1-.05-.15-.08c.05.03.09.05.15.08Z"/>
    <path class="cls-4" d="m91.95,106.83l-.04-.04c.11-.45.08-.12.17-.53-.02-.18.17-.68.17-.83,0,0,.05-.2.07-.18-.02-.07.04-.21.07-.34,0-.05-.02.03-.04.06l.06-.29c.04-.11.06-.14.04-.01.2-.76,1.11-4.41,1.3-5.23-.05.1-.1.36-.16.44.03-.22.09-.32.09-.42.08-.07.13-.47.23-.62l-.02-.07.05-.1c.2-.96.04-.22.25-1.07.11-.49.12-.73.21-1-.01.04-.06.14-.03.02.03-.01.06-.34.11-.39.03-.12.13-.5.06-.38.04-.06.14-.4.1-.19.03-.11.07-.22.08-.31l-.05.14c.1-.39.24-.57.29-.83l-.07.13c.08-.22.15-.41.22-.48l-.08.23c.13-.37.27-.57.39-.88l-.05.1c.06-.21.39-.77.73-1.33.38-.53.79-1.04.92-1.19l-.15.11.22-.26s-.04.19-.07.2c.24-.26,1.04-1.06,1.99-1.63.95-.56,1.99-.92,2.32-.95.26-.04.06.04.06.04.31-.08.13-.06.39-.12.07-.01-.01.03-.05.04.11-.03.22-.04.23-.05-.15,0-.09-.03-.16-.05.11-.03.23-.03.35-.04v.03c.06,0,.18-.08.52-.11.58,0,1.22,0,1.79.15-.01.01-.13,0-.26-.02.08.02.19.03.26.06-.13-.05.24.03.14,0,.44.01.94.29,1.32.37.03-.04,1.16-.44,1.21-.48.12.06.24.12.27.15-.02-.03-.25-.16-.38-.21l-.04.02c-.29-.14-.06-.05-.34-.19,0-.03.26.09.48.21-.2-.11-.4-.23-.49-.25-.19-.11.04-.02-.19-.15-.16-.09-.41-.12-.61-.21h0c-.48-.21-.76-.23-1.23-.33h.05c-.16-.04-.49-.1-.79-.14.09,0,.16.03-.02.03-.35-.03-.59-.03-.84-.06-.08,0-.16,0-.24.03-.6.03-2.12.21-3.45.89-1.35.63-2.46,1.63-2.86,2.06l.03-.04c-.66.62-1.51,1.72-2.14,2.95-.65,1.22-.97,2.63-1.14,3.47-.09.26-.17.63-.25.91.05-.15.05-.09.02.03-.21.85,0,.06-.19.92-.22.99-1.16,4.76-1.39,5.63-.08.48-.25,1.06-.33,1.53v-.05c-.13.56-.79,3.25-.94,3.87l.02-.08c-.1.51-.12.43-.23.82.06-.04-.02.39-.06.56h0c-.04.22-.18.88-.24,1.22l-.02-.02c-.06.35-.22.98-.28,1.23-.15.56-.4,1.41-.55,2.17l-.18.47v.07s.61.98,1.02.03l.02.02.04-.2c.07-.23.07-.35.09-.33l-.08.32c.06-.23.04-.07.03.03.02-.08.04-.15.08-.27,0-.05-.02.03-.03.07.02-.13.04-.31.09-.46.06-.24.04,0,.11-.29.38-1.49.74-2.94,1.11-4.42.02-.03,0,0,0,.05.11-.48.19-.83.29-1.27.04-.11.06-.14.08-.17-.02.03.11-.54.25-1.12.14-.58.28-1.15.29-1.2Z"/>
  </g>
  <path class="cls-11" d="m195.48,158h-94.18s0,0,0,0c.51-.29,33.41-19.13,47.78-32.64.97-.91,1.97-1.88,3-2.89h0c9.78.2,17.92,9.75,17.97,15.19,8.7-2.2,23.98-1.18,25.42,20.35Z"/>
  <path class="cls-11" d="m107.05,49.28c-.42.57-5.48,7.45-13.2,16.08l-.05-.04c-.97-.64-2.28-.12-2.22,1.09-1.16-.06-2.03.71-2.03,1.88-1.26-.33-2.44.53-2.48,2.01-1.18.11-2.01,1.43-.81,2.74l.26.16c-5.53,5.65-11.83,11.46-18.45,16.42-2.41,1.8-4.83,3.56-7.25,5.26H17.74c0-19.74,12.52-24.12,20.61-23.54,2.59-10.18,19.74-29.44,46.04-13.32,8.01-16.15,22.68-8.77,22.66-8.75Z"/>
  <path class="cls-6" d="m121.49,68.65s0,0-.01,0h0s0,0,.01,0Z"/>
  <g>
    <g>
      <path class="cls-7" d="m76.56,112.83c-.09.04-.22.15-.34.25.11-.06.21-.14.34-.25Z"/>
      <polygon class="cls-7" points="76.22 113.09 76.22 113.09 76.22 113.09 76.22 113.09"/>
      <path class="cls-7" d="m84.45,122.84s-.07.04-.11.07c.04-.02.06-.04.11-.07Z"/>
      <path class="cls-7" d="m71.23,118.92l.03.04c-.18.34-.1.07-.25.39-.02.15-.28.52-.29.65,0,0-.08.15-.09.13,0,.06-.07.17-.11.27,0,.04.02-.02.04-.05l-.09.23c-.04.09-.07.1-.04,0-.12.31-.51,1.19-.68,2.17-.21.97-.1,2.04,0,2.42,0-.1-.05-.34-.02-.43.05.2.04.3.07.38-.04.09.12.44.11.62l.05.05.03.1c.48.82.08.2.58.9.34.35.55.47.77.62-.03-.02-.11-.09,0-.04,0,.04.29.15.33.2.1.08.46.19.36.12.05.04.37.17.17.11.11.04.21.09.29.1-.05-.01-.09-.04-.14-.06.37.1.57.15.81.17l-.13-.04c.22.05.4.04.49.09h-.23c.36.01.59.05.89.01h-.11c.19-.04.79-.04,1.35-.17.57-.08,1.11-.27,1.27-.32h-.16s.28-.09.28-.09c-.03,0-.11.13-.14.13.3-.07,1.23-.33,2.11-.69.89-.33,1.73-.74,2-.85.21-.09.06.03.06.03.24-.13.09-.08.31-.19.06-.02,0,.03-.03.05.09-.05.18-.08.18-.1-.12.05-.09-.01-.15,0l.27-.13v.03c.06-.03.12-.14.39-.26.45-.22.92-.5,1.37-.73,0,.02-.09.07-.18.13.06-.03.15-.08.21-.11-.12.04.18-.12.09-.08.3-.22.73-.43.99-.63,0-.06.12-1.14.08-1.19.09-.05.17-.1.2-.11-.03,0-.2.09-.28.15v.04c-.2.13-.06.01-.25.13-.03-.02.16-.13.32-.23-.15.08-.3.15-.35.21-.14.07,0-.04-.17.05-.11.08-.25.19-.4.26h0c-.34.17-.48.33-.8.47l.03-.03c-.12.05-.32.18-.52.27.06-.03.12-.03,0,.03-.23.11-.38.21-.55.28l-.15.11c-.4.19-1.37.7-2.37,1.13-1,.43-2.03.76-2.45.88h.03c-.64.15-1.63.39-2.61.39-.98.02-1.87-.29-2.32-.66-.06-.07-.14-.14-.21-.21-.06-.09-.12-.16-.18-.25.05.09.02.07-.03,0-.29-.49-.05-.01-.32-.54-.15-.31-.32-1.18-.17-2.09.13-.9.48-1.76.61-2.08.1-.36.33-.77.47-1.11v.04c.08-.18.39-.76.75-1.32.37-.56.77-1.11.91-1.3l-.04.05c.23-.34.23-.27.43-.51-.06,0,.14-.28.22-.38h0c.13-.14.38-.52.61-.77v.03c.18-.22.54-.59.68-.74.32-.3.74-.68,1.3-1.19l.34-.21.04-.04s-.05-1.07-.79-.65v-.03s-.13.11-.13.11c-.16.12-.21.2-.21.18l.2-.18c-.15.13-.06.02-.01-.04-.05.04-.1.08-.18.14-.02.03.03-.01.05-.03-.07.08-.17.19-.28.27-.15.13-.04-.02-.21.14-.93.84-1.78,1.71-2.58,2.71-.03.02,0-.01.01-.04-.23.31-.44.58-.64.87-.06.07-.09.09-.12.1.03-.02-.25.38-.52.8-.13.21-.26.43-.36.59-.1.16-.17.28-.17.28Z"/>
    </g>
    <g>
      <g>
        <g>
          <path class="cls-7" d="m143.23,41.7c-.07.03-.16.12-.25.2.08-.05.16-.11.25-.2Z"/>
          <polygon class="cls-7" points="142.98 41.9 142.98 41.91 142.99 41.9 142.98 41.9"/>
          <path class="cls-7" d="m126.69,58.72s.04-.05.07-.07c-.02.02-.03.04-.07.07Z"/>
          <path class="cls-7" d="m138.13,45.2v.05c-.22.2-.09.02-.3.21-.04.12-.35.31-.4.4,0,0-.1.09-.11.07,0,.05-.09.1-.15.17-.02.03.02,0,.05-.02l-.13.15c-.06.05-.09.05-.03-.02-.19.18-.72.7-1.2,1.29-.49.59-.91,1.26-1.03,1.51.06-.05.13-.21.2-.25-.06.14-.12.19-.13.26-.08.02-.17.28-.28.35v.05s-.04.06-.04.06c-.26.58-.05.14-.31.63-.14.28-.16.43-.26.57.01-.02.06-.07.03,0-.03,0-.09.19-.13.21-.03.07-.17.28-.09.23-.04.03-.16.21-.11.09-.04.06-.08.12-.11.17l.06-.07c-.14.21-.24.31-.31.46l.07-.07c-.09.12-.17.23-.23.25l.09-.13c-.12.16-.17.23-.36.5l.05-.06c-.12.25-1.09,1.3-1.25,1.5l.11-.06-.14.16s0-.14.03-.15c-.17.16-.69.65-1.27,1.05-.57.4-1.21.73-1.41.83-.17.07-.05-.03-.05-.03-.19.12-.07.07-.23.16-.05.02,0-.03.02-.04-.07.04-.14.07-.14.09.1-.04.08.01.13.01l-.21.12v-.03c-.05.03-.09.13-.3.24-.35.21-.71.47-1.03.73,0-.01.06-.08.12-.14-.05.03-.11.09-.15.11.09-.04-.12.12-.06.08-.2.23-.51.45-.68.66.01.06.25,1.04.3,1.08-.05.05-.11.11-.13.12.02,0,.14-.1.19-.17v-.03c.11-.14.03-.02.16-.14.03.01-.09.13-.19.24.09-.09.2-.17.22-.23.1-.08.01.03.13-.06.07-.08.15-.19.25-.26h0c.23-.17.31-.32.53-.47l-.02.03c.08-.05.21-.17.36-.26-.04.02-.09.03,0-.03.16-.1.27-.18.39-.25l.1-.1c.27-.19,1.02-.58,1.82-1.06.8-.49,1.5-1.11,1.76-1.37l-.02.02c.42-.39,1.02-.99,1.57-1.67.56-.67,1.03-1.45,1.28-1.97.11-.15.21-.37.3-.53-.06.09-.06.05-.02-.02.25-.49,0-.05.24-.54.13-.29.5-.93.96-1.5.46-.58.98-1.11,1.18-1.29.18-.24.47-.48.67-.69l-.02.03c.11-.11.51-.44.93-.74.42-.3.89-.55,1.05-.64l-.05.02c.27-.18.25-.12.49-.23-.05-.02.18-.18.28-.24h0c.14-.08.45-.3.68-.46v.03c.38-.28.56-.41.67-.5.31-.22.78-.58,1.12-.95l.28-.18.03-.04s-.24-.94-.82-.62v-.02s-.1.09-.1.09c-.11.1-.14.17-.15.14l.15-.14c-.11.1-.05.02-.02-.03-.05.04-.09.08-.13.11-.01.03.02,0,.04-.02-.05.06-.11.16-.19.21-.11.1-.03-.02-.17.09-.7.62-1.42,1.08-2.27,1.54-.02,0,0-.01.02-.03-.29.17-.45.27-.73.43-.07.03-.1.03-.12.03.04-.03-1.31.89-1.31.93Z"/>
        </g>
        <g>
          <path class="cls-7" d="m158.73,49.05c-.08.04-.2.15-.3.25.1-.06.19-.14.3-.25Z"/>
          <polygon class="cls-7" points="158.42 49.3 158.42 49.3 158.42 49.3 158.42 49.3"/>
          <path class="cls-7" d="m138.13,69.64s.06-.06.09-.09c-.03.03-.05.05-.09.09Z"/>
          <path class="cls-7" d="m152.56,53.48v.05c-.27.24-.1.03-.36.26-.06.13-.42.37-.49.47,0,0-.13.1-.13.08-.01.06-.12.12-.18.2-.02.03.03-.01.05-.02l-.16.17c-.07.06-.1.06-.03-.01-.23.21-.87.84-1.48,1.53-.61.69-1.15,1.46-1.32,1.75.07-.06.17-.25.25-.29-.08.16-.15.22-.18.29-.09.03-.23.32-.34.41v.06s-.06.06-.06.06c-.36.68-.08.16-.43.74-.19.33-.25.51-.38.68.02-.03.08-.08.03,0-.03,0-.12.23-.17.25-.05.08-.23.33-.14.27-.05.03-.21.25-.13.11-.05.08-.11.15-.14.2l.08-.09c-.19.25-.31.37-.41.55l.09-.08c-.12.15-.22.27-.29.3l.11-.16c-.16.2-.24.3-.48.6l.06-.07c-.17.29-1.39,1.57-1.59,1.8l.13-.07-.18.2s.03-.16.05-.17c-.21.19-.85.8-1.56,1.31-.7.51-1.47.95-1.71,1.08-.2.1-.06-.02-.06-.03-.22.15-.08.09-.28.2-.06.03,0-.03.03-.05-.08.06-.17.1-.17.11.11-.06.09,0,.15,0l-.25.15v-.03c-.06.03-.11.15-.36.3-.42.26-.84.59-1.22.9,0-.02.07-.09.15-.16-.05.04-.13.11-.18.14.11-.06-.15.15-.07.09-.24.27-.62.55-.83.79.01.06.15,1.13.2,1.17-.07.07-.14.13-.16.15.03,0,.17-.13.23-.21v-.04c.14-.17.04-.02.2-.18.03.01-.11.16-.24.29.12-.11.25-.21.27-.28.12-.1.01.04.15-.08.09-.1.2-.23.32-.32h0c.28-.22.39-.39.66-.58l-.02.03c.1-.06.26-.22.44-.33-.05.03-.1.05,0-.03.2-.14.33-.24.48-.32l.12-.12c.34-.24,1.23-.76,2.18-1.38.94-.61,1.78-1.36,2.1-1.67l-.02.03c.51-.46,1.24-1.19,1.93-1.98.7-.79,1.31-1.68,1.65-2.29.14-.17.28-.43.4-.62-.07.1-.07.05-.02-.03.35-.57,0-.05.35-.63.19-.34.69-1.11,1.28-1.8.59-.7,1.24-1.34,1.49-1.57.23-.29.59-.58.84-.84l-.02.03c.14-.14.63-.55,1.15-.93.52-.38,1.08-.71,1.27-.84l-.06.03c.33-.23.3-.16.58-.31-.06-.02.22-.21.34-.29h0c.14-.09.6-.43.8-.58v.03c.4-.31.65-.5.8-.61.37-.28.93-.71,1.34-1.16l.33-.22.04-.05s-.15-1.02-.83-.61v-.03s-.12.11-.12.11c-.14.12-.18.2-.19.17l.18-.17c-.14.12-.05.02-.01-.03-.04.04-.09.07-.16.14-.02.03.03-.01.05-.03-.06.08-.15.19-.25.26-.14.12-.04-.02-.2.12-.87.77-1.76,1.37-2.78,1.98-.03,0,0-.01.03-.03-.33.21-.55.35-.86.55-.09.04-.12.04-.14.05.04-.04-1.54,1.1-1.54,1.14Z"/>
        </g>
        <g>
          <path class="cls-7" d="m148.24,44.06c-.07.03-.15.11-.24.18.08-.04.15-.1.24-.18Z"/>
          <polygon class="cls-7" points="148 44.25 148 44.25 148 44.25 148 44.25"/>
          <path class="cls-7" d="m132.38,59.79s.04-.04.06-.06c-.02.02-.03.03-.06.06Z"/>
          <path class="cls-7" d="m143.33,47.21v.05c-.22.18-.09.01-.29.19-.04.11-.34.29-.39.37,0,0-.1.08-.11.06,0,.05-.09.1-.14.16-.01.03.02,0,.05-.02l-.13.14c-.06.04-.09.04-.03-.02-.18.16-.69.65-1.16,1.2-.47.55-.87,1.19-.99,1.43.06-.05.12-.2.19-.23-.05.13-.11.18-.12.24-.08.02-.17.26-.27.33v.05s-.04.05-.04.05c-.24.55-.05.14-.29.59-.13.27-.15.41-.25.54.01-.02.06-.06.03,0-.03,0-.08.18-.12.2-.03.07-.16.26-.08.21-.04.02-.16.19-.1.08-.04.06-.08.11-.1.16l.06-.07c-.13.2-.23.28-.29.43l.07-.06c-.08.12-.16.21-.22.23l.08-.12c-.11.14-.16.21-.35.46l.05-.05c-.11.23-1.04,1.21-1.19,1.39l.1-.05-.14.15s0-.14.03-.15c-.16.14-.66.6-1.21.95-.55.36-1.16.65-1.36.74-.16.06-.05-.03-.05-.04-.18.1-.06.07-.22.15-.05.02,0-.03.02-.04-.07.04-.14.06-.14.08.09-.04.07.02.12.02l-.21.1v-.03s-.09.12-.29.22c-.34.18-.69.43-1,.66,0-.01.05-.07.12-.13-.04.03-.1.08-.15.1.09-.04-.12.11-.05.08-.19.22-.5.42-.66.61.01.06.25,1.03.3,1.07-.05.05-.11.1-.12.11.02,0,.13-.09.18-.15v-.03c.1-.13.03-.01.15-.13.03.01-.08.13-.18.22.09-.08.19-.15.21-.21.09-.07.01.03.12-.05.07-.07.15-.18.24-.24h0c.22-.16.29-.29.5-.43l-.02.02c.08-.04.2-.16.34-.23-.04.02-.08.03,0-.03.15-.09.25-.16.37-.22l.09-.09c.26-.17.97-.51,1.75-.94.77-.44,1.46-1.01,1.71-1.25l-.02.02c.41-.36.99-.92,1.52-1.55.54-.63.99-1.36,1.22-1.86.11-.14.2-.35.29-.5-.05.08-.06.04-.02-.02.24-.46,0-.04.23-.51.12-.27.47-.87.91-1.41.43-.54.93-1.02,1.13-1.19.17-.23.45-.44.64-.63v.03c.09-.1.47-.4.88-.67.4-.27.85-.48,1.01-.57l-.04.02c.26-.16.24-.1.47-.2-.05-.03.18-.17.27-.22h0c.14-.07.43-.27.65-.42v.03c.18-.13.53-.36.65-.46.3-.2.76-.53,1.08-.88l.27-.16.03-.04s-.25-.92-.8-.64v-.02s-.09.08-.09.08c-.11.09-.14.15-.15.13l.14-.13c-.11.09-.04.01-.01-.03-.04.04-.09.08-.13.1-.01.03.02,0,.04-.02-.05.06-.11.15-.19.2-.11.09-.03-.02-.16.08-.67.57-1.36.97-2.17,1.38-.02,0,0-.01.02-.03-.28.15-.43.23-.7.38-.07.02-.1.02-.12.02.04-.03-1.27.8-1.27.85Z"/>
        </g>
        <g>
          <path class="cls-7" d="m153.55,46.59c-.08.04-.18.13-.28.22.09-.05.17-.12.28-.22Z"/>
          <polygon class="cls-7" points="153.28 46.81 153.27 46.81 153.28 46.81 153.28 46.81"/>
          <path class="cls-7" d="m135.01,64.85s.05-.05.08-.08c-.02.02-.04.04-.08.08Z"/>
          <path class="cls-7" d="m147.94,50.4v.05c-.25.21-.1.02-.33.22-.05.12-.39.33-.44.42,0,0-.11.09-.12.07-.01.06-.11.11-.17.18-.02.03.02,0,.05-.02l-.15.16c-.07.05-.1.05-.03-.02-.21.19-.79.75-1.34,1.37-.55.62-1.03,1.33-1.17,1.59.06-.05.15-.22.22-.26-.07.15-.13.2-.15.27-.09.02-.2.29-.31.37v.06s-.05.06-.05.06c-.31.62-.07.15-.37.67-.17.3-.21.46-.32.61.01-.02.07-.07.03,0-.03,0-.1.21-.15.23-.04.08-.2.3-.11.24-.04.03-.19.22-.12.09-.05.07-.1.13-.13.18l.07-.08c-.16.23-.28.33-.36.5l.08-.07c-.1.13-.19.24-.26.27l.1-.14c-.14.17-.2.26-.42.53l.06-.06c-.15.26-1.24,1.4-1.42,1.61l.12-.06-.16.18s.02-.15.04-.16c-.19.17-.77.7-1.41,1.14-.63.44-1.33.8-1.55.92-.18.08-.05-.03-.06-.03-.2.13-.07.08-.25.18-.05.02,0-.03.02-.05-.08.05-.15.08-.15.1.1-.05.08.01.14,0l-.23.13v-.03c-.05.03-.1.13-.33.26-.38.23-.77.51-1.12.79,0-.02.06-.08.13-.15-.05.03-.12.1-.17.12.1-.05-.13.13-.06.09-.22.25-.57.49-.75.71.01.06.19,1.08.24,1.12-.06.06-.12.11-.15.13.03,0,.15-.11.21-.18v-.03c.13-.15.04-.02.18-.16.03.01-.1.14-.21.26.11-.1.22-.18.24-.24.11-.08.01.04.14-.07.08-.09.17-.2.28-.28h0c.26-.19.35-.34.59-.51l-.02.03c.09-.06.24-.19.4-.29-.05.03-.09.04,0-.03.18-.11.29-.2.43-.27l.11-.1c.3-.21,1.12-.64,1.99-1.17.86-.53,1.64-1.19,1.93-1.46l-.02.02c.46-.41,1.13-1.06,1.75-1.77.63-.71,1.17-1.53,1.47-2.08.12-.16.25-.39.35-.56-.06.09-.06.05-.02-.03.3-.52,0-.05.29-.57.16-.31.59-1,1.12-1.61.52-.62,1.11-1.19,1.34-1.39.21-.26.53-.51.75-.74l-.02.03c.12-.12.56-.48,1.03-.8.47-.32.98-.6,1.16-.71l-.05.02c.3-.19.27-.13.53-.26-.05-.02.2-.19.31-.26h0c.13-.08.56-.38.74-.5v.03c.39-.29.6-.44.74-.54.34-.24.85-.62,1.23-1.02l.3-.19.03-.04s-.19-.98-.81-.62v-.03s-.11.1-.11.1c-.13.1-.16.18-.17.15l.16-.15c-.12.11-.05.02-.01-.03-.05.05-.1.09-.15.12-.02.03.02,0,.05-.02-.06.07-.13.17-.22.23-.13.11-.03-.02-.18.1-.78.67-1.58,1.18-2.51,1.69-.03,0,0-.01.02-.03-.31.18-.5.29-.79.47-.08.03-.11.03-.13.04.04-.03-1.42.96-1.42,1Z"/>
        </g>
      </g>
      <g>
        <path class="cls-7" d="m123.98,73.08s.04.03.06.03c-.02-.02-.04-.03-.06-.03Z"/>
        <polygon class="cls-7" points="124.04 73.11 124.04 73.11 124.04 73.11 124.04 73.11"/>
        <path class="cls-7" d="m126.57,70.26h0s0,0,0,0Z"/>
        <path class="cls-7" d="m125.23,73.04v-.04c.05-.02.02.04.07.02,0-.07.09-.02.1-.06,0,0,.03,0,.03.02,0-.03.02-.02.04-.03,0-.01,0,0-.01-.02l.03-.02s.03.02.01.03c.1,0,.59-.17.68-.25-.03-.02-.05.02-.08-.01.02-.03.04-.01.04-.04.04.05.07-.02.11.02v-.03s.01.01.01.01c.1-.1.02-.03.13-.08.06-.04.06-.1.1-.11,0,0-.03,0-.02-.02.02.02.03-.05.05-.03.01-.01.06-.04.02-.07.02.01.07-.01.05.02.01,0,.03-.01.04-.03h-.02s.09-.03.1-.08h-.03s.04-.05.08-.02l-.02.03s.07-.07.09-.12h-.01c.03-.06.22-.31.21-.39h-.04s0-.05,0-.05c0,0,.06.08.05.08.08-.07.33-.54.38-.63.03-.03.05.02.05.02,0-.05-.02-.03,0-.07,0,0,.02.01.02.02,0-.02.02-.03,0-.04-.02.02-.05,0-.08,0l.02-.05h.02s-.05-.04-.02-.08c.04-.08.06-.16.08-.24.01,0,.02.02.02.04,0-.01,0-.03.02-.04-.03.01,0-.04-.02-.03-.04-.07.03-.14,0-.2-.05-.03-.9-.22-.96-.21,0,0,0,0,0,0-.02,0-.02,0-.01,0h.03s-.02,0-.02.03c-.03,0-.03-.02-.03-.03,0,.01-.03.02,0,.03-.01.01-.03,0-.05,0,0,.01.03.03.01.05h0s.03.06,0,.09h0s0,.03-.03.05c0,0,.03,0,.03,0-.02.02-.01.04-.04.05l.02.03c-.02.09-.17.43-.24.51h0c-.07.13-.31.32-.42.44-.03,0-.06.01-.09.02.02,0,.02.02.01.03-.07.04,0,.02-.06.07-.06.08-.43.2-.52.19-.03.05-.1.04-.14.07h0s-.34.04-.39.06h0s-.05,0-.09-.01c.01.04-.03.08-.05.08h0s-.08.05-.12.06v-.02s-.11.02-.13.03c-.06,0-.16-.04-.24,0l-.05-.07h0s-.07.85.06,1.02v.02s.02,0,.02,0c.03,0,.04-.02.04,0h-.04s0,.02,0,.03c.01,0,.03,0,.04.01,0,0,0,0,0-.01.02,0,.04-.03.06-.02.03,0,0,.04.04.04.19,0,.38.03.57-.01,0,0,0,0,0,.02.09-.02.07-.02.16-.04.02,0,.02.02.03.03-.01-.02.29-.07.3-.08Z"/>
      </g>
      <g>
        <path class="cls-7" d="m125.01,65.59s.04,0,.05,0c-.03-.01-.04,0-.05,0Z"/>
        <polygon class="cls-7" points="125.06 65.59 125.06 65.59 125.05 65.59 125.06 65.59"/>
        <path class="cls-7" d="m126.07,62.87s0,0,0,0c0,0,0,0,0,0Z"/>
        <path class="cls-7" d="m125.57,65.17l-.03-.03s.04.03.06,0c-.04-.05.04-.03.02-.06,0,0,.01,0,.03,0-.02-.03,0-.02,0-.03,0,0,0,0-.02-.01v-.02s.04.01.03.02c.05-.03.26-.2.29-.25-.02-.01-.02.01-.06-.01,0-.03.02-.01.01-.03.05.04.03-.01.09.02l-.02-.03h.02c.02-.07,0-.01.05-.05.02-.03,0-.07.03-.08,0,0-.02,0-.02-.02.02.02,0-.03.03-.01,0,0,.03-.03,0-.05.02.01.04,0,.04.02,0,0,.02,0,.02-.02h-.02s.05-.01.04-.05h-.02s.02-.03.05,0v.02s.03-.04.03-.07h0s.08-.18.07-.24h-.03s0-.05,0-.05c0,0,.06.08.05.07.04-.04.21-.25.26-.27.03,0,.04.03.04.04,0-.03-.02-.03,0-.04,0,0,.02.02.02.02,0,0,.02,0,0-.02-.02,0-.04-.03-.06-.04l.02-.02.02.02s-.04-.06,0-.07c.04-.02.07-.06.1-.09,0,.01,0,.02,0,.04,0,0,0-.01.02,0-.03-.01,0-.03-.01-.03-.02-.06.05-.06.04-.1-.04-.04-.61-.69-.66-.73,0,0,.01-.01.02,0-.01,0-.03,0-.03.01l.02.02s-.02-.01-.03,0c-.02-.02-.01-.04,0-.05-.01,0-.04,0-.02.03-.02,0-.02-.02-.04-.02,0,.01,0,.04-.02.04h0s0,.06-.05.07h0s-.02.02-.05.02c0,0,.03.01.02.02-.03,0-.03.03-.05.02v.03c-.05.05-.24.3-.3.36h0c-.08.09-.25.27-.31.38-.03,0-.05.02-.07.03.02,0,.03.02.02.02-.05.04.01.02-.03.07-.03.07-.24.24-.31.27,0,.05-.05.06-.05.1h0s-.18.15-.2.19h0s-.04,0-.07.02c.03.03.03.07.02.08h0s0,.07-.02.09l-.02-.02s-.04.06-.05.08c-.04.02-.11.04-.13.1l-.07-.02h0s.56.63.73.71l.02.02h0s0-.04.02-.02h-.02s.02.02.02.04c0,0,.01,0,.02,0,0,0,0,0-.01,0,0-.01,0-.04,0-.04.01-.01.03.03.04.01.09-.06.18-.12.25-.2,0,0,0,0,0,.01.02-.03.04-.05.05-.08.01,0,.03.01.03.02-.02-.01.1-.13.11-.13Z"/>
      </g>
      <g>
        <path class="cls-7" d="m132.1,71.94c.06.02.16,0,.25,0-.07-.01-.15-.01-.25,0Z"/>
        <polygon class="cls-7" points="132.35 71.93 132.35 71.93 132.35 71.93 132.35 71.93"/>
        <path class="cls-7" d="m129.71,59.63s-.02.04-.03.07c0-.02.01-.03.03-.07Z"/>
        <path class="cls-7" d="m135.72,68.97l-.04-.02c0-.28.06-.08.03-.34-.08-.09-.08-.44-.17-.5,0,0-.05-.11-.03-.12-.05-.02-.07-.11-.12-.18-.02-.02,0,.02,0,.05-.03-.05-.06-.1-.1-.15-.04-.06-.03-.08.02-.03-.13-.18-.62-.69-1.17-.87-.27-.14-.54-.17-.78-.24-.18-.04-.31-.08-.41-.1.03.03.13.04.16.09-.09,0-.12-.04-.16-.02-.01-.07-.17-.05-.21-.14l-.03.02-.03-.03c-.35-.1-.09,0-.37-.15-.16-.08-.27-.08-.35-.15.01,0,.04.05,0,.03,0-.03-.12-.06-.12-.09-.04-.02-.17-.11-.15-.05-.01-.03-.12-.11-.04-.08-.04-.02-.07-.06-.1-.08l.04.05c-.12-.1-.16-.18-.26-.22l.03.05c-.07-.06-.13-.11-.13-.17.02.02.05.04.08.06-.11-.11-.17-.18-.27-.26l.03.04c-.08-.04-.24-.24-.4-.45l-.33-.51v.08s-.07-.12-.07-.12c0,.02.12.02.11.04-.06-.13-.23-.55-.29-.99-.08-.44-.05-.9-.03-1.03.03-.11.06-.01.06-.01,0-.13-.03-.06-.01-.17,0-.03.02,0,.03.03,0-.05.02-.09,0-.1-.02.06-.05.03-.08.05l.02-.15h.02s-.07-.08-.02-.22c.07-.24.1-.5.2-.74.01,0,0,.06,0,.11.01-.03.02-.08.04-.11-.04.05.02-.1,0-.06,0-.19.13-.4.17-.56-.05-.02-.69-.71-.74-.75.02-.05.05-.1.06-.12-.02,0-.07.11-.09.17l.03.02c-.05.13-.03.02-.08.14-.03,0,.02-.12.06-.22-.04.09-.1.17-.09.22-.05.08-.03-.02-.08.07-.03.08-.04.18-.1.26h0c-.11.2-.07.34-.17.52v-.02c-.04.07-.07.2-.12.33.01-.04.04-.06.03.02-.05.14-.06.25-.1.35v.11c-.06.25-.13.92-.09,1.58.06.67.26,1.31.37,1.56v-.02c.13.39.44.95.86,1.43.41.49.95.86,1.33,1.05.1.08.27.17.39.23-.07-.04-.03-.05.02-.02.39.15.03,0,.43.13.11.04.32.08.56.14.24.06.43.11.66.18.42.16.71.42.77.52.12.08.18.24.22.36h-.01s.05.29-.03.54c-.1.25-.28.5-.34.58l.02-.02c-.11.15-.12.1-.23.2.05.02-.05.15-.1.19h0c-.07.06-.21.22-.35.3v-.02c-.1.1-.34.2-.43.23-.2.09-.54.14-.83.22l-.2-.04h-.03s-.27.9.22,1v.03s.09-.02.09-.02c.12,0,.16-.04.16-.02l-.16.02c.12-.01.04.01,0,.03.05,0,.1,0,.14,0,.02-.01-.02,0-.04,0,.06-.02.14-.05.22-.06.12-.03.02.04.15,0,.72-.17,1.42-.48,1.98-1.04.02,0,0,0,0,.03.16-.18.32-.33.43-.53.04-.05.07-.05.09-.06-.01.02.15-.26.27-.57.11-.33.15-.69.14-.71Z"/>
      </g>
      <g>
        <path class="cls-7" d="m128.69,74.59c-.09,0-.23.05-.36.09.11-.01.22-.04.36-.09Z"/>
        <polygon class="cls-7" points="128.33 74.68 128.33 74.69 128.33 74.68 128.33 74.68"/>
        <path class="cls-7" d="m126.53,57.38s-.05.06-.08.09c.03-.03.05-.05.08-.09Z"/>
        <path class="cls-7" d="m122.32,74.25l-.04.02c-.22-.19-.03-.09-.2-.29-.11-.05-.27-.35-.32-.42,0,0-.05-.12-.03-.12-.05-.02-.07-.12-.11-.19-.02-.02,0,.02,0,.05-.03-.06-.07-.11-.09-.17-.01-.08,0-.1.03-.02-.06-.24-.3-.95-.21-1.72.05-.76.31-1.51.42-1.77-.06.06-.11.23-.16.28.02-.16.08-.21.09-.28.08-.04.13-.25.33-.57v-.09s.06-.1.07-.15c.04-.41-.14-.55-.18-.61-.06-.07-.06-.06-.12-.12-.07-.05-.18-.14-.43-.33-.31-.22-.48-.29-.64-.43.02.02.08.09,0,.03,0-.04-.17-.11-.17-.16-.06-.04-.19-.23-.17-.14-.01-.04-.1-.22-.03-.13-.04-.06-.06-.12-.09-.16l.03.08c-.11-.2-.11-.34-.17-.48,0,.03,0,.06,0,.09-.03-.14-.04-.26,0-.31l.02.14c-.02-.23,0-.36.01-.55l-.02.07c0-.12.1-.52.36-.8.35-.38.7-.75.79-.88l-.12.08.17-.2s-.02.16-.04.17c.4-.4,2.46-2.5,2.85-2.85.16-.14.06,0,.06.01.17-.19.06-.1.21-.25.05-.04,0,.03-.01.05.07-.07.14-.13.13-.14-.09.08-.08.01-.14.03l.2-.2v.03c.05-.04.07-.16.28-.34.36-.35.68-.68,1.02-1.01,0,.02-.06.09-.12.17.04-.04.11-.11.16-.15-.1.06.13-.15.06-.1.2-.28.55-.56.74-.8-.02-.06-.19-1.11-.23-1.15.07-.07.13-.13.16-.15-.03,0-.16.13-.23.21v.04c-.14.17-.04.02-.19.18-.03-.01.11-.16.24-.29-.12.11-.24.21-.27.28-.11.1-.01-.04-.15.08-.09.1-.19.24-.3.33h0c-.28.23-.36.42-.62.63l.02-.03c-.09.07-.24.25-.4.39.05-.04.1-.06.01.03-.18.16-.29.29-.43.4l-.1.14c-.59.6-2.94,2.97-3.53,3.57l.02-.03c-.23.23-.51.52-.83.84-.14.13-.4.39-.54.65-.16.26-.27.56-.33.87-.11.62,0,1.27.29,1.77.26.5.75.87.99,1.02.07.07.17.15.27.23.05.04.1.08.15.11.04.03.03.02.04.04,0-.02,0-.03.03-.02h.01c.06.08.08-.01.05.11l-.02.04c-.03.06-.06.13-.09.21-.07.15-.14.33-.19.53-.06.2-.14.42-.19.65-.04.23-.08.48-.12.72-.12.99.09,1.99.22,2.35.06.19.19.39.29.6.09.21.21.41.36.55l-.03-.03c.12.17.58.76,1.21,1.13.16.09.31.19.47.27.16.06.32.12.46.17.28.12.52.17.64.18l-.06-.02c.42.05.36.08.69.16-.04-.04.32-.06.46-.06h0c.21,0,.67,0,1-.07v.03c.26-.06.79-.09.97-.16.44-.09,1.13-.2,1.68-.46l.39-.06.05-.03s.07-.25.04-.48c-.03-.23-.17-.45-.55-.41v-.03s-.13.05-.13.05c-.17.05-.24.1-.23.07l.23-.08c-.17.05-.06,0,0-.04-.07.02-.14.04-.19.05-.03.02.03,0,.05,0-.09.04-.2.1-.31.13-.17.06-.02-.03-.22.03-1.05.27-2.1.44-3.14.33-.02-.01,0,0,.04,0-.3-.06-.58-.07-.84-.16-.07-.04-.08-.06-.1-.08.03,0-.36-.06-.67-.28-.35-.16-.6-.46-.61-.46Z"/>
      </g>
      <g>
        <path class="cls-7" d="m110.88,92.65c.06-.04.12-.13.19-.21-.07.05-.12.12-.19.21Z"/>
        <polygon class="cls-7" points="111.07 92.44 111.07 92.43 111.07 92.44 111.07 92.44"/>
        <path class="cls-7" d="m116.09,73.79s-.04.04-.06.06c.02-.02.03-.03.06-.06Z"/>
        <path class="cls-7" d="m113.42,87.85l-.04-.03c.05-.25.06-.06.1-.3-.04-.1.09-.39.07-.48,0,0,.02-.11.04-.1-.03-.04,0-.12,0-.2,0-.03-.01.02-.02.04v-.17c.01-.07.03-.08.03,0,.02-.22.09-.87.03-1.51-.03-.64-.14-1.26-.18-1.48-.01.06.02.19,0,.26-.04-.12-.02-.18-.05-.22.05-.05-.03-.26.01-.36l-.04-.03v-.06c-.11-.5-.03-.12-.09-.56-.04-.25-.11-.37-.11-.51,0,.02,0,.08-.03.01.03-.01-.05-.17-.02-.21,0-.06-.02-.27-.05-.19.02-.04.02-.22.04-.11,0-.06,0-.12-.01-.16v.08c-.03-.21,0-.32-.05-.45v.08c-.03-.13,0-.22.03-.27v.12c.02-.2.02-.32.01-.49v.06c-.08-.22.15-1.32.2-1.52l-.07.07.05-.17s.06.11.04.12c.08-.36,1.04-2.07,1.37-2.29.11-.1.06.01.06.02.1-.14.02-.08.12-.19.03-.03.01.02,0,.04.04-.05.09-.09.08-.1-.06.05-.07,0-.11.01l.13-.14v.02s.03-.13.16-.26c.2-.24.44-.49.69-.71,0,.01-.04.07-.08.12.03-.03.08-.08.11-.1-.07.04.09-.11.03-.07.13-.21.39-.38.51-.55-.03-.05-.29-.99-.33-1.04.05-.05.1-.09.12-.1-.02,0-.12.09-.17.14v.03c-.1.12-.03.01-.14.12-.03-.01.08-.12.17-.21-.09.08-.18.14-.2.2-.09.07-.01-.03-.12.05-.06.07-.13.18-.22.24h0c-.21.16-.26.3-.45.45v-.02c-.06.05-.17.18-.29.27.04-.03.08-.04.01.03-.14.1-.2.22-.3.3l-.06.11c-.1.12-.27.32-.48.57-.21.25-.46.54-.65.88-.2.34-.43.65-.57.95-.13.31-.24.57-.31.72v-.02c-.1.22-.2.52-.26.86-.09.34-.17.71-.17,1.09l-.03.56c.01.18.03.36.04.53.02.34.06.64.11.88,0,.15.03.36.05.51,0-.09.02-.06.03,0,.07.45.02.03.11.48.14.54.36,2.5.2,2.93.03.24-.02.54-.06.77v-.02c-.03.12-.09.54-.23.95-.15.4-.31.81-.35.95l.02-.04c-.06.25-.11.2-.21.38.05,0-.03.2-.07.28h0c-.05.11-.16.39-.25.58l-.02-.02c-.05.17-.23.46-.31.56-.18.24-.47.59-.67.94l-.2.17-.02.03s.42.86.88.51v.02s.07-.09.07-.09c.08-.1.1-.17.11-.15l-.1.15c.08-.1.04-.02.02.03.03-.04.07-.09.1-.12,0-.03-.02,0-.03.02.03-.06.07-.16.13-.22.08-.11.04.02.13-.11.24-.34.5-.66.71-1.02.21-.39.4-.74.6-1.11.02-.01,0,0,0,.03.12-.23.19-.45.27-.68.03-.06.05-.07.07-.08-.02.01.09-.3.2-.61.13-.31.16-.67.18-.67Z"/>
      </g>
      <g>
        <path class="cls-7" d="m100.06,69.21c-.08-.09-.24-.21-.39-.32.1.11.22.21.39.32Z"/>
        <polygon class="cls-7" points="99.66 68.88 99.66 68.88 99.67 68.88 99.66 68.88"/>
        <path class="cls-7" d="m94.75,77.34s-.1.02-.15.03c.05-.01.09-.02.15-.03Z"/>
        <path class="cls-7" d="m91.17,65.39l.02.06c-.14.3-.13.31-.16.35-.02.02-.02,0-.02.02.01.01.02.02.02.03,0,0-.02,0-.03,0,.05-.01-.19.02-.23.05,0,0-.25.06-.24.05-.07.06-.26.11-.4.2-.05.04.05-.01.09-.03-.12.06-.22.14-.32.22-.13.09-.17.1-.04-.01-.15.11-.39.33-.6.67-.1.16-.2.39-.24.58v.03s-.03,0-.03,0c-.13,0-.45.02-.66.09-.47.12-.89.39-1.19.72-.3.33-.48.7-.58,1.01-.02.08-.04.15-.06.23-.01.07-.03.15-.02.13h0s.01,0,.02,0c0,.03.03-.15.07-.18-.02.07-.02.13-.03.18,0,.02,0,.02,0,.02,0,0,0,0,0,.02-.02,0-.03,0-.03,0-.03,0,0-.02-.17.01l-.07.07s-.1.03-.15.05c-.57.38-.56.51-.62.53-.02.06-.12.04-.36.62-.21.71-.03,1.05.06,1.39-.02-.05-.04-.2.02-.04-.03.05.19.4.21.47.08.14.38.52.31.37.02.03.13.21.25.27.09.06.12.09-.01.02.15.09.21.14.3.18l-.13-.09c.36.21.53.36.78.46l-.12-.09c.21.13.39.23.45.32l-.22-.12c.35.21.56.34.86.5l-.1-.06c.14.07.46.25.85.47.13.07.13.07.15.08l.08.04c.06.03.12.06.18.08-.06.04-.12.08-.14.11h.1s-.1.06-.1.06c.02,0-.04-.09-.02-.09-.11.05-.33.15-.61.28-.18.07-.57.27-.79.54-.24.27-.41.63-.45,1.01-.1.78.36,1.49.85,1.82.5.34.97.38,1.18.4.34.03.06.05.05.06.41-.02.2-.02.54-.07.08,0-.01.03-.05.04.12-.03.24-.04.24-.06-.16.02-.1-.03-.17-.04l.36-.07v.03c.07-.01.18-.1.54-.16.62-.12,1.24-.24,1.84-.35,0,.02-.13.05-.26.08.08-.01.2-.04.28-.05-.15,0,.25-.07.13-.05.43-.14,1.01-.2,1.39-.32.02-.06.65-1.06.64-1.12.12-.02.24-.04.28-.05-.03,0-.27.03-.4.06l-.02.04c-.29.07-.07,0-.35.05-.02-.02.24-.08.47-.13-.21.04-.42.06-.49.1-.2.03.02-.04-.22,0-.16.04-.38.11-.57.13h0c-.47.06-.7.17-1.13.23l.04-.02c-.15.01-.44.09-.72.13.08,0,.15,0-.01.03-.31.04-.52.1-.75.13l-.21.07c-.25.05-.69.13-1.23.23-.41.04-.9-.15-1.1-.51-.22-.36-.1-.8.16-1.02.07-.06.12-.09.22-.14.12-.05.23-.11.33-.15.28-.13.52-.24.69-.32l-.07.04c.49-.22,1.07-.49,1.79-.82-1.02-.62-2.29-1.4-3.53-2.15-.41-.25-.82-.49-1.19-.72-.22-.24-.38-.57-.4-.79,0-.17.05-.39.15-.53-.06.07-.06.04-.02-.03.16-.21.19-.2.19-.22,0,0,0-.04.26-.17.12-.04.4-.1.73-.15.01-.2.03-.42.05-.65.03-.22.05-.24.09-.38.08-.22.2-.43.38-.6.18-.17.41-.29.65-.34.06-.02.12-.02.18-.03.07,0,.09-.01.27,0,.31.05.6.11.87.17.02-.31.03-.63.06-.91.03-.16.04-.17.06-.23.02-.05.04-.09.06-.13.09-.16.19-.27.26-.34.11-.13.27-.24.46-.3.12-.03.14-.05.34-.07.21,0,.41,0,.67-.02h-.08s.11,0,.21,0c-.03-.99.13-1.25.7-1.36.26-.04.54.06.72.17.26.19.47.33.59.42l-.06-.05c.42.28.34.27.66.52-.02-.07.35.17.49.26h-.01c.19.13.74.5,1.02.68h-.03c.29.19.81.58,1.01.72.45.34,1.13.89,1.76,1.3l.36.34.06.04s1.13-.21.42-.95h.03s-.16-.12-.16-.12c-.19-.15-.29-.19-.26-.2l.26.19c-.19-.15-.05-.06.04-.02-.06-.05-.12-.1-.22-.17-.04-.02.02.03.05.05-.11-.07-.27-.15-.39-.26-.2-.15.01-.04-.22-.21-1.22-.9-2.4-1.77-3.61-2.66-.02-.03.01,0,.05.02-.39-.28-.68-.48-1.05-.74-.09-.08-.1-.11-.13-.14.04.04-.66-.47-1.52-.35-.42.04-.83.25-1.08.49-.13.12-.22.23-.28.32-.06.08-.09.14-.09.15Z"/>
      </g>
      <g>
        <g>
          <path class="cls-7" d="m58.86,136.24c-.07-.07-.21-.15-.34-.23.09.08.19.15.34.23Z"/>
          <polygon class="cls-7" points="58.52 136 58.52 136 58.52 136.01 58.52 136"/>
          <path class="cls-7" d="m31.98,122.47s.07.04.11.06c-.04-.02-.07-.04-.11-.06Z"/>
          <path class="cls-7" d="m52.08,132.3l-.04.03c-.32-.18-.07-.1-.37-.25-.15-.01-.48-.28-.6-.31,0,0-.14-.09-.12-.1-.06,0-.15-.08-.25-.12-.04-.01.02.02.04.04l-.21-.11c-.08-.05-.09-.08,0-.04-.54-.31-3.13-1.8-3.72-2.12.06.06.25.15.3.22-.17-.07-.22-.13-.3-.15-.03-.09-.33-.2-.42-.32h-.06s-.07-.06-.07-.06c-.7-.35-.16-.07-.76-.42-.35-.19-.54-.24-.73-.37.03.02.1.08,0,.03,0-.03-.25-.12-.28-.17-.09-.05-.38-.21-.3-.12-.04-.04-.29-.2-.13-.13-.09-.05-.17-.1-.23-.13l.11.07c-.29-.16-.44-.27-.65-.35l.1.07c-.18-.1-.32-.17-.37-.25l.18.09c-.29-.16-.46-.26-.72-.37l.09.05c-.33-.14-1.95-1.01-2.25-1.12l.11.1-.26-.11s.17-.02.19,0c-.52-.29-3.24-1.79-3.71-2.08-.19-.12-.01-.06,0-.07-.24-.12-.12-.03-.32-.14-.05-.04.02-.01.06,0-.09-.05-.17-.1-.18-.09.1.07.04.08.07.13l-.26-.15h.02c-.06-.05-.18-.04-.43-.19-.42-.25-.89-.5-1.32-.75.01,0,.11.03.2.08-.06-.03-.15-.08-.2-.12.09.08-.19-.09-.11-.03-.34-.13-.73-.4-1.02-.52-.05.03-1.04.47-1.08.52-.09-.05-.17-.1-.2-.12.02.03.18.13.28.17l.03-.02c.21.11.04.04.24.16,0,.03-.19-.07-.36-.16.15.09.28.19.36.19.13.09-.03.02.13.13.12.06.29.12.42.22h0c.32.21.53.25.82.45h-.04c.1.06.32.16.51.29-.05-.04-.09-.08.03-.02.21.14.38.21.53.32l.17.06c.77.44,3.86,2.13,4.65,2.56h-.03c1.2.64,3.64,2.01,4.88,2.67.18.13.44.27.64.39-.1-.07-.06-.07.03-.02.6.34.05,0,.67.34.72.37,3.4,1.91,4.01,2.28.35.15.76.41,1.1.58h-.04c.36.17,2.34,1.33,2.76,1.55l-.05-.04c.37.18.3.19.58.36-.02-.06.3.09.42.15h0c.18.1.6.29.89.45h-.02c.26.13.71.39.88.49.39.23.99.61,1.54.89l.31.25.05.02s.96-.42.35-.97h.02s-.14-.09-.14-.09c-.16-.1-.25-.12-.23-.14l.23.13c-.16-.1-.04-.05.03-.02-.07-.04-.14-.08-.19-.12-.04-.01.02.02.04.04-.09-.04-.23-.09-.34-.17-.17-.1,0-.04-.19-.16-1.05-.61-2.06-1.21-3.14-1.81-.02-.02,0,0,.04,0-.33-.17-.61-.34-.91-.49-.08-.06-.09-.08-.11-.1.04.04-1.63-.89-1.66-.91Z"/>
        </g>
        <g>
          <path class="cls-7" d="m65,131.11c-.07-.07-.21-.15-.34-.23.09.08.19.15.34.23Z"/>
          <polygon class="cls-7" points="64.65 130.88 64.65 130.88 64.65 130.88 64.65 130.88"/>
          <path class="cls-7" d="m38.11,117.35s.07.04.11.06c-.04-.02-.07-.04-.11-.06Z"/>
          <path class="cls-7" d="m58.21,127.18l-.04.03c-.32-.18-.07-.1-.37-.25-.15-.01-.48-.28-.6-.31,0,0-.14-.09-.12-.1-.06,0-.15-.08-.25-.12-.04-.01.02.02.04.04l-.21-.11c-.08-.05-.09-.08,0-.04-.54-.31-3.13-1.8-3.72-2.12.06.06.25.15.3.22-.17-.07-.22-.13-.3-.15-.03-.09-.33-.2-.42-.32h-.06s-.07-.06-.07-.06c-.7-.35-.16-.07-.76-.42-.35-.19-.54-.24-.73-.37.03.02.1.08,0,.03,0-.03-.25-.12-.28-.17-.09-.05-.38-.21-.3-.12-.04-.04-.29-.2-.13-.13-.09-.05-.17-.1-.23-.13l.11.07c-.29-.16-.44-.27-.65-.35l.1.07c-.18-.1-.32-.17-.37-.25l.18.09c-.29-.16-.46-.26-.72-.37l.09.05c-.33-.14-1.95-1.01-2.25-1.12l.11.1-.26-.11s.17-.02.19,0c-.52-.29-3.24-1.79-3.71-2.08-.19-.12-.01-.06,0-.07-.24-.12-.12-.03-.32-.14-.05-.04.02-.01.06,0-.09-.05-.17-.1-.18-.09.1.07.04.08.07.13l-.26-.15h.02c-.06-.05-.18-.04-.43-.19-.42-.25-.89-.5-1.32-.75.01,0,.11.03.2.08-.06-.03-.15-.08-.2-.12.09.08-.19-.09-.11-.03-.34-.13-.73-.4-1.02-.52-.05.03-1.04.47-1.08.52-.09-.05-.17-.1-.2-.12.02.03.18.13.28.17l.03-.02c.21.11.04.04.24.16,0,.03-.19-.07-.36-.16.15.09.28.19.36.19.13.09-.03.02.13.13.12.06.29.12.42.22h0c.32.21.53.25.82.45h-.04c.1.06.32.16.51.29-.05-.04-.09-.08.03-.02.21.14.38.21.53.32l.17.06c.77.44,3.86,2.13,4.65,2.56h-.03c1.2.64,3.64,2.01,4.88,2.67.18.13.44.27.64.39-.1-.07-.06-.07.03-.02.6.34.05,0,.67.34.72.37,3.4,1.91,4.01,2.28.35.15.76.41,1.1.58h-.04c.36.17,2.34,1.33,2.76,1.55l-.05-.04c.37.18.3.19.58.36-.02-.06.3.09.42.15h0c.18.1.6.29.89.45h-.02c.26.13.71.39.88.49.39.23.99.61,1.54.89l.31.25.05.02s.96-.42.35-.97h.02s-.14-.09-.14-.09c-.16-.1-.25-.12-.23-.14l.23.13c-.16-.1-.04-.05.03-.02-.07-.04-.14-.08-.19-.12-.04-.01.02.02.04.04-.09-.04-.23-.09-.34-.17-.17-.1,0-.04-.19-.16-1.05-.61-2.06-1.21-3.14-1.81-.02-.02,0,0,.04,0-.33-.17-.61-.34-.91-.49-.08-.06-.09-.08-.11-.1.04.04-1.63-.89-1.66-.91Z"/>
        </g>
        <g>
          <path class="cls-7" d="m88.78,118.36c-.12.07-.29.22-.46.36.14-.09.29-.2.46-.36Z"/>
          <polygon class="cls-7" points="88.31 118.72 88.31 118.73 88.32 118.72 88.31 118.72"/>
          <path class="cls-7" d="m105.83,121.3s-.06.09-.09.13c.03-.04.06-.08.09-.13Z"/>
          <path class="cls-7" d="m82.29,127.51l.03.04c-.13.53-.09.14-.17.65,0,.2-.1.85-.08,1.03-.01,0,0,.25-.03.24.04.08.02.27.04.43.01.06,0-.04.02-.09.01.12.01.25.05.37.02.15,0,.19-.03.03.02.12.05.31.09.53.07.22.14.49.28.78.25.58.77,1.2,1.41,1.6,1.32.82,2.81.76,3.28.72-.13-.02-.44.01-.56-.03.27-.02.39,0,.51-.03.11.06.59,0,.79.01l.07-.04h.13c1.14-.2.26-.05,1.26-.24.57-.13.81-.28,1.13-.35-.05.01-.17.03-.03-.02.03.02.38-.13.45-.13.14-.05.58-.21.42-.19.08,0,.48-.14.25-.04.13-.05.27-.09.36-.13l-.18.05c.45-.16.7-.26.97-.41l-.17.05c.26-.11.48-.21.6-.22l-.27.13c.44-.18.69-.31,1.04-.5l-.13.06c.45-.23,2.75-1.48,3.1-1.78l-.2.08.33-.22s-.11.18-.15.19c.37-.21,1.5-.88,2.58-1.62,1.09-.72,2.12-1.52,2.44-1.75.26-.18.08,0,.08.01.3-.24.11-.13.37-.33.07-.05,0,.03-.04.07.11-.09.22-.17.22-.19-.15.11-.11.03-.19.06l.33-.26v.03c.07-.06.15-.2.46-.46.54-.45,1.09-.97,1.59-1.47,0,.02-.1.13-.2.24.07-.07.17-.17.24-.22-.14.1.2-.22.09-.14.32-.41.81-.87,1.07-1.25,0-.07-.12-1.32-.19-1.35.06-.09.12-.16.16-.23-.01,0-.17.21-.24.32v.04c-.17.26-.04.05-.24.3-.03,0,.14-.23.28-.44-.13.18-.29.35-.32.44-.14.16-.01-.04-.18.15-.11.15-.25.35-.4.5h0c-.37.36-.51.61-.86.93l.03-.04c-.13.11-.35.36-.59.55.07-.06.14-.09,0,.04-.27.22-.43.41-.64.56l-.17.18c-.46.41-1.63,1.38-2.87,2.26-1.25.88-2.54,1.7-3.09,2l.04-.03c-.81.49-2.06,1.21-3.37,1.82-1.31.61-2.65,1.15-3.57,1.41-.29.07-.69.16-.99.21.17-.03.12,0-.01.03-.92.18-.06.04-.99.19-.52.08-1.87.18-2.95-.32-.53-.26-.93-.67-1.16-1.08-.12-.2-.2-.41-.25-.59-.07-.17-.08-.33-.1-.44-.15-.46-.09-1.09-.06-1.58v.05c.04-.26.17-1.14.52-2,.33-.86.78-1.68.94-1.96l-.05.07c.27-.49.26-.41.5-.77-.07.02.18-.39.28-.54h0c.14-.23.5-.75.77-1.12v.03c.23-.31.7-.86.89-1.06.43-.46,1.14-1.13,1.75-1.72l.45-.31.06-.06s.03-.3-.06-.53c-.09-.23-.29-.39-.79-.07v-.03s-.17.15-.17.15c-.21.17-.29.28-.29.25l.28-.25c-.21.18-.08.04,0-.04-.08.06-.15.12-.25.2-.03.04.04-.02.07-.04-.11.1-.25.26-.38.38-.2.2-.04-.02-.28.21-1.26,1.2-2.39,2.49-3.35,3.99-.03.03,0-.01.02-.06-.27.47-.53.87-.74,1.32-.07.12-.1.14-.13.17.02-.04-.28.58-.54,1.23-.11.33-.24.67-.32.93-.07.26-.12.43-.12.46Z"/>
        </g>
        <g>
          <path class="cls-7" d="m82.93,127.71c.03.07.12.16.2.25-.05-.08-.11-.16-.2-.25Z"/>
          <polygon class="cls-7" points="83.13 127.96 83.13 127.97 83.13 127.96 83.13 127.96"/>
          <path class="cls-7" d="m101.65,120.86s-.04.04-.06.06c.02-.02.03-.03.06-.06Z"/>
          <path class="cls-7" d="m88.45,129.91v-.04c.29-.02.1.04.36.01.09-.08.42-.06.51-.11,0,0,.12-.01.12,0,.03-.04.13-.03.2-.05.03-.02-.02,0-.05-.01l.17-.05c.07,0,.09,0,.02.03.23-.04.9-.19,1.55-.41.65-.22,1.27-.49,1.5-.6-.07,0-.2.08-.27.07.11-.07.18-.07.23-.11.07.04.27-.11.38-.1l.02-.05h.07c.5-.29.11-.08.57-.3.26-.14.36-.25.51-.31-.02.01-.09.02-.03-.02.03.02.17-.11.22-.11.06-.04.27-.16.18-.15.05,0,.24-.1.13-.02.06-.04.13-.07.17-.1l-.09.04c.21-.13.34-.17.46-.28l-.09.03c.12-.08.23-.15.3-.14l-.12.09c.21-.13.33-.21.49-.33l-.06.04c.2-.17,1.3-.94,1.46-1.13l-.11.04.15-.14s-.02.14-.04.14c.37-.24,2.15-1.64,2.46-1.89.14-.09.05.02.06.02.14-.14.04-.08.17-.19.04-.03,0,.02,0,.04.05-.05.11-.09.11-.1-.08.05-.07,0-.12,0l.17-.14v.02s.06-.13.23-.26c.28-.22.56-.49.84-.72,0,.01-.04.07-.1.13.04-.03.09-.08.13-.11-.08.04.1-.11.04-.08.16-.22.44-.41.59-.6-.02-.05-.27-1-.32-1.05.05-.05.1-.09.12-.1-.02,0-.12.09-.17.15v.03c-.1.12-.03.01-.14.13-.03-.01.08-.12.17-.22-.09.08-.19.15-.2.2-.09.07-.01-.03-.12.05-.06.07-.14.18-.23.24h0c-.22.16-.28.31-.48.45v-.02c-.06.05-.18.18-.31.27.04-.03.08-.04.01.03-.15.11-.23.2-.35.27l-.08.1c-.47.43-2.41,2-2.94,2.36l.02-.02c-.77.59-2.44,1.65-3.31,2.13-.15.05-.33.16-.48.22.08-.03.07,0,0,.03-.44.21-.02.03-.46.26-.25.14-.87.42-1.51.64-.63.23-1.27.38-1.52.42-.25.11-.58.12-.83.19h.02c-.13.02-.59.06-1.05.06-.46,0-.91-.07-1.07-.09h.04c-.28,0-.23-.05-.43-.11.02.05-.21.02-.3,0h0c-.13-.03-.42-.12-.63-.19l.02-.02c-.19-.04-.47-.24-.59-.3-.14-.07-.27-.21-.43-.34-.16-.12-.33-.27-.47-.41l-.14-.24-.03-.02s-.96.22-.65.78h-.02s.09.1.09.1c.1.11.17.14.14.15l-.14-.15c.1.11.02.05-.03.01.04.05.08.09.11.13.03.01,0-.02-.02-.04.06.05.16.12.22.19.11.11-.02.04.12.16.71.65,1.58,1.1,2.53,1.33.02.02,0,0-.03,0,.29.08.55.11.81.13.07.02.09.04.11.05-.04.03,1.46.02,1.48,0Z"/>
        </g>
        <polyline class="cls-5" points="101.3 158 82.98 145.19 62.02 158"/>
        <g>
          <path class="cls-7" d="m70.16,122.64c.03.07.12.16.2.25-.05-.08-.11-.16-.2-.25Z"/>
          <polygon class="cls-7" points="70.36 122.89 70.36 122.9 70.36 122.89 70.36 122.89"/>
          <path class="cls-7" d="m88.74,115.33s-.04.04-.06.06c.02-.02.03-.03.06-.06Z"/>
          <path class="cls-7" d="m75.74,124.77v-.05c.29-.03.1.05.36,0,.09-.08.42-.07.51-.12,0,0,.12-.02.12,0,.03-.04.13-.03.2-.06.03-.02-.02,0-.05,0l.17-.06c.07,0,.09,0,.02.03.23-.05.9-.22,1.54-.46.64-.24,1.26-.53,1.49-.64-.07,0-.2.08-.27.07.11-.08.18-.07.22-.12.07.03.26-.12.38-.11l.02-.05h.07c.5-.31.11-.08.57-.32.26-.15.36-.26.51-.33-.02.01-.09.03-.03-.02.03.02.17-.12.21-.12.06-.04.27-.17.18-.16.05,0,.23-.11.13-.03.06-.04.13-.07.17-.1l-.09.04c.21-.13.34-.18.45-.3l-.08.04c.12-.08.22-.15.29-.15l-.12.09c.2-.13.33-.22.48-.35l-.06.04c.2-.17,1.28-.98,1.43-1.17l-.11.04.15-.14s-.02.14-.04.14c.36-.25,2.11-1.7,2.42-1.96.13-.09.05.02.06.02.14-.14.04-.08.17-.19.04-.03,0,.02,0,.04.05-.05.11-.09.11-.1-.08.05-.07,0-.12,0l.16-.14v.02s.06-.13.22-.26c.27-.23.55-.5.82-.74,0,.01-.04.07-.09.13.04-.03.09-.09.13-.11-.08.04.1-.12.04-.08.15-.22.43-.42.57-.62-.02-.05-.3-1-.35-1.04.05-.05.1-.1.11-.11-.02,0-.12.09-.17.15l.02.03c-.11.13-.04.01-.16.13-.03-.01.08-.13.17-.22-.09.08-.19.15-.2.21-.09.07-.02-.03-.12.05-.06.07-.13.18-.23.25h0c-.21.16-.27.31-.47.46v-.03c-.06.05-.17.18-.3.28.04-.03.08-.04.01.03-.15.11-.23.21-.34.28l-.08.11c-.46.44-2.37,2.07-2.89,2.44l.02-.02c-.76.61-2.41,1.73-3.26,2.23-.15.05-.33.16-.47.23.08-.03.07,0,0,.03-.44.22-.02.03-.45.27-.25.14-.86.45-1.5.68-.63.25-1.27.42-1.51.46-.25.12-.58.14-.83.21h.02c-.13.03-.59.07-1.05.09-.46.01-.91-.05-1.07-.07h.04c-.28,0-.23-.04-.43-.1.02.05-.21.02-.3,0h0c-.14-.02-.42-.12-.64-.19l.02-.02c-.19-.03-.47-.24-.6-.29-.14-.07-.27-.21-.44-.34-.17-.12-.33-.27-.48-.41l-.14-.24-.03-.02s-.96.22-.65.78h-.02s.09.1.09.1c.1.12.17.14.14.15l-.14-.15c.1.11.02.05-.03.01.04.05.08.09.11.13.03.01,0-.02-.02-.04.06.05.16.12.22.19.11.11-.02.04.12.16.71.65,1.6,1.1,2.56,1.31.02.02,0,0-.04,0,.29.07.55.09.82.11.07.02.09.04.11.05-.04.03,1.47-.02,1.48-.05Z"/>
        </g>
      </g>
      <g>
        <path class="cls-7" d="m160.73,108.43c.05.07.16.16.27.25-.07-.09-.15-.16-.27-.25Z"/>
        <polygon class="cls-7" points="161 108.69 161 108.69 160.99 108.69 161 108.69"/>
        <path class="cls-7" d="m164.86,99.17s.06.03.1.05c-.03-.02-.05-.03-.1-.05Z"/>
        <path class="cls-7" d="m167.21,110.01l-.03-.04c.05-.2.06-.25.07-.22.01,0,.02,0,.02,0-.06-.05.01-.02,0-.04,0,0,0,0,.01.01,0,0,.01,0,.01.01.03-.04-.02,0,.15-.03.04-.02-.03,0-.07-.01.09-.02.18-.03.28-.05.11-.02.14,0,.02.03.25-.04,1-.27,1.42-1,.1-.17.18-.36.23-.56.02-.1.05-.2.06-.29,0-.01,0,0,0,0,0,0,0,0,0,0,0,0-.03,0,.14,0,.11,0,.22-.02.32-.04.2-.03.35-.1.45-.14-.11.02-.35.12-.46.09.21-.06.31-.09.39-.13.11.03.44-.2.59-.28l.03-.07.1-.06c.32-.36.31-.43.34-.45.01-.04.06-.05.22-.41.09-.22.11-.39.13-.51.01-.1,0-.05,0-.07,0,0-.02,0-.03-.02.03.02-.02-.05.02-.03,0,0,.05,0,.02-.04l.02.02s.02.02.01.03c-.02,0,.05,0,.11,0,.06,0,.11-.01.15-.03-.05.01-.11.01-.16.02.41-.07.64-.16.84-.34-.05.02-.09.05-.13.07.21-.13.36-.26.45-.3-.06.06-.11.13-.18.18.31-.26.46-.46.6-.76l-.06.1c.08-.18.4-.79.18-1.52-.11-.36-.4-.66-.67-.8-.18-.09-.32-.15-.39-.18l.1.09-.23-.1s.15-.03.17,0c-.47-.25-2.92-1.57-3.35-1.83-.17-.11,0-.06,0-.06-.22-.11-.11-.02-.29-.12-.05-.03.02-.02.05,0-.08-.04-.15-.09-.16-.08.09.06.03.07.06.12l-.23-.13.02-.02c-.05-.03-.16-.01-.39-.15-.42-.23-.79-.44-1.19-.66.01,0,.1.03.18.07-.05-.03-.13-.07-.18-.1.08.07-.17-.07-.1-.02-.31-.1-.65-.35-.92-.46-.05.03-.98.51-1.01.56-.08-.04-.15-.09-.18-.1.01.02.16.11.25.15l.03-.02c.19.09.03.04.22.14,0,.03-.17-.06-.32-.14.13.08.25.17.32.17.12.08-.03.02.11.12.11.05.27.11.38.19h0c.29.19.48.22.74.39h-.03c.09.06.29.14.46.26-.05-.03-.08-.07.03-.02.19.13.34.19.47.29l.15.05c.7.38,3.48,1.88,4.18,2.25h-.03c.11.05.22.11.35.18.06.03.13.07.2.11.03.03.04.03.07.05.06.06.13.21.09.44-.04.22-.17.46-.35.62-.09.08-.18.13-.28.18l-.15.05h-.08s-.15.01-.22,0c-.3.04-.61.04-.71.3-.04.12-.1.21-.11.35-.01.12-.02.3-.03.35-.05.17-.12.34-.2.47.05-.06.05-.03.02.02-.25.36.02.06-.28.38-.06.05-.16.13-.3.18-.07.03-.15.04-.23.06h-.14s-.22-.01-.32-.02c-.13-.03-.22,0-.32.01-.1.02-.19.01-.27.08-.1.07-.15.14-.17.23-.03.09-.08.17-.07.31,0,.12,0,.26-.02.38,0,.08-.02.11-.03.17-.02.1-.06.19-.1.27-.17.32-.46.43-.6.46-.13.05-.19.08-.57.06-.17,0-.29.05-.43.07-.11.04-.23.16-.25.27v-.05c0,.07-.06.14-.08.3,0,.14-.04.43-.05.47-.04.19-.14.4-.27.53-.24.3-.66.22-.83.18l.04.02c-.14-.03-.2-.04-.25-.08-.05-.03-.12-.07-.12-.08.04.09-.23-.09-.33-.17h0c-.15-.11-.49-.34-.73-.52h.02c-.21-.15-.57-.45-.72-.55-.32-.26-.79-.69-1.24-1l-.24-.27-.04-.03s-.97.3-.51.89h-.02s.11.1.11.1c.13.12.21.14.18.15l-.18-.15c.13.11.03.05-.03.02.06.05.11.09.15.13.03.01-.01-.02-.03-.04.08.05.19.11.28.19.14.11-.02.04.14.17.42.34.84.69,1.25,1.02.46.36.89.71,1.34,1.07.04.03-.02.01-.06-.03.15.1.27.12.35.15.09.04.18.06.28.09.18.05.39.08.6.08.12,0,.15.02.19.03-.06,0,.64-.03,1.12-.51.23-.22.39-.49.48-.69.09-.2.12-.35.13-.35Z"/>
      </g>
      <g>
        <path class="cls-7" d="m159.09,105.79s-.04.09-.05.15c.03-.04.05-.08.05-.15Z"/>
        <polygon class="cls-7" points="159.04 105.93 159.04 105.94 159.04 105.93 159.04 105.93"/>
        <path class="cls-7" d="m161.47,108.94v.05s0-.03,0-.05Z"/>
        <path class="cls-7" d="m158.67,108.63h.04c-.01.15-.05.05-.06.17.06.05-.03.2,0,.25,0,0-.01.06-.03.05.03.02,0,.06,0,.1,0,.01.01,0,.02-.02v.09s-.03.04-.03,0c-.02.14-.06.46-.11.77-.02.17-.04.34-.06.47-.02.19-.01.37,0,.45.02-.05,0-.16.04-.2.03.09,0,.14.03.18-.06.04.01.2-.03.28l.04.02v.05c.18.44.1.24.17.43.11.18.21.23.27.33-.01-.01-.02-.06.02-.03-.02.03.11.09.11.13.04.04.17.15.15.08,0,.03.12.13.04.09.04.03.08.06.11.08l-.05-.05c.14.09.22.16.33.18l-.05-.04c.09.04.17.07.2.12l-.1-.03c.16.06.27.09.41.09h-.05c.09-.01.37.01.64-.05.27-.05.51-.19.56-.24h-.08s.07-.05.11-.08c-.01,0,0,.12-.03.12.13-.06.53-.32.75-.71.24-.39.26-.86.28-.92.03-.08.06,0,.06,0,0-.1-.03-.05-.01-.13,0-.02.02,0,.03.02,0-.04.02-.07,0-.07-.02.04-.05.02-.08.04l.02-.11h.02s-.06-.06-.03-.17c.03-.25.05-.35.07-.55.01,0,.02.04.02.08,0-.02,0-.06.02-.08-.03.04,0-.08-.02-.04-.04-.14.03-.3,0-.42-.05-.02-.88-.36-.94-.37,0-.04.01-.07.02-.08-.02,0-.03.08-.03.12h.03c0,.1-.02.03-.03.11-.03,0-.02-.08-.02-.15-.01.06-.04.12-.01.15-.02.06-.03-.01-.05.06,0,.05.02.12,0,.17h0c-.05.13.02.22-.03.34h0s-.01.12-.04.2c0-.02.03-.04.03,0-.03.09-.02.16-.05.22l.02.07c0,.08-.02.22-.04.39,0,.08-.02.17-.03.27,0,.05-.02.11-.04.16-.06.22-.25.39-.34.43h0c-.12.07-.34.15-.57.1-.22-.04-.41-.19-.52-.3,0-.06-.04-.11-.06-.16,0,.03-.02.03-.03,0-.05-.15-.03,0-.08-.15-.11-.05.1-1.27.14-1.51-.02-.14.02-.32.01-.46h0c0-.13.13-.96.13-1.14v.02c-.02-.15.02-.13.05-.24-.05.01-.06-.12-.06-.17h0c0-.07-.02-.24-.01-.36h.02c-.02-.1.02-.29.02-.36.03-.17.1-.42.09-.64l.08-.14v-.02s-.81-.32-1.02-.04h-.02s0,.05,0,.05c-.02.07,0,.1-.02.1v-.1c0,.07,0,.02-.02,0,0,.03-.01.06-.02.08,0,.01.01,0,.02-.02,0,.04.02.09,0,.14-.01.07-.04,0-.05.08-.07.44-.14.86-.18,1.31-.01,0,0,0-.01-.02-.01.18-.01.2-.02.38-.01.03-.03.04-.04.05.01,0,0,.16-.02.33-.02.17-.03.31-.04.36Z"/>
      </g>
      <g>
        <path class="cls-7" d="m130.55,82.16c.04.16.15.42.26.67-.06-.2-.14-.41-.26-.67Z"/>
        <polygon class="cls-7" points="130.81 82.84 130.82 82.84 130.81 82.83 130.81 82.84"/>
        <path class="cls-7" d="m167.69,94.86c-.04.05-.09.11-.14.17.05-.06.09-.11.14-.17Z"/>
        <path class="cls-7" d="m137.58,94.04h.06c.41.5.08.18.47.63.2.14.64.76.8.89,0,0,.18.22.16.22.08.05.21.22.34.35.05.04-.03-.04-.05-.09l.29.3c.1.13.12.17,0,.04.37.41,1.47,1.57,2.68,2.65,1.2,1.08,2.51,2.05,3.01,2.38-.11-.11-.42-.31-.51-.42.27.17.37.28.5.34.06.12.56.41.73.59l.09.02.12.1c1.21.73.34.21,1.33.8.62.35.94.47,1.29.66-.05-.03-.18-.12-.01-.04.01.04.45.21.52.27.16.08.69.33.53.21.08.06.56.28.26.17.16.07.31.15.43.19l-.2-.1c.55.23.84.38,1.21.49l-.2-.09c.33.12.61.22.73.31l-.35-.12c.55.21.9.31,1.37.45l-.17-.05c.3.08,1.24.35,2.2.54.95.2,1.9.32,2.19.34l-.26-.07.49.04c-.06,0-.25.07-.3.05.26.03.8.11,1.48.16.11,0,.23.02.35.03l.23.02h.12s.05-.04.08-.07c.16-.19.32-.38.49-.58.25-.3.51-.6.76-.91,1.03-1.22,2.04-2.42,2.37-2.82.26-.29.08-.02.08-.02.3-.37.11-.18.37-.48.07-.08,0,.03-.03.08.11-.14.22-.26.22-.27-.15.16-.12.07-.2.12l.34-.39v.03c.08-.09.14-.27.48-.65.57-.67,1.15-1.36,1.71-2.02,0,.02-.11.16-.22.31.07-.09.19-.23.26-.3-.15.14.22-.29.11-.17.36-.52.93-1.11,1.25-1.56,0-.07.07-1.5.02-1.54.11-.12.2-.22.26-.3-.04.02-.26.28-.37.42v.05c-.25.33-.07.06-.33.37-.04,0,.2-.29.41-.54-.19.22-.4.44-.45.55-.19.21,0-.05-.23.2-.15.19-.33.45-.52.64h0c-.45.49-.62.8-1.04,1.25l.04-.06c-.22.26-.36.42-.67.78.08-.08.15-.14,0,.04-.3.33-.48.58-.71.81l-.18.26c-.5.6-1.73,2.07-2.96,3.55-.62.74-1.23,1.48-1.75,2.11-.01.02-.03.04-.05.03-.15-.01-.29-.02-.43-.03-.31-.03-.57-.06-.76-.08h.06c-1.16-.12-2.91-.45-4.61-1-1.7-.54-3.34-1.3-4.41-1.85-.47-.28-.78-.47-1.09-.66.18.12.11.1-.04.01-1.01-.63-.08-.02-1.1-.66-.59-.37-1.96-1.33-3.2-2.42-1.26-1.08-2.39-2.27-2.8-2.72-.48-.46-1.02-1.09-1.45-1.57l.05.04c-.23-.26-.98-1.15-1.68-2.1-.71-.94-1.38-1.93-1.6-2.27l.06.09c-.41-.58-.32-.52-.61-1,0,.09-.35-.41-.47-.61h.01c-.19-.29-.63-.95-.93-1.45h.03c-.27-.4-.69-1.2-.86-1.5-.37-.7-.88-1.81-1.34-2.76l-.22-.65-.05-.09s-.08-.04-.18-.09c-.05-.02-.11-.04-.18-.06l-.1-.02h-.05s-.02,0-.02,0c-.01,0,.01-.01-.08-.04-.13.05-.07.08-.08.08.06.03.12.04.17.04.03,0,.06,0,.08-.02h.02s.01-.02.01-.02h0s-.21,0-.21,0h0s.01,0,.01,0c0,0,.02,0,.02.02.04.03-.08.09-.11.06-.04,0-.04-.02-.08,0-.06.04-.07.04-.06.04h0s-.01.03-.01.03c-.06.11-.06.33.04.67h-.03s.12.25.12.25c.13.31.22.44.19.43l-.19-.42c.13.31.02.1-.04-.01.05.12.09.22.15.36.04.06-.01-.05-.03-.1.08.16.21.38.3.59.15.32-.03.04.15.4.92,1.94,1.91,3.76,3.09,5.59.02.05-.01,0-.05-.05.36.54.68,1.03,1.03,1.51.08.14.1.19.12.23-.02-.05.45.63.96,1.3.51.66,1.02,1.32,1.06,1.37Z"/>
      </g>
      <g>
        <path class="cls-7" d="m99.16,69.21c-.08.07-.18.22-.28.36.09-.1.18-.21.28-.36Z"/>
        <polygon class="cls-7" points="98.88 69.58 98.88 69.58 98.89 69.57 98.88 69.58"/>
        <path class="cls-7" d="m112.25,79.63s-.08.02-.13.04c.04-.01.07-.02.13-.04Z"/>
        <path class="cls-7" d="m94.33,76.4l.02.05c-.22.34-.11.07-.3.39-.03.16-.34.51-.39.64,0,0-.1.15-.11.13,0,.06-.1.16-.15.26-.01.04.03-.02.05-.04l-.13.23c-.07.08-.1.09-.04,0-.26.39-.99,1.48-1.71,2.57-.3.27.15.26.34.34.24.07.47.14.7.2.33.09.64.19.93.27.42.13.76.2.95.23-.09-.04-.32-.08-.4-.13.2.02.29.07.38.06.06.07.43.1.56.19l.06-.02.09.04c.87.14.2.04.97.17.45.06.67.04.91.09-.04,0-.13-.04-.02-.03.02.03.31.02.36.06.11.02.48.06.36,0,.06.03.39.06.19.06.11.01.22.02.3.02l-.14-.02c.37.02.58.07.82.05l-.14-.03c.22.02.41.03.5.07h-.23c.37.03.6.03.91.02h-.11c.2-.02.81-.02,1.42-.03.61-.03,1.21-.06,1.39-.09l-.17-.03.31-.03s-.15.1-.18.09c.33,0,1.37-.07,2.39-.16,1.02-.09,2.03-.24,2.34-.27.25-.02.05.04.05.05.3-.06.12-.05.38-.09.07,0-.01.03-.05.04.11-.02.22-.03.22-.04-.14.01-.09-.04-.15-.05l.33-.05v.03c.06-.01.16-.1.48-.13.54-.09,1.12-.2,1.66-.32,0,.02-.12.05-.23.08.07-.01.18-.04.25-.05-.14,0,.22-.07.12-.05.38-.14.9-.21,1.24-.33.02-.06.5-1.08.47-1.14.1-.03.2-.05.23-.06-.03,0-.23.04-.33.08v.04c-.25.08-.07,0-.31.06-.02-.02.2-.09.4-.14-.18.05-.36.07-.42.12-.17.03,0-.04-.19,0-.14.05-.32.12-.49.14h0c-.41.06-.61.18-.99.23l.04-.02c-.13.01-.39.09-.63.12.07,0,.13,0-.01.03-.28.03-.46.09-.66.1l-.19.06c-.48.08-1.66.28-2.85.42-1.19.14-2.39.21-2.88.24h.04c-1.48.1-4.52-.01-6.03-.24-.23-.06-.55-.1-.79-.14.13.03.08.05-.02.03-.73-.16-.05,0-.8-.13-.21-.04-.58-.1-1.02-.21-.28-.08-.61-.18-.94-.27-.17.11.72-1.11.88-1.37.2-.38.51-.8.72-1.17l-.02.04c.28-.43,1.6-2.44,1.92-2.92l-.04.06c.23-.39.23-.32.44-.61-.06.01.13-.32.21-.45h0c.1-.16.41-.69.56-.94v.03c.16-.27.48-.75.6-.94.28-.42.75-1.05,1.09-1.63l.3-.33.03-.06s-.31-1.04-.95-.4v-.03s-.11.15-.11.15c-.13.17-.16.27-.17.24l.16-.24c-.12.17-.05.04-.02-.03-.04.06-.08.11-.14.2-.02.04.03-.02.05-.05-.06.1-.12.25-.21.36-.12.18-.04,0-.18.2-.75,1.11-1.48,2.18-2.22,3.32-.03.02,0-.01.01-.05-.23.37-.39.62-.61.97-.07.08-.09.1-.12.12.03-.02-.25.41-.54.85-.29.44-.56.86-.59.9Z"/>
      </g>
    </g>
  </g>
  <g>
    <path class="cls-7" d="m101.46,157.47c-.1-.1-.31-.25-.5-.39.13.13.29.25.5.39Z"/>
    <polygon class="cls-7" points="100.96 157.07 100.96 157.07 100.96 157.08 100.96 157.07"/>
    <path class="cls-7" d="m62.49,158.43c.05-.03.11-.07.17-.1-.05.03-.1.06-.17.1Z"/>
    <path class="cls-7" d="m91.61,150.44l-.05.02c-.46-.32-.11-.13-.54-.42-.2-.07-.7-.5-.87-.58,0,0-.2-.15-.18-.16-.08-.02-.22-.14-.36-.23-.05-.03.03.03.06.07l-.31-.2c-.11-.09-.13-.13,0-.04-.8-.56-4.52-3.19-5.4-3.81.09.1.37.27.44.37-.24-.14-.33-.24-.44-.29-.03-.05-.14-.14-.27-.24-.24-.17-.52-.38-.69-.53h-.01s-.13.13-.13.13l-.23.12c-.65.42-.73.47-.78.5-.04.03-.1.06-.53.31-.52.33-.75.52-1.05.68.04-.03.17-.08.04.01-.04-.01-.35.24-.43.26-.13.08-.57.35-.4.29-.08.03-.47.26-.25.1-.13.08-.26.15-.35.22l.17-.09c-.44.27-.69.39-.96.6l.17-.09c-.26.16-.48.3-.6.33l.26-.18c-.44.27-.7.43-1.05.67l.13-.08c-.44.32-2.85,1.83-3.25,2.13l.21-.09-.35.25s.12-.19.17-.21c-.78.48-4.81,2.94-5.6,3.43-.3.16-.08,0-.08-.02-.35.23-.14.12-.44.31-.09.05,0-.03.05-.06-.13.08-.26.15-.26.17.17-.09.12-.02.21-.04l-.39.24v-.03c-.08.05-.18.19-.57.41-.67.4-1.35.82-2,1.21,0-.02.13-.11.27-.2-.09.05-.22.14-.3.18.17-.07-.26.18-.14.12-.45.34-1.09.67-1.49.96,0,.07-.42,1.33-.39,1.39-.12.07-.22.13-.3.18.04,0,.3-.16.43-.25v-.04c.31-.2.09-.03.39-.22.03.01-.25.19-.49.34.23-.13.46-.25.53-.33.22-.12,0,.04.25-.1.18-.12.4-.28.61-.4h0c.52-.28.75-.5,1.22-.76l-.04.04c.17-.09.48-.3.78-.46-.09.05-.17.07,0-.04.35-.19.57-.35.82-.48l.22-.17c1.17-.72,5.79-3.58,6.97-4.3l-.04.03c1.79-1.11,5.39-3.33,7.31-4.53.3-.15.69-.4,1-.58-.17.09-.13.04,0-.04.45-.27.47-.29.48-.31,0,0,.01-.02.07-.06.02-.01.05-.04.11-.08h0c.06.04-.01-.01.26.18.21.14.45.31.71.49.52.37,1.13.8,1.74,1.22,1.2.85,2.38,1.7,2.85,2.03.51.31,1.1.76,1.59,1.07l-.05-.03c.56.39,3.37,2.37,4,2.81l-.08-.06c.53.34.44.33.84.63-.03-.07.43.22.6.33h-.01c.24.16.91.6,1.29.84h-.03c.37.23,1.02.71,1.28.88.57.41,1.44,1.07,2.23,1.59l.46.41.08.05s1.28-.12.36-.98h.03s-.2-.15-.2-.15c-.24-.18-.36-.23-.33-.24l.33.23c-.24-.18-.06-.07.04-.01-.09-.06-.16-.12-.27-.21-.05-.03.03.03.06.06-.14-.08-.33-.19-.48-.31-.25-.18,0-.04-.28-.25-1.53-1.09-3.02-2.15-4.55-3.23-.03-.03.01,0,.06.02-.49-.33-.87-.59-1.32-.9-.11-.09-.14-.13-.16-.16.03.03-.56-.37-1.16-.79-.6-.42-1.19-.83-1.23-.87Z"/>
  </g>
</svg>