<?xml version="1.0" encoding="UTF-8"?>
<svg id="Layer_1" data-name="Layer 1" xmlns="http://www.w3.org/2000/svg" xmlns:xlink="http://www.w3.org/1999/xlink" viewBox="0 0 200 200">
  <defs>
    <style>
      .cls-1, .cls-2 {
        fill: none;
      }

      .cls-3 {
        clip-path: url(#clippath);
      }

      .cls-4 {
        fill: #bbb7ff;
      }

      .cls-5 {
        fill: #073542;
      }

      .cls-6 {
        fill: #073644;
      }

      .cls-7 {
        fill: #6f6eff;
      }

      .cls-8 {
        fill: #786eff;
      }

      .cls-2 {
        stroke: #8f80ff;
        stroke-miterlimit: 10;
        stroke-width: .22px;
      }

      .cls-9 {
        fill: url(#Dots_Dense);
      }
    </style>
    <pattern id="Dots_Dense" x="0" y="0" width="10.2" height="10.2" patternTransform="translate(-7381.81 -5941.02) scale(.24)" patternUnits="userSpaceOnUse" viewBox="0 0 10.2 10.2">
      <g>
        <rect class="cls-1" x="0" y="0" width="10.2" height="10.2"/>
        <circle class="cls-6" cx="10.2" cy="7.65" r="1"/>
        <circle class="cls-6" cx="5.1" cy="10.2" r="1"/>
        <circle class="cls-6" cx="0" cy="7.65" r="1"/>
        <circle class="cls-6" cx="10.2" cy="2.55" r="1"/>
        <circle class="cls-6" cx="5.1" cy="5.1" r="1"/>
        <circle class="cls-6" cx="0" cy="2.55" r="1"/>
        <circle class="cls-6" cx="5.1" cy="0" r="1"/>
      </g>
    </pattern>
    <clipPath id="clippath">
      <ellipse class="cls-2" cx="58.41" cy="86.27" rx="21.52" ry="35.56" transform="translate(-43.84 66.31) rotate(-44.86)"/>
    </clipPath>
  </defs>
  <g>
    <ellipse class="cls-4" cx="57.77" cy="85.64" rx="21.51" ry="33.39" transform="translate(-43.64 65.93) rotate(-45)"/>
    <path class="cls-9" d="m108.57,98.46l-1.63-5.62c-13.47,5.62-15.8-6.94-15.8-6.94-6.58.63-6.43-1.54-6.28-8.46l.32-15.98c4.51-.65,9.58-3.7,13.89-5.96,1.57-.82,5.33.83,5.39,2.6.15,4.43.68,10.4,6.5,7.43,7.08-3.6,12.04,6.01,4.99,9.2l5.95,15.76-13.33,7.97Z"/>
    <path class="cls-6" d="m115.95,74.73c4.77-2.87,2.86-11.46-5.6-8.13-6,2.36-7.56-4.29-7.74-8.76-10.32,6.48-19.47,4-19.47,4-14.16-3.82-11.43-22,5.69-16.29.64-13.47,21.83-13.11,22.31-1.09,10.78-3.85,20.35,5.07,13.73,22.24l-5.75,16.39-3.16-8.35Z"/>
    <g>
      <g class="cls-3">
        <g>
          <path class="cls-7" d="m24.98,87.27c.47.37,1.36.86,2.23,1.31-.63-.4-1.32-.79-2.23-1.31Z"/>
          <path class="cls-7" d="m27.23,88.59h.01s-.02,0-.03,0h.02Z"/>
          <path class="cls-7" d="m85.68,94.52c-.17.11-.36.23-.56.35.19-.11.39-.23.56-.35Z"/>
          <path class="cls-7" d="m52.97,64.73l-.21.22c-.22.1-.43.15-.6.26-.16.12-.31.23-.44.33-.26.19-.45.32-.6.44-.28.22-.3.26-.38.31-.11.1-.33.18-1,1.12-.11.21-.3.5-.5.84-.22.34-.47.73-.69,1.11-.48.77-.86,1.54-1,1.89,0-.02-.45.93-.47.84-.06.33-.41.99-.64,1.61-.07.23.09-.15.19-.3-.19.46-.35.94-.52,1.41-.24.54-.34.65-.12.05-.73,1.82-2.59,7.17-3.19,12.93-.29,2.87-.33,5.86.43,8.5.39,1.31.94,2.55,1.81,3.46.18.24.42.44.64.62.23.18.43.36.65.5.45.24.86.45,1.19.58-.32-.18-.93-.44-1.42-.82-.24-.2-.47-.4-.67-.58-.19-.19-.3-.38-.39-.52.12.14.23.26.34.37.13.11.24.2.35.29.22.18.42.34.59.48.38.23.7.38,1.01.5.11.12.37.21.7.31.33.1.76.23,1.17.23.87.1,1.68,0,2.18.02.12-.04.23-.1.35-.16l.63-.09c1.35-.38,2.01-.73,2.41-.93.4-.2.52-.26.62-.31.1-.05.18-.1.5-.27.32-.17.86-.48,1.8-1.14,2.1-1.62,2.81-2.63,3.82-3.64-.14.16-.57.53-.14.03.15-.02,1.12-1.36,1.38-1.56.41-.5,1.65-2.18,1.14-1.68.26-.25,1.32-1.77.74-.83.35-.52.7-1.02.91-1.41l-.46.66c1.12-1.79,1.76-2.76,2.28-4.04l-.39.68c.58-1.12,1-2.1,1.3-2.51-.15.41-.34.8-.5,1.21.88-1.92,1.33-3.13,1.74-4.91-.06.21-.1.43-.17.63.11-.6.49-1.74.51-3.47,0-.22-.02-.45-.02-.68-.02-.24-.08-.51-.12-.77-.01-.24-.21-.6-.32-.9-.09-.33-.37-.61-.58-.89-.24-.26-.56-.46-.88-.65-.34-.11-.7-.28-1.06-.27-.34,0-.76-.05-1.03.01l-.86.19c-.34.12-.66.28-.94.49-.25.19-.47.39-.64.58-.36.39-.62.78-.86,1.15-.46.75-.78,1.46-1.06,2.11-.53,1.29-.82,2.32-.94,2.8l.38-.86c-.17.56-.33,1.12-.46,1.69.05-.2-.02-.89.06-1.05-.59,1.8-2.18,7.39-1.96,13.3.08,1.48.26,2.98.8,4.45.27.73.65,1.45,1.21,2.09.56.64,1.35,1.14,2.15,1.34,1.64.38,2.9-.09,3.78-.44.9-.38,1.5-.77,1.9-1,1.24-.77.3-.03.29,0,1.44-1.05.58-.51,1.76-1.41.31-.25-.01.11-.19.26.5-.41.97-.78.98-.84-.64.49-.45.19-.75.35.49-.39.95-.81,1.41-1.22v.11c.29-.28.64-.84,1.92-2.11.52-.54,1.06-1.1,1.57-1.68l.5-.56.27-.32c.19-.19.34-.48.55-.59.02.28.05.55.07.82v.02s0,0-.01,0c-.03-.01-.07-.17-.1-.3,0,.11.03.26.03.4v.05s0-.05,0-.06c0-.01,0-.02.01-.02.03.01.09.39.08.23.16.44.31.88.47,1.32.27.64.6,1.31,1.08,1.92.49.6,1.15,1.12,1.86,1.41.71.29,1.43.36,2.02.33.05-.04.4-.22.79-.54.4-.32.83-.76,1.18-1.24.71-.95,1.11-1.97,1.07-2.05.45-.26.9-.57.98-.62-.06.01-.96.59-1.43.84l-.04.13c-1.11.54-.29.11-1.37.51-.08-.05.91-.38,1.77-.9-.78.45-1.59.68-1.87.84-.71.14.04-.08-.78.03-.57.11-1.14.07-1.48-.23h.02c-.4-.36-.74-.84-1-1.43-.19-.37-.61-1.72-.7-4.05-.03-.07-.06-.16-.1-.24l.12.21v.1s.01-.07,0-.11c-.1-.26-.23-.57-.38-.92-.08-.15-.16-.41-.24-.49-.08-.05-.17-.11-.26-.17-.09-.06-.18-.12-.27-.18-.06-.03-.07-.06-.16-.09-.12-.03-.2-.08-.27-.04-.3.08-.61.15-.91.21.35-.06.64-.08-.09.13-.18.04-.34.08-.51.12-.07-.03-.2.17-.31.28-.11.13-.22.25-.33.38-.43.5-.83.97-1.21,1.41-.19.22-.38.44-.57.66-.16.18-.32.35-.47.53-.19.2-.37.39-.57.6l-.66.83c-.9.94-2.48,2.64-4.58,4.22-1.03.76-2.28,1.51-3.33,1.69-.52.08-.87.03-1.14-.16-.3-.16-.62-.62-.87-1.19-.5-1.19-.69-2.76-.72-4.24-.04-1.5.07-2.98.23-4.34.32-2.72.87-4.93,1.22-6.18l-.04.2c.29-1.07.68-2.29,1.2-3.53.26-.62.57-1.25.91-1.81.17-.28.36-.53.53-.73.09-.1.16-.16.23-.22.02-.02.05-.02.07-.04.1,0,.33-.07.43-.09.05,0,.13,0,.15,0,.06.04.13.04.16.16.02,0,.04.22.07.38.03.17,0,.4.02.6l-.06.69-.12.73c-.42,1.99-1.26,4.05-2.23,5.95-1.93,3.82-4.44,7.03-6.51,9.06-.95.81-2.26,1.89-3.35,2.5.61-.32.44-.16-.03.11-1.65.92-1.73.85-1.78.91-.03.02-.06.04-.3.14-.24.11-.69.27-1.58.42-1.05.16-2.65.23-3.68-1.41-.52-.81-.89-1.97-1.05-3.25-.17-1.28-.19-2.67-.13-4.06.32-5.62,2.14-11.07,2.87-13.01.65-2.18,1.88-4.75,2.96-6.57l-.09.19c.16-.23.38-.64.72-1.07.17-.22.35-.48.56-.69.09-.1.18-.2.28-.3l.11-.09c.08-.06.18-.11.28-.13.12-.03.21.08.25.19.04.13.06.19.08.38.05.43.06.89.04,1.36-.05,1.89-.46,3.85-.92,5.43-.47,1.59-.99,2.81-1.26,3.43l.16-.32c-.44,1.09-.71,1.53-.94,1.9-.24.37-.46.69-.97,1.44.25-.12-.83,1.56-1.35,2.11v-.04c-.37.43-.98,1.14-1.74,1.8-.76.67-1.68,1.29-2.51,1.71l.03-.09c-.67.39-1.7.81-2.73,1.05-1.03.25-2.04.33-2.6.35-1.28.04-2.93-.12-4.65-.56-1.72-.43-3.52-1.09-5.16-1.82-.67-.39-1.33-.8-1.98-1.22-.1-.05-.21-.09-.31-.15,0,0-1.1.05-1.75.43-.63.37-.82,1.15,1.3,2.58l-.1.02c.3.15.59.31.9.45,1.07.57,1.63.7,1.52.74-.51-.22-1.01-.47-1.5-.71,1.09.55.31.21-.13.04.45.23.88.45,1.26.64.23.07-.15-.09-.32-.19.62.24,1.46.57,2.22.87,1.18.45.03.14,1.43.63,1.86.61,3.81,1.02,5.81,1.14,2,.11,4.05-.11,6-.74,1.96-.62,3.77-1.66,5.34-2.96,1.57-1.31,2.87-2.88,3.96-4.57.12-.14,0,.04-.11.25,1.3-2.06,2.19-4.01,2.87-6.08.22-.56.31-.71.39-.87-.09.16.86-2.69,1.05-5.86.05-.79.05-1.61-.03-2.42,0-.15-.07-.56-.13-.86-.04-.32-.16-.61-.23-.9-.21-.55-.46-1.03-.79-1.36-.63-.67-1.51-.95-2.05-.79-.57.02-.9.19-.94.21Z"/>
        </g>
      </g>
      <ellipse class="cls-2" cx="58.41" cy="86.27" rx="21.52" ry="35.56" transform="translate(-43.84 66.31) rotate(-44.86)"/>
    </g>
    <g>
      <path class="cls-5" d="m72.6,73.04c.31.46.94,1.14,1.51,1.82-.38-.57-.83-1.14-1.51-1.82Z"/>
      <polygon class="cls-5" points="74.13 74.87 74.14 74.88 74.12 74.85 74.13 74.87"/>
      <path class="cls-5" d="m74.91,68.85c-.17-.17-.37-.35-.57-.55.19.19.38.37.57.55Z"/>
      <path class="cls-5" d="m80.39,110.77v.21c-.74.5-.88.51-1.01.52-.13,0-.21.05-.96.41-.24.26-.9.51-1.58.69-.68.19-1.38.27-1.66.41.01-.02-.84.09-.8,0-.24.18-.88.12-1.42.19-.2.04.15.04.3.06-.42.05-.85.06-1.27.09-.5-.06-.62-.14-.08-.14-.83-.03-2.47-.11-4.51-.53-2.04-.41-4.46-1.18-6.8-2.2-2.34-1.02-4.61-2.28-6.44-3.46-1.84-1.18-3.25-2.27-4.03-2.83.33.37,1.31,1.05,1.59,1.43-.88-.52-1.18-.92-1.59-1.11-.16-.42-1.71-1.44-2.13-2.14l-.31-.09-.32-.39c-1.7-1.45-1.87-1.65-2.01-1.78-.13-.14-.23-.24-1.58-1.67-1.57-1.67-2.4-2.4-3.14-3.44.12.15.37.6-.03.15.02-.14-1.04-1.2-1.11-1.51-.37-.45-1.42-2.01-1.2-1.4-.12-.31-1.01-1.73-.4-.93-.31-.47-.59-.95-.82-1.28l.34.64c-1.03-1.61-1.43-2.58-2.13-3.61l.27.65c-.55-1-.97-1.86-1.01-2.33l.55,1.03c-.84-1.69-1.27-2.73-1.9-4.16.06.18.12.35.19.52-.43-.89-1.56-3.81-2.05-6.81-.57-3-.3-5.96-.21-6.82-.09.26-.16.52-.25.78.03-.51.09-1.01.17-1.52-.04.18.24.79.18.93.16-.78.45-2.42,1.39-4.18.89-1.78,2.54-3.59,4.64-4.74,2.09-1.18,4.57-1.65,6.63-1.73,2.07-.08,3.73.17,4.49.3,1.22.28.19.23.17.25,1.49.23.67-.03,1.93.26.34.1-.09.08-.29.05.56.1,1.05.27,1.11.24-.67-.23-.35-.29-.62-.46.55.12,1.08.29,1.62.44l-.1.07c.35.12,1,0,2.55.62,2.63,1.02,5.41,2.37,7.82,3.9-.07.03-.59-.27-1.13-.53.33.19.83.49,1.11.71-.53-.45,1.05.57.62.25,1.91.92,3.96,2.73,5.48,3.8.13-.03,1.48-.09,2.85-.1,1.36-.01,2.75.02,2.83-.07.44.43.87.87.99,1.01-.07-.15-.92-1.02-1.41-1.44l-.17.02c-1.13-.96-.2-.3-1.28-1.26.02-.14,1.03.74,1.88,1.54-.76-.74-1.49-1.51-1.89-1.7-.72-.68.17-.03-.71-.85-.67-.53-1.61-1.16-2.35-1.8h.03c-1.84-1.55-3.05-2.03-4.85-3.28l.22.09c-.62-.47-1.98-1.18-3.2-1.88.34.21.61.44-.14.06-1.4-.81-2.44-1.2-3.49-1.75l-1.1-.32c-1.32-.51-3.64-1.36-6.62-1.93-2.97-.57-6.65-.81-10.33.02-1.83.41-3.64,1.1-5.23,2.08-1.6.97-2.96,2.19-4,3.47-1.06,1.28-1.79,2.61-2.3,3.77-.52,1.16-.8,2.18-.99,2.91l.05-.23c-.6,2.25-.85,5.15-.54,8.23.31,3.08,1.14,6.34,2.35,9.41,1.2,3.09,2.77,5.99,4.39,8.52,1.64,2.52,3.34,4.67,4.78,6.31.78,1.11,2.08,2.46,3.05,3.49-.51-.6-.27-.46.15-.01,1.53,1.51,1.6,1.54,1.68,1.57.08.03.14.09,1.79,1.5,1.9,1.61,6.65,5.41,12.11,7.98,2.71,1.31,5.56,2.34,8.05,2.94,2.49.62,4.6.82,5.77.89,2.49-.03,5.7-.25,8.08-1.27l-.23.12c.64-.23,2.04-.76,3.66-1.8.81-.51,1.64-1.19,2.44-1.97.78-.8,1.54-1.7,2.16-2.7,1.27-1.98,2-4.23,2.35-6.11.36-1.88.35-3.4.35-4.17,0,.14-.02.28-.03.41-.04-1.33-.06-1.88-.07-2.41,0-.5.02-.94-.09-1.98-.12.29-.59-1.91-.82-2.72l.04.02c-.3-1.25-1.28-3.97-2.11-5.87l.12.04c-.72-1.58-2.15-4.51-2.8-5.56-1.33-2.5-3.7-6.21-6.3-8.97-.46-.68-.95-1.34-1.43-2l-.27-.24s-1.29-.13-2.18.27c-.91.41-1.41,1.31-.07,3.25h-.12s.63.69.63.69c.7.86,1.1,1.19.99,1.19-.33-.38-.64-.78-.98-1.15.72.85.17.3-.16.02.31.35.59.7.8,1,.17.14-.07-.15-.17-.29.41.43,1.03,1,1.44,1.61.7.9-.06.14.73,1.2,4.1,5.59,7.15,11.83,8.12,18.49-.02.16-.04-.02-.08-.21.31,1.99.34,3.77.18,5.52-.12.48-.19.6-.25.73.06-.15-.24,2.3-1.4,4.33-.56,1.02-1.31,1.92-1.94,2.54-.64.62-1.16.94-1.18.97Z"/>
    </g>
    <path class="cls-5" d="m100.43,144.37s-.06-.08-.09-.13c.03.05.06.09.09.13Z"/>
    <g>
      <path class="cls-5" d="m91.75,75.17s.03-.05.03-.07c-.03.02-.04.05-.03.07Z"/>
      <polygon class="cls-5" points="91.78 75.09 91.78 75.09 91.78 75.09 91.78 75.09"/>
      <path class="cls-5" d="m89.79,70.27s0,.01,0,.02c0,0,0-.01,0-.02Z"/>
      <path class="cls-5" d="m91.73,73.84h-.05c0-.06.06-.02.04-.08-.08-.01,0-.09-.04-.11,0,0,0-.03.03-.03-.04,0-.01-.03-.02-.04-.01,0-.01,0-.02.01l-.02-.04s.03-.02.04,0c0-.11-.02-.61-.05-.72-.03.02,0,.05-.05.07-.03-.03,0-.04-.03-.05.07-.02,0-.07.08-.1h-.04s.02-.02.02-.02c-.06-.13-.02-.03-.03-.14-.01-.07-.07-.09-.06-.13,0,0-.02.02-.03,0,.03,0-.03-.04,0-.06,0-.02,0-.07-.05-.05.02-.01.03-.06.05-.04,0-.02,0-.03,0-.04v.02c-.02-.06,0-.09-.04-.12l-.02.02s-.01-.06.03-.08l.02.03c0-.06-.01-.09-.05-.13v.02c-.05-.05-.13-.36-.19-.4l-.03.03-.04-.04s.12,0,.11.01c-.02-.1-.1-.62-.09-.71.02-.04.06-.01.06-.01-.02-.04-.04-.02-.04-.05,0-.01.03,0,.04,0,0-.02,0-.03-.01-.03-.01.02-.06.02-.09.03v-.05s.03,0,.03,0c0-.01-.08-.02-.07-.07,0-.08-.02-.17-.02-.26.02,0,.03.02.04.03,0-.01,0-.03,0-.04-.03.02-.02-.03-.04-.02-.08-.05-.02-.14-.08-.19-.06,0-1.11.01-1.18.02,0-.02,0-.03,0-.04-.02,0-.02.04,0,.06h.04s-.02.01-.02.05c-.03,0-.04-.03-.05-.06,0,.03-.02.06.02.07-.01.03-.04,0-.05.04.01.02.05.05.03.08h0c-.03.07.06.09.03.15h-.01s.01.06,0,.1c0-.01.03-.02.03,0-.02.05,0,.07-.01.11l.04.03c.01.15.13.73.15.88h0c.04.22.1.69.17.92-.03.04-.01.09-.02.13.01-.02.03-.02.04,0,0,.12.02,0,.05.12.05.13.07.65.06.78.05.06.03.14.07.2h-.01c.03.06.03.45.05.53h0c.04.05-.02.05-.03.11.05-.01.09.04.1.06h-.01s.07.1.08.16h-.03s.03.13.04.17c0,.08-.04.2.01.3l-.07.08h0s1.01,0,1.2-.16h.03s0-.03,0-.03c.01-.03-.02-.04,0-.05v.04s.02-.01.04,0c0-.01,0-.03.01-.04-.01,0-.01,0-.02.01-.01-.02-.04-.04-.03-.06,0-.03.05,0,.05-.05,0-.21,0-.41-.02-.61.01,0,.01,0,.02,0-.02-.06-.02-.12-.04-.17.01-.02.03-.02.04-.03-.02.01-.06-.31-.06-.31Z"/>
    </g>
    <g>
      <path class="cls-5" d="m102.44,83.63s-.04.08-.05.12c.03-.03.05-.07.05-.12Z"/>
      <polygon class="cls-5" points="102.39 83.76 102.39 83.76 102.39 83.75 102.39 83.76"/>
      <path class="cls-5" d="m95.91,89.83h.05s-.04,0-.05,0Z"/>
      <path class="cls-5" d="m101.79,85.8l.04.03c-.04.09-.06,0-.1.09.04.07-.1.12-.08.17,0,0-.03.03-.05.02.03.03-.02.04-.03.07,0,.02.01,0,.03,0l-.03.06s-.05,0-.04-.02c-.08.16-.71.72-.87.82.04,0,.07-.04.12-.02-.03.05-.07.04-.07.07-.06-.05-.1.05-.17.02v.04s-.02,0-.02,0c-.16.16-.02.06-.2.15-.1.06-.12.14-.19.15,0,0,.04,0,.02.03-.02-.03-.06.06-.09.04-.02.02-.11.06-.06.09-.03-.01-.11.02-.07-.02-.03.01-.05.02-.07.04h.04c-.09.05-.16.03-.2.09h.04c-.06.03-.1.05-.14.02l.05-.04c-.09.04-.15.07-.22.12h.03c-.07.09-.61.29-.69.38l.06.02-.08.06s0-.13.02-.12c-.17.07-1.14.29-1.32.28-.07-.01-.02-.06-.02-.06-.08.02-.03.04-.11.05-.02,0,0-.03.01-.04-.03,0-.06,0-.06.02.04,0,.03.06.05.08h-.09s0-.02,0-.02c-.02,0-.04.08-.14.08-.23.01-.31.02-.49.03,0-.02.03-.03.07-.04-.02,0-.05,0-.07,0,.04.03-.06.02-.03.04-.11.08-.26.01-.36.06,0,.06-.23,1.1-.24,1.17-.04,0-.08,0-.09-.01,0,.02.09.03.13.02v-.04c.09-.01.03.02.11.02,0,.03-.07.04-.14.04.06,0,.12.03.15,0,.06.01,0,.04.06.06.05,0,.11-.04.17-.03h0c.14.04.21-.05.34-.02h-.01s.13,0,.21.01c-.02,0-.04-.03,0-.04.09.01.15,0,.22.01l.06-.04c.32,0,1.56-.27,1.86-.38h-.01c.47-.14,1.44-.48,1.86-.81.09-.01.18-.07.26-.1-.05.01-.05-.02-.01-.03.21-.15,0-.03.21-.19.24-.17,1.14-.93,1.27-1.18.05-.15.18-.28.24-.41v.02c.08-.13.49-.91.51-1.08v.02c0-.16.04-.12.09-.24-.06,0-.05-.13-.04-.18h.01c.01-.07,0-.25.03-.37h.03c.03-.31.03-.3.03-.35.03-.16.1-.42.07-.64l.09-.14v-.02s-.25-.06-.53-.08c-.28-.02-.58,0-.7.12h-.03s0,.04,0,.04c-.02.06.01.09-.02.08v-.08c0,.06-.02.02-.03,0,0,.02-.01.05-.02.07.01.01.01,0,.02-.02,0,.03.03.08.01.11,0,.06-.05,0-.06.07-.03.17-.05.36-.08.53-.06.16-.11.33-.14.5-.01,0-.01,0-.01-.02-.02.1-.03.2-.06.29-.02.02-.04.02-.06.02.03,0-.2.49-.2.49Z"/>
    </g>
    <g>
      <path class="cls-5" d="m41.81,103.06c.35.47,1.06,1.17,1.74,1.83-.46-.57-.99-1.14-1.74-1.83Z"/>
      <polygon class="cls-5" points="43.57 104.9 43.58 104.91 43.56 104.89 43.57 104.9"/>
      <path class="cls-5" d="m44.14,98.88c-.15-.16-.32-.34-.49-.52.16.18.33.36.49.52Z"/>
      <path class="cls-5" d="m86.23,110.71c-.01-.08-.02-.15-.04-.23.66-1.07.8-1.21.92-1.33.06-.06.12-.11.23-.28.11-.17.32-.44.51-.99.05-.48.47-1.35.77-2.24.26-.9.52-1.79.55-2.18.04.02.17-1.07.24-.99-.09-.35.11-1.13.15-1.82-.03-.25-.04.18-.12.36.06-.53,0-1.04,0-1.56.05-.61.13-.76.14-.1.05-1.02,0-3.02-.44-5.41-.35-2.42-1.25-5.15-2.27-7.83-1.13-2.62-2.41-5.18-3.72-7.18-.32-.51-.62-.99-.91-1.44-.3-.45-.6-.84-.87-1.21-.54-.74-.98-1.34-1.29-1.76.23.49,1.04,1.49,1.2,1.98-.72-.84-.92-1.33-1.28-1.66-.05-.49-1.48-1.9-1.82-2.7l-.3-.16c-.1-.16-.19-.32-.29-.47-1.7-1.71-1.89-1.91-2.04-2.06-.14-.15-.19-.3-1.74-1.77-1.79-1.72-2.88-2.25-3.87-3.2.16.13.52.54.01.16,0-.18-1.39-.98-1.58-1.25-.52-.36-2.15-1.57-1.68-1.03-.23-.27-1.75-1.26-.8-.74-.51-.33-1-.67-1.4-.88l.64.46c-1.73-1.13-2.72-1.71-3.96-2.25l.64.42c-1.08-.61-2.04-1.01-2.42-1.36l1.19.49c-.94-.43-1.7-.77-2.42-1.09-.72-.32-1.45-.52-2.27-.8l.58.22c-1.04-.34-4.33-1.41-7.77-1.82-.87-.07-1.73-.13-2.56-.19-.83.02-1.63.05-2.35.07-1.44.15-2.57.35-3.07.49.32-.04.65,0,.97-.02-.29.06-.59.09-.88.17l-.87.27c.2-.05.77-.61.95-.6-.48.12-1.2.3-2.12.53-.46.09-.94.34-1.47.54-.26.11-.53.22-.81.34-.14.06-.28.12-.42.18-.14.08-.27.16-.41.24-2.32,1.14-4.69,3.39-6.18,6.09-1.52,2.71-2.1,5.72-2.28,8.14.01,1.21-.08,2.3.03,3.18.07.88.13,1.56.17,2,.16,1.4-.16.28-.19.27.37,1.68.27.7.53,2.13.05.39-.11-.06-.17-.28.13.63.21,1.21.3,1.24-.16-.78.09-.49.12-.84.09.62.3,1.19.45,1.79l-.12-.05c.05.2.19.43.37.84.09.2.19.44.29.75.12.29.26.64.4,1.07.94,2.9,2.48,5.81,4.01,8.42-.06-.02-.47-.51-.79-1.07.18.37.53.88.69,1.22-.3-.67.74,1.04.47.53.35.44.69.92,1.03,1.43.36.49.73,1,1.1,1.49.36.5.71,1,1.06,1.46.37.44.73.85,1.07,1.2.14,0,1.49.23,2.83.35,1.37.11,2.67.15,2.77.07.38.41.76.83.86.97-.06-.15-.79-.98-1.22-1.38l-.17.02c-.96-.96-.16-.28-1.06-1.25.02-.11.88.75,1.62,1.53-.64-.72-1.25-1.46-1.59-1.68-.54-.73.17-.01-.49-.88-.5-.58-1.28-1.27-1.73-2.04h.02c-.58-.91-1.1-1.55-1.61-2.18-.46-.65-.91-1.29-1.39-2.15l.14.16c-.35-.6-1.03-1.78-1.58-2.9.15.32.23.63-.14-.02-.58-1.31-1.02-2.18-1.36-3.17l-.44-.9c-.19-.59-.55-1.37-.79-2.35-.14-.49-.29-1.01-.45-1.57-.14-.56-.23-1.17-.37-1.79-.46-2.5-.63-5.51.02-8.26.61-2.76,2.11-5.12,3.89-6.57.22-.18.42-.38.64-.55.24-.14.47-.28.69-.41.45-.27.85-.56,1.3-.7.43-.18.82-.34,1.16-.48.36-.13.7-.18.97-.26l-.17.06c3.31-1.05,9.19-.77,14.64,1.45,5.51,2.04,10.47,5.57,13.55,8.12.45.43.99.94,1.51,1.47.54.52,1.08,1.04,1.54,1.49-.49-.53-.26-.41.15-.02,2.68,2.91.27.11,2.97,3.07,1.55,1.69,5.04,6.13,7.24,11.13,1.18,2.46,1.95,5.05,2.45,7.23.45,2.19.56,3.98.56,4.95.27,2.1-.27,4.63-.86,6.48l.04-.19c-.1.24-.25.63-.44,1.11-.08.25-.23.5-.4.77-.16.27-.34.55-.52.86-.16.32-.43.59-.68.88-.25.29-.51.59-.78.9-.32.26-.64.53-.97.8-.17.13-.32.28-.49.41l-.56.32c-1.43.98-3.2,1.42-4.65,1.77-.75.12-1.44.17-2.01.25-.57.06-1.05.02-1.37.04l.34.02c-2.22.13-1.92-.16-3.67-.34.21.26-1.73-.04-2.46-.17l.04-.03c-.56-.08-1.45-.34-2.45-.56-1-.23-2.05-.65-2.95-.95l.11-.06c-.76-.23-1.79-.73-2.78-1.17-.97-.48-1.87-1.01-2.37-1.28-2.25-1.34-5.52-3.73-8.22-5.98-.52-.55-.98-1.17-1.48-1.74l-.26-.21s-1.24-.02-2.15.39c-.9.41-1.46,1.29.11,3.26l-.12.02.72.66c.84.83,1.36,1.07,1.22,1.1-.4-.36-.84-.68-1.22-1.06.86.81.2.31-.16.03.35.36.72.66,1,.94.2.12-.11-.14-.23-.28.51.38,1.25.88,1.82,1.41.94.77-.06.2,1.08,1.06,2.94,2.33,6.13,4.28,9.51,5.91,3.39,1.6,7.02,2.84,10.96,3.35.18.06-.04.03-.27.03,1.2.08,2.31.28,3.44.22.56,0,1.11-.01,1.67-.02.55-.03,1.11-.13,1.67-.2.63-.03.81,0,1,.02-.21-.02,2.96-.49,5.88-2.14,1.48-.78,2.76-1.92,3.69-2.81.84-.98,1.41-1.64,1.45-1.69Z"/>
    </g>
    <g>
      <polygon class="cls-8" points="121.9 90.49 164.75 167.06 106.12 167.06 106.12 150.45 112.77 151.37 112.77 126.39 106.13 124.42 106.14 99.94 121.9 90.49"/>
      <polygon class="cls-9" points="106.12 167.06 164.75 167.06 112.77 159.36 112.77 151.37 106.12 150.26 106.12 167.06"/>
      <path class="cls-8" d="m112.77,126.39l25.99,5.07-16.86-40.97s24.31,7.97,49.86,41.79c12.82,16.97,8.43,34.78-7.02,34.78l-51.97-7.7v-32.97Z"/>
      <g>
        <path class="cls-5" d="m106.09,99.55c-.03.11-.03.31-.04.5.03-.14.04-.3.04-.5Z"/>
        <polygon class="cls-5" points="106.05 100.05 106.05 100.06 106.05 100.05 106.05 100.05"/>
        <path class="cls-5" d="m127.57,93.49s-.08.06-.12.09c.04-.03.07-.05.12-.09Z"/>
        <path class="cls-5" d="m105.96,109.92h.05c0,.84-.06.33-.05,1.11.02.04.03.13.03.25.35-.27.85-.59,1.03-.76,0,.01.3-.21.28-.17.1-.12.32-.25.52-.41.07-.06-.06.03-.11.05l.44-.34c.18-.12.24-.13.05.02.33-.24,1.27-.91,2.2-1.59.89-.66,1.77-1.3,2.11-1.56-.1.04-.29.2-.4.22.16-.15.26-.18.32-.26.11,0,.39-.27.57-.31l.03-.07.1-.04c.74-.6.16-.15.84-.64.39-.29.54-.48.77-.62-.03.02-.13.07-.04-.02.04.02.25-.22.33-.23.1-.08.42-.31.28-.27.07-.02.36-.23.2-.08.1-.07.2-.13.26-.19l-.13.08c.32-.25.52-.35.71-.54l-.13.07c.19-.15.36-.27.46-.29l-.19.16c.32-.24.52-.39.77-.61l-.1.07c.32-.29,2.09-1.66,2.38-1.94l-.17.08.25-.23s-.06.19-.09.2c.58-.44,3.61-2.71,4.16-3.09.23-.14.07.02.08.03.26-.21.09-.12.32-.28.07-.04,0,.03-.03.06.1-.08.2-.13.19-.15-.13.08-.11,0-.18.02l.29-.21v.03c.07-.05.12-.19.42-.38.5-.37,1-.73,1.49-1.09,0,.02-.09.1-.19.19.07-.05.16-.12.23-.16-.14.06.19-.17.09-.11.31-.32.81-.61,1.09-.88-.01-.07.02-1.38-.03-1.44.1-.07.2-.14.23-.16-.04,0-.23.14-.33.22v.05c-.22.18-.06.02-.29.19-.03-.02.17-.18.36-.32-.17.12-.35.22-.39.3-.16.1,0-.05-.2.08-.13.11-.28.26-.45.36h0c-.39.24-.54.46-.9.68l.03-.04c-.13.07-.35.27-.58.41.07-.04.13-.06,0,.04-.26.17-.42.31-.62.43l-.16.16c-.87.65-4.3,3.22-5.17,3.88l.03-.03c-1.33,1-4.07,3.02-5.42,4.08-.23.13-.52.36-.75.51.13-.08.1-.03,0,.04-.68.5-.03.05-.71.57-.77.61-3.82,2.82-4.53,3.31-.09.13-.18.15-.29.27l.02-.03s-.01.01-.03.02c0-.46,0-2.14.01-2.54v.08c-.04-.5.02-.43.03-.83-.05.05-.08-.38-.09-.54h.01c0-.24-.06-.8-.06-1.2l.03.02c-.03-.34-.02-.98-.02-1.22.01-.56.06-1.42.02-2.16l.08-.48v-.07s-1.01-.78-1.22.21l-.03-.02v.19c-.01.23.02.34,0,.33v-.32c0,.23-.02.07-.04-.02,0,.1,0,.19-.02.27.01.05.01-.03.02-.07.01.13.04.3.02.46,0,.24-.05.02-.05.3-.02,1.48-.06,2.91-.05,4.4-.01.03-.01,0-.02-.05,0,.47.01.82.02,1.26-.01.11-.03.14-.04.18.01-.03.02.53.02,1.11,0,.97,0,1.92,0,2Z"/>
      </g>
      <g>
        <path class="cls-5" d="m112.8,127.33c.13.06.37.11.59.17-.17-.07-.35-.12-.59-.17Z"/>
        <polygon class="cls-5" points="113.4 127.5 113.4 127.5 113.39 127.49 113.4 127.5"/>
        <path class="cls-5" d="m119.14,115.47s.08.09.13.14c-.04-.05-.08-.08-.13-.14Z"/>
        <path class="cls-5" d="m124.27,129.92l.05-.04c.53.11.14.09.64.19.21-.03.82.18,1,.18,0,0,.24.06.22.08.08-.02.25.04.41.07.06,0-.04-.02-.08-.04l.35.06c.13.04.16.07.01.04.46.1,1.78.4,3.1.7,1.6.35,3.19.69,3.8.82-.26-.09-.86-.19-1.08-.29.49.08.73.17.94.18.24.12,1.09.25,1.58.43l.08-.02.3.09c1.75.34.97.18,1.7.35-.1-.11-.26-.29-.52-.56-.83-.88-1.3-1.3-1.7-1.76.07.07.2.25-.02.03.02-.04-.56-.56-.61-.67-.1-.11-.29-.3-.47-.49-.09-.09-.13-.13-.15-.14-.02-.01-.03,0,0,.03-.04-.08-.33-.41-.14-.23-.1-.11-.19-.22-.27-.29l.12.15c-.35-.36-.51-.59-.76-.79l.11.15c-.21-.22-.38-.4-.43-.52l.22.21c-.34-.36-.55-.58-.85-.86l.1.11c-.4-.35-2.31-2.34-2.68-2.66l.13.19-.31-.28s.23.06.25.1c-.61-.65-3.82-4.04-4.36-4.66-.21-.26,0-.08,0-.09-.29-.29-.15-.1-.38-.36-.06-.07.03,0,.07.03-.11-.11-.19-.22-.21-.22.12.15.03.12.06.2l-.3-.33h.03c-.07-.08-.23-.13-.52-.46-.52-.56-1.04-1.12-1.55-1.67.02,0,.13.1.25.21-.07-.07-.17-.18-.23-.26.1.15-.23-.21-.14-.1-.42-.35-.85-.9-1.22-1.22-.08.01-1.5,0-1.56.05-.1-.11-.2-.22-.23-.26.01.04.21.26.32.37h.05c.25.24.04.07.28.32-.01.04-.24-.19-.43-.4.17.19.33.39.42.44.15.18-.05,0,.14.23.15.14.35.32.5.5h0c.37.44.64.61.97,1.01l-.05-.03c.11.15.38.4.59.65-.06-.07-.1-.15.04,0,.25.29.44.47.61.69l.21.17c.92.97,4.54,4.81,5.46,5.78l-.04-.03c.7.75,1.77,1.88,2.85,3.02.54.57,1.08,1.14,1.58,1.67.12.13.24.25.36.37l.06.06s.09.08.13.12c-.02.02.04.07.05.1h0s.08.04.1.06h0c-.21-.05.05.03-.16,0-.08-.01-.13-.02-.39-.07-.61-.13-1.31-.29-2.02-.44-1.39-.31-2.77-.63-3.32-.75-.57-.07-1.27-.26-1.83-.35h.06c-.65-.14-3.91-.85-4.64-1l.09.03c-.61-.1-.51-.13-.99-.25.05.07-.47-.02-.67-.05h0c-.28-.06-1.05-.19-1.47-.26l.03-.02c-.41-.06-1.18-.23-1.47-.29-.67-.16-1.69-.43-2.6-.58l-.56-.21h-.09s-1.14.77,0,1.23l-.02.02.24.05c.28.07.42.07.39.09l-.38-.09c.28.07.08.04-.03.03.1.03.19.05.32.08.06,0-.04-.02-.08-.04.15.02.37.04.55.09.29.06,0,.05.35.13,1.78.4,3.49.81,5.29,1.19.04.02-.01,0-.06,0,.56.11,1,.2,1.52.3.13.04.17.07.21.09-.04-.02.64.12,1.34.27.7.15,1.38.3,1.43.31Z"/>
      </g>
      <g>
        <g>
          <path class="cls-5" d="m77.17,115.71c-.04.16.05.33.13.5.02-.18-.02-.33-.13-.5Z"/>
          <polygon class="cls-5" points="77.3 116.21 77.31 116.22 77.3 116.21 77.3 116.21"/>
          <path class="cls-5" d="m100.43,144.37s-.06-.08-.09-.13c.03.05.06.09.09.13Z"/>
          <path class="cls-5" d="m87.21,124.31l-5.92-.89c-.35-.56-.82-1.32-.85-1.26.02-.05.06-.11.04-.23-.25-.32-.44-.67-.72-1.03.04.03.06.06.08,0-.79-1.26-1.43-2.54-2.12-3.84-.13-.24.12-.14,0-.35-.04-.16-.21-.25-.31-.34,0,.04.04.11-.02.1-.01-.08-.05-.17-.09-.26.1.05.23.16.14-.06l.15.28c.1-.04-.06-.07-.14-.3l-.11-.16.1-.04c.16-1.24,3.67-2.47,3.67-2.47l.06.05v.57c.49.56.78,1.39,1.03,1.88.14.2.42.77.7,1l-.1.04c.23.33.66.72.82.91h-.04c.1.15.41.45.55.31.15.37-.05.4.31.77l-.02-.08c.35.46,1.65,2.91,1.96,3.3l-.06-.02c.3.3.56,1.79.88,2.11Z"/>
        </g>
        <g>
          <path class="cls-5" d="m83.48,123.56s.09.05.15.06c-.04-.04-.09-.06-.15-.06Z"/>
          <polygon class="cls-5" points="83.63 123.62 83.63 123.62 83.63 123.62 83.63 123.62"/>
          <path class="cls-5" d="m95.45,124.06s-.03,0-.05,0c.02,0,.03,0,.05,0Z"/>
          <path class="cls-5" d="m86.51,124.17l.02-.05c.14.02.03.07.16.07.06-.07.22.04.27.01,0,0,.06.02.05.04.03-.04.07,0,.11,0,.02,0,0-.01-.02-.03h.09s.04.04,0,.04c.24.05,1.4.28,1.66.3-.03-.04-.11-.03-.14-.08.07-.02.1.03.14,0,.02.07.15.04.19.12l.03-.04.03.03c.31,0,.07,0,.34.04.16.02.24-.02.32,0-.01,0-.04-.03,0-.04,0,.04.11,0,.13.03.04,0,.17.03.13-.03.02.03.13.06.06.07.04,0,.07.02.1.01l-.05-.02c.13.01.2.06.29.03l-.05-.03c.08,0,.14.02.17.07h-.08c.13.02.21.03.32.02h-.04c.14-.03.87.04,1,0l-.05-.05h.11s-.07.1-.08.08c.23.03,1.45.2,1.66.26.08.03,0,.06,0,.07.11,0,.05-.03.14-.01.02.01,0,.03-.02.03.04,0,.07.02.08,0-.05-.02-.02-.06-.04-.1l.11.02v.03s.07-.07.18-.03c.19.04.4.07.59.1,0,.02-.05.02-.09.02.03,0,.07,0,.09.02-.04-.04.08,0,.05-.03.15-.05.32.05.46.02.02-.06.44-1.04.45-1.12.04,0,.08.01.09.02,0-.02-.08-.04-.12-.04v.04c-.11,0-.03-.03-.12-.04,0-.03.08-.03.16-.02-.07-.01-.13-.05-.16-.02-.06-.02.01-.04-.06-.07-.05,0-.13.02-.19,0h0c-.14-.06-.24,0-.37-.05h.02s-.14-.02-.23-.06c.02.01.04.04-.01.03-.1-.04-.17-.03-.24-.06l-.08.02c-.35-.06-1.72-.23-2.07-.28h.01c-.53-.07-1.62-.25-2.18-.29-.08-.05-.2-.06-.29-.08.05.02.03.04-.01.03-.27-.05-.02.02-.3-.01-.32-.02-1.52-.24-1.79-.32-.16.02-.34-.04-.49-.04h.02c-.16-.02-1.05-.2-1.23-.21h.02c-.16.01-.13-.03-.26-.07,0,.06-.13.06-.19.06h0c-.08-.01-.27,0-.4-.01v-.03c-.1.01-.31-.03-.38-.04-.18-.04-.44-.13-.69-.13l-.14-.11h-.02s-.41.95-.12,1.22v.03s.05,0,.05,0c.07.03.11,0,.1.03l-.1-.02c.07.02.02.03-.01.04.03,0,.06.02.08.03.02,0,0-.01-.02-.02.04,0,.1-.02.15,0,.08.01,0,.05.09.06.47.1.92.2,1.4.27,0,.01,0,.01-.02.01.15.01.27.04.41.04.03.02.04.04.05.05-.02-.03.73.09.74.1Z"/>
        </g>
        <g>
          <path class="cls-5" d="m78.41,129.61s.09.05.15.06c-.04-.04-.09-.06-.15-.06Z"/>
          <polygon class="cls-5" points="78.56 129.68 78.57 129.68 78.56 129.68 78.56 129.68"/>
          <path class="cls-5" d="m90.03,129.95s-.03,0-.05,0c.02,0,.03,0,.05,0Z"/>
          <path class="cls-5" d="m81.36,130.19l.02-.05c.14.02.03.07.16.07.06-.07.21.04.26,0,0,0,.06.02.05.04.03-.04.07,0,.11,0,.02,0,0-.01-.02-.03h.09s.04.04,0,.04c.23.05,1.36.26,1.61.27-.03-.03-.11-.03-.13-.08.07-.02.1.02.13,0,.02.07.14.04.18.12l.03-.04.03.03c.3,0,.07-.01.33.04.15.02.23-.03.31,0-.01,0-.04-.03,0-.04,0,.04.11,0,.12.03.04,0,.16.02.13-.03.02.03.13.05.06.06.04,0,.07.02.1.01l-.05-.02c.13.01.19.06.28.03l-.04-.03c.08,0,.14.01.16.07h-.08c.13.02.2.03.31.02h-.04c.14-.03.84.03.97-.01l-.05-.05.11-.02s-.07.11-.08.1c.23.03,1.41.18,1.61.23.08.03,0,.06,0,.07.1,0,.05-.03.14-.02.02.01,0,.03-.02.03.04,0,.07.02.08,0-.05-.02-.02-.06-.03-.1l.11.02v.03s.07-.07.17-.04c.18.04.39.06.57.09,0,.02-.05.02-.09.03.02,0,.06,0,.08.02-.04-.04.08,0,.05-.03.15-.05.31.04.44.01.02-.06.42-1.05.43-1.12.04,0,.07.01.08.02,0-.02-.08-.04-.12-.03v.04c-.1,0-.03-.03-.12-.04,0-.03.08-.03.15-.02-.06-.01-.12-.05-.16-.01-.06-.02.01-.04-.06-.06-.05,0-.13.02-.18,0h0c-.14-.06-.23.01-.36-.04h.02s-.14-.02-.22-.06c.02.01.04.04-.01.03-.09-.04-.16-.02-.23-.06l-.07.02c-.34-.06-1.67-.21-2.01-.25h.01c-.52-.06-1.58-.22-2.12-.26-.08-.04-.19-.05-.28-.08.05.02.03.04-.01.03-.26-.04-.02.02-.29,0-.31-.02-1.47-.22-1.74-.29-.15.03-.33-.04-.48-.03h.02c-.16-.01-1.02-.19-1.2-.2h.02c-.16.02-.13-.03-.25-.07,0,.06-.13.07-.18.06h0c-.08-.01-.26,0-.39,0v-.03c-.1.02-.3-.03-.37-.04-.17-.04-.43-.13-.67-.12l-.14-.1h-.02s-.39.96-.11,1.22v.03s.05,0,.05,0c.07.02.11,0,.1.02l-.1-.02c.07.02.02.03-.01.04.03,0,.06.02.08.03.02,0,0-.01-.02-.02.04,0,.1-.02.15,0,.07.01,0,.05.08.06.46.09.9.19,1.36.25,0,.01,0,.01-.02.01.14,0,.27.03.39.04.03.02.04.04.05.05-.02-.03.71.08.72.09Z"/>
        </g>
        <g>
          <path class="cls-5" d="m79.86,134.98s.08.05.13.06c-.03-.04-.07-.06-.13-.06Z"/>
          <polygon class="cls-5" points="79.99 135.04 79.99 135.04 79.99 135.04 79.99 135.04"/>
          <path class="cls-5" d="m90.03,135.11s-.03,0-.04,0c.01,0,.03,0,.04,0Z"/>
          <path class="cls-5" d="m82.43,135.5l.02-.05c.12.02.03.06.14.07.05-.07.18.04.23,0,0,0,.05.02.05.04.02-.04.06,0,.09,0,.01,0,0-.01-.01-.03h.08s.03.04,0,.04c.2.04,1.18.23,1.41.24-.02-.03-.1-.02-.11-.08.06-.02.08.02.11,0,.01.07.13.04.16.11l.02-.04.03.03c.26,0,.06-.01.29.03.13.01.2-.03.27,0-.01,0-.04-.03,0-.04,0,.04.09-.01.11.03.03,0,.14.02.11-.03.01.03.11.05.05.06.03,0,.06.02.09.01l-.04-.02c.11,0,.17.06.24.02l-.04-.03c.07,0,.12.01.14.06h-.07c.11.02.18.03.27.01h-.03c.12-.04.74.02.85-.03l-.04-.04.1-.02s-.06.11-.07.1c.2.03,1.23.15,1.41.2.07.03,0,.06,0,.07.09,0,.04-.03.12-.02.02,0,0,.03-.02.03.03,0,.06.02.07,0-.04-.02-.02-.06-.03-.09l.1.02v.03s.06-.07.15-.04c.16.04.34.05.5.08,0,.02-.04.02-.08.03.02,0,.06,0,.07.02-.03-.04.07-.01.04-.03.13-.05.27.03.39,0,.02-.06.39-1.05.4-1.13.03,0,.06.01.07.02,0-.02-.07-.04-.1-.03v.04c-.09,0-.03-.03-.1-.04,0-.03.07-.03.14-.02-.06-.01-.11-.04-.14-.01-.05-.02.01-.04-.05-.06-.05,0-.11.03-.16,0h0c-.12-.06-.2.02-.31-.04h.01s-.12-.02-.19-.05c.02,0,.03.04-.01.03-.08-.03-.14-.02-.2-.06l-.06.02c-.29-.05-1.46-.18-1.76-.22h.01c-.45-.05-1.38-.19-1.85-.22-.07-.04-.17-.05-.24-.07.04.02.02.04-.01.03-.23-.04-.02.02-.25,0-.27-.01-1.29-.2-1.52-.26-.13.03-.29-.03-.42-.02h.01c-.14-.01-.89-.17-1.05-.17h.02c-.14.02-.11-.03-.22-.06,0,.05-.11.07-.16.06h0c-.07-.01-.23.01-.34,0v-.03c-.09.02-.26-.02-.33-.03-.15-.03-.38-.12-.58-.11l-.12-.1h-.02s-.36.97-.12,1.22v.03s.04,0,.04,0c.06.02.1,0,.09.02l-.09-.02c.06.02.02.03-.01.04.03,0,.05.01.07.03.01,0,0-.01-.02-.02.04,0,.09-.02.13,0,.06.01,0,.05.07.06.4.08.78.17,1.19.23,0,.01,0,.01-.02.01.12,0,.23.03.35.03.03.02.03.04.04.05-.01-.03.62.07.63.07Z"/>
        </g>
        <g>
          <path class="cls-5" d="m82.9,141.42s.08.05.13.06c-.03-.04-.07-.05-.13-.06Z"/>
          <polygon class="cls-5" points="83.03 141.48 83.03 141.48 83.03 141.48 83.03 141.48"/>
          <path class="cls-5" d="m92.89,141.49s-.03,0-.04,0c.01,0,.03,0,.04,0Z"/>
          <path class="cls-5" d="m85.42,141.92l.02-.05c.12.02.03.06.14.07.05-.07.18.03.22,0,0,0,.05.02.04.04.02-.04.06,0,.09,0,.01,0,0-.01-.01-.03h.08s.03.04,0,.04c.2.04,1.16.22,1.38.23-.02-.03-.09-.02-.11-.07.06-.02.08.02.11,0,.01.07.12.04.16.11l.02-.04.03.03c.26,0,.06-.01.28.03.13.01.2-.03.27,0-.01,0-.04-.03,0-.04,0,.04.09-.01.1.03.03,0,.14.02.11-.03.01.03.11.05.05.06.03,0,.06.02.09.01l-.04-.02c.11,0,.16.05.24.02l-.04-.02c.07,0,.12.01.14.06h-.07c.11.02.17.03.27.01h-.03c.12-.04.72.01.84-.03l-.04-.04.09-.02s-.06.11-.07.1c.19.02,1.21.14,1.38.19.07.03,0,.06,0,.07.09,0,.04-.03.12-.02.02,0,0,.03-.02.03.03,0,.06.02.07,0-.04-.02-.02-.06-.03-.09l.1.02v.03s.06-.07.15-.04c.16.04.33.05.49.08,0,.02-.04.02-.08.03.02,0,.05,0,.07.02-.03-.04.07-.01.04-.03.13-.05.27.03.38,0,.02-.06.38-1.06.39-1.13.03,0,.06.01.07.02,0-.02-.07-.04-.1-.03v.04c-.09,0-.03-.03-.1-.03,0-.03.07-.03.13-.02-.05-.01-.11-.04-.13-.01-.05-.02.01-.04-.05-.06-.05,0-.11.03-.16,0h0c-.12-.06-.2.02-.31-.03h.01s-.12-.02-.19-.05c.02,0,.03.04-.01.03-.08-.03-.14-.02-.2-.05l-.06.02c-.29-.05-1.44-.17-1.73-.21h.01c-.44-.05-1.35-.19-1.82-.21-.07-.04-.16-.05-.24-.07.04.02.02.04-.01.03-.22-.04-.02.02-.25,0-.27,0-1.26-.19-1.49-.25-.13.03-.28-.03-.41-.02h.01c-.13-.01-.87-.16-1.03-.17h.02c-.14.02-.11-.03-.21-.06,0,.05-.11.07-.16.07h0c-.07-.01-.22.01-.33,0v-.03c-.09.02-.25-.02-.32-.03-.15-.03-.37-.12-.57-.11l-.12-.1h-.02s-.35.97-.12,1.22v.03s.04,0,.04,0c.06.02.09,0,.09.02l-.08-.02c.06.02.02.03-.01.04.03,0,.05.01.07.03.01,0,0-.01-.02-.02.04,0,.09-.03.12,0,.06.01,0,.05.07.06.39.08.77.17,1.17.22,0,.01,0,.01-.02.01.12,0,.23.03.34.03.03.02.03.04.04.05-.01-.03.61.06.62.07Z"/>
        </g>
      </g>
    </g>
    <path class="cls-9" d="m112.77,151.37l-23.42-3.91c-8.4-.66-9.94-6.71-2.79-5.76-8.77-1.77-9.75-6.57-4.68-6.57-7.42-2.46-5.22-6.44-1.01-5.61-6.71-.79-5.65-6.68-1.65-6.4l8.31,1.25-4.08-6.66,29.31,8.69v24.98Z"/>
  </g>
  <path class="cls-5" d="m100.97,152.28c.08.08.14.28.09.33,0-.04-.03-.13-.07-.23-.25.12-3.94,1.12-4.17,1.2-.31-.23-.3-.78-.7-1.01,0,.11-.11-.22-.16-.05.01-.08-.05-.17-.07-.23.08.08.16.16.22.15-.2-.48-.48-.97-.66-1.46-.08-.3-.39-.27-.42-.33l.1-.03-.12-.29c-.07.1-.25.12-.24.26-.06.02-.06-.09-.12-.18.03.02.14.06.14,0-.1-.22-.11-.04-.28-.27.02,0,.23.11.2-.14-.08-.25-.43-.98-.81-1.76l5.71.96.14.09c0,.22.15.35.2.63.07.12.13.03.12-.04.03.24.23.43.22.58l-.05-.02c.05.38.42.44.48.86h-.02c0,.19.2.31.29.42.04.21-.13.08-.1.25.15,0,.15.21.21.37-.1-.17-.22-.37-.32-.3.11.21-.09.1.06.31l.14-.05Z"/>
  <g>
    <path class="cls-9" d="m35.64,127.55h0c.95,7.82,7.11,13.98,14.92,14.92h0s0,0,0,0c-7.82.95-13.98,7.11-14.92,14.92h0s0,0,0,0c-.95-7.82-7.11-13.98-14.92-14.92h0s0,0,0,0c7.82-.95,13.98-7.11,14.92-14.92h0Z"/>
    <path class="cls-9" d="m56.46,122.73h0c.48,3.98,3.62,7.11,7.59,7.59h0,0c-3.98.48-7.11,3.62-7.59,7.59h0s0,0,0,0c-.48-3.98-3.62-7.11-7.59-7.59h0,0c3.98-.48,7.11-3.62,7.59-7.59h0Z"/>
  </g>
</svg>