<svg width="80" height="22" viewBox="0 0 118 32" fill="none" xmlns="http://www.w3.org/2000/svg">
<g clip-path="url(#clip0)">
<path d="M51.4304 31.6382H39.349C39.3176 31.6387 39.2864 31.633 39.2573 31.6213C39.2282 31.6096 39.2017 31.5923 39.1793 31.5703C39.157 31.5483 39.1392 31.5221 39.1271 31.4932C39.115 31.4643 39.1088 31.4333 39.1088 31.4019V12.3638C39.1097 12.3008 39.1354 12.2407 39.1804 12.1964C39.2253 12.1522 39.2859 12.1274 39.349 12.1274H42.1273C42.1898 12.1284 42.2494 12.1536 42.2936 12.1977C42.3378 12.2418 42.363 12.3014 42.3639 12.3638V28.5625H51.4304C51.4935 28.5625 51.554 28.5873 51.599 28.6315C51.6439 28.6757 51.6696 28.7358 51.6706 28.7988V31.4019C51.6706 31.4333 51.6643 31.4643 51.6522 31.4932C51.6401 31.5221 51.6224 31.5483 51.6 31.5703C51.5777 31.5923 51.5511 31.6096 51.522 31.6213C51.4929 31.633 51.4618 31.6387 51.4304 31.6382Z" fill="#F2385A"/>
<path d="M66.7741 25.7983C66.7741 30.1882 63.605 32 60.3785 32C57.152 32 53.9865 30.1882 53.9865 25.7983V18.0964C53.9865 18.0338 54.0114 17.9736 54.0558 17.9293C54.1001 17.885 54.1603 17.8601 54.2231 17.8601H56.772C56.8347 17.8601 56.8949 17.885 56.9393 17.9293C56.9837 17.9736 57.0086 18.0338 57.0086 18.0964V25.5262C57.0086 28.1866 58.4928 29.1641 60.3785 29.1641C62.2642 29.1641 63.752 28.1866 63.752 25.5262V18.0964C63.752 18.0338 63.7769 17.9736 63.8213 17.9293C63.8656 17.885 63.9258 17.8601 63.9886 17.8601H66.5375C66.6 17.861 66.6596 17.8862 66.7038 17.9303C66.748 17.9745 66.7732 18.034 66.7741 18.0964V25.7983Z" fill="#F2385A"/>
<path d="M93.6328 22.9804V31.402C93.6328 31.4333 93.6266 31.4644 93.6145 31.4933C93.6023 31.5222 93.5846 31.5484 93.5622 31.5704C93.5399 31.5924 93.5134 31.6097 93.4843 31.6214C93.4551 31.633 93.424 31.6388 93.3926 31.6383H90.8473C90.8159 31.6388 90.7847 31.633 90.7556 31.6214C90.7265 31.6097 90.7 31.5924 90.6776 31.5704C90.6553 31.5484 90.6375 31.5222 90.6254 31.4933C90.6133 31.4644 90.6071 31.4333 90.6071 31.402V23.9901C90.6071 21.6735 89.4133 20.3809 87.3806 20.3809C85.4375 20.3809 83.7956 21.6591 83.7956 24.0188V31.402C83.7956 31.4333 83.7893 31.4644 83.7772 31.4933C83.7651 31.5222 83.7474 31.5484 83.725 31.5704C83.7027 31.5924 83.6761 31.6097 83.647 31.6214C83.6179 31.633 83.5868 31.6388 83.5554 31.6383H81.01C80.9787 31.6388 80.9475 31.633 80.9184 31.6214C80.8893 31.6097 80.8628 31.5924 80.8404 31.5704C80.8181 31.5484 80.8003 31.5222 80.7882 31.4933C80.7761 31.4644 80.7698 31.4333 80.7698 31.402V23.9901C80.7698 21.6735 79.576 20.3809 77.5433 20.3809C75.6003 20.3809 73.9584 21.6591 73.9584 24.0188V31.402C73.9584 31.4333 73.9521 31.4644 73.94 31.4933C73.9279 31.5222 73.9101 31.5484 73.8878 31.5704C73.8654 31.5924 73.8389 31.6097 73.8098 31.6214C73.7807 31.633 73.7495 31.6388 73.7182 31.6383H71.1728C71.1414 31.6388 71.1103 31.633 71.0812 31.6214C71.052 31.6097 71.0255 31.5924 71.0032 31.5704C70.9808 31.5484 70.9631 31.5222 70.951 31.4933C70.9389 31.4644 70.9326 31.4333 70.9326 31.402V18.0964C70.9336 18.0334 70.9593 17.9733 71.0042 17.9291C71.0492 17.8849 71.1097 17.8601 71.1728 17.8601H73.6823C73.7454 17.8601 73.806 17.8849 73.8509 17.9291C73.8958 17.9733 73.9216 18.0334 73.9225 18.0964V19.5287C75.0303 17.9031 76.7439 17.4841 78.1564 17.4841C80.2608 17.4841 81.9744 18.4187 82.9244 19.944C84.1182 17.9747 86.2513 17.4841 87.9649 17.4841C91.3133 17.4985 93.6328 19.7578 93.6328 22.9804Z" fill="#F2385A"/>
<path d="M100.695 31.6383H98.1463C98.1151 31.6388 98.0841 31.633 98.0552 31.6213C98.0263 31.6096 98 31.5922 97.9779 31.5702C97.9559 31.5482 97.9384 31.5219 97.9267 31.493C97.915 31.4641 97.9092 31.4332 97.9097 31.402V18.0964C97.9097 18.0338 97.9346 17.9736 97.979 17.9293C98.0234 17.885 98.0836 17.8601 98.1463 17.8601H100.695C100.726 17.8601 100.757 17.8662 100.786 17.8781C100.814 17.89 100.841 17.9074 100.863 17.9293C100.885 17.9513 100.902 17.9773 100.914 18.006C100.926 18.0347 100.932 18.0654 100.932 18.0964V31.402C100.932 31.4332 100.927 31.4641 100.915 31.493C100.903 31.5219 100.886 31.5482 100.864 31.5702C100.842 31.5922 100.815 31.6096 100.786 31.6213C100.757 31.633 100.726 31.6388 100.695 31.6383Z" fill="#F2385A"/>
<path d="M118 22.9804V31.402C118 31.4333 117.994 31.4644 117.982 31.4933C117.97 31.5222 117.952 31.5484 117.93 31.5704C117.907 31.5924 117.881 31.6097 117.852 31.6214C117.822 31.633 117.791 31.6388 117.76 31.6383H115.215C115.183 31.6388 115.152 31.633 115.123 31.6214C115.094 31.6097 115.067 31.5924 115.045 31.5704C115.023 31.5484 115.005 31.5222 114.993 31.4933C114.981 31.4644 114.974 31.4333 114.974 31.402V23.9901C114.974 21.6735 113.781 20.3809 111.748 20.3809C109.805 20.3809 108.163 21.6591 108.163 24.0188V31.402C108.163 31.4333 108.157 31.4644 108.145 31.4933C108.132 31.5222 108.115 31.5484 108.092 31.5704C108.07 31.5924 108.043 31.6097 108.014 31.6214C107.985 31.633 107.954 31.6388 107.923 31.6383H105.399C105.368 31.6388 105.336 31.633 105.307 31.6214C105.278 31.6097 105.252 31.5924 105.229 31.5704C105.207 31.5484 105.189 31.5222 105.177 31.4933C105.165 31.4644 105.159 31.4333 105.159 31.402V18.0964C105.16 18.0334 105.185 17.9733 105.23 17.9291C105.275 17.8849 105.336 17.8601 105.399 17.8601H107.908C107.971 17.8601 108.032 17.8849 108.077 17.9291C108.122 17.9733 108.148 18.0334 108.149 18.0964V19.5287C109.256 17.9031 110.97 17.4841 112.382 17.4841C115.681 17.4985 118 19.7578 118 22.9804Z" fill="#F2385A"/>
<path d="M99.5193 12.3924L98.1176 14.7771C98.097 14.8135 98.0862 14.8547 98.0864 14.8965C98.0867 14.9384 98.0978 14.9794 98.1188 15.0156C98.1399 15.0518 98.17 15.0819 98.2062 15.1029C98.2425 15.1238 98.2836 15.135 98.3255 15.1352H100.623C100.718 15.1356 100.81 15.1113 100.892 15.0648C100.974 15.0183 101.042 14.9512 101.09 14.8702L102.463 12.5321C102.487 12.4912 102.499 12.4447 102.5 12.3972C102.5 12.3498 102.488 12.3032 102.464 12.2621C102.44 12.221 102.406 12.1869 102.365 12.1632C102.324 12.1396 102.277 12.1272 102.23 12.1274H99.9818C99.8882 12.1273 99.7963 12.1517 99.7151 12.1982C99.6339 12.2447 99.5664 12.3117 99.5193 12.3924Z" fill="#F2385A"/>
<path d="M10.6862 23.3958L23.7248 1.07419C23.7877 0.965375 23.8209 0.841951 23.8209 0.716307C23.8209 0.590664 23.7879 0.467223 23.725 0.35838C23.6622 0.249537 23.5718 0.159123 23.4629 0.0962176C23.354 0.033312 23.2304 0.000128798 23.1046 0L14.6978 0C14.4891 5.52603e-05 14.284 0.0546042 14.1029 0.158237C13.9218 0.261871 13.771 0.410988 13.6654 0.590802L0.164276 23.7144C0.0592607 23.8954 0.00374434 24.1007 0.0032986 24.3099C0.00285287 24.519 0.0574934 24.7246 0.161736 24.906C0.265979 25.0874 0.416157 25.2382 0.597197 25.3433C0.778237 25.4484 0.98377 25.5041 1.19317 25.5048H7.06538L4.5308 29.848C4.42563 30.0292 4.37011 30.2349 4.36982 30.4444C4.36953 30.6538 4.42449 30.8596 4.52915 31.0411C4.63382 31.2226 4.78451 31.3734 4.96605 31.4782C5.14759 31.5831 5.35357 31.6383 5.56327 31.6384H26.7147C26.9656 31.6375 27.2118 31.5709 27.4289 31.4452C27.6459 31.3196 27.8261 31.1392 27.9515 30.9222L31.723 24.4771C31.7857 24.3686 31.8188 24.2455 31.819 24.1201C31.8192 23.9948 31.7865 23.8716 31.724 23.7629C31.6616 23.6541 31.5717 23.5636 31.4633 23.5005C31.3549 23.4373 31.2318 23.4037 31.1063 23.4029L10.6862 23.3958ZM15.232 2.11257H20.6704L8.24485 23.3958H2.79924L15.232 2.11257ZM26.3455 29.5294H7.16935L9.51752 25.5083H28.6793L26.3455 29.5294Z" fill="#F2385A"/>
</g>
<defs>
<clipPath id="clip0">
<rect width="118" height="32" fill="white"/>
</clipPath>
</defs>
</svg>
