<svg width="110" height="24" viewBox="0 0 110 24" fill="none" xmlns="http://www.w3.org/2000/svg">
<g clip-path="url(#clip0_2658_28294)">
<path d="M32.7377 20.1815H25.0347C25.0147 20.1815 24.9949 20.1775 24.9765 20.1698C24.958 20.1621 24.9413 20.1508 24.9273 20.1365C24.9133 20.1223 24.9022 20.1054 24.8947 20.0868C24.8873 20.0683 24.8836 20.0484 24.8839 20.0284V7.88102C24.8836 7.86102 24.8873 7.84116 24.8947 7.8226C24.9022 7.80404 24.9133 7.78714 24.9273 7.7729C24.9413 7.75865 24.958 7.74734 24.9765 7.73962C24.9949 7.73189 25.0147 7.72792 25.0347 7.72792H26.8057C26.8463 7.72792 26.8852 7.74405 26.9139 7.77276C26.9426 7.80147 26.9588 7.84041 26.9588 7.88102V18.2164H32.7377C32.7779 18.217 32.8162 18.2333 32.8445 18.262C32.8727 18.2906 32.8885 18.3292 32.8885 18.3695V20.0284C32.8885 20.0686 32.8727 20.1072 32.8445 20.1359C32.8162 20.1645 32.7779 20.1809 32.7377 20.1815Z" fill="#F2385A"/>
<path d="M42.5177 16.4546C42.5177 19.2538 40.4978 20.41 38.4412 20.41C36.3846 20.41 34.3647 19.2538 34.3647 16.4546V11.5394C34.3647 11.4988 34.3808 11.4599 34.4095 11.4311C34.4382 11.4024 34.4771 11.3863 34.5177 11.3863H36.1401C36.1807 11.3863 36.2197 11.4024 36.2484 11.4311C36.2771 11.4599 36.2932 11.4988 36.2932 11.5394V16.2855C36.2932 17.9833 37.237 18.6071 38.4412 18.6071C39.6454 18.6071 40.5892 17.9833 40.5892 16.2855V11.5394C40.5892 11.4992 40.605 11.4606 40.6332 11.4319C40.6614 11.4033 40.6998 11.3869 40.74 11.3863H42.3647C42.4053 11.3863 42.4442 11.4024 42.4729 11.4311C42.5016 11.4599 42.5177 11.4988 42.5177 11.5394V16.4546Z" fill="#F2385A"/>
<path d="M59.6351 14.6539V20.0284C59.6351 20.0686 59.6193 20.1072 59.5911 20.1359C59.5629 20.1645 59.5245 20.1809 59.4843 20.1815H57.8597C57.8397 20.1815 57.8199 20.1775 57.8014 20.1698C57.783 20.1621 57.7662 20.1508 57.7522 20.1365C57.7382 20.1223 57.7271 20.1054 57.7197 20.0868C57.7122 20.0683 57.7085 20.0484 57.7088 20.0284V15.2892C57.7088 13.8108 56.9456 12.9836 55.6523 12.9836C54.4115 12.9836 53.3672 13.8016 53.3672 15.3075V20.0284C53.3672 20.0686 53.3514 20.1072 53.3232 20.1359C53.295 20.1645 53.2566 20.1809 53.2164 20.1815H51.5917C51.5717 20.1815 51.5519 20.1775 51.5335 20.1698C51.515 20.1621 51.4983 20.1508 51.4843 20.1365C51.4702 20.1223 51.4592 20.1054 51.4517 20.0868C51.4443 20.0683 51.4406 20.0484 51.4409 20.0284V15.2892C51.4409 13.8108 50.6777 12.9836 49.3844 12.9836C48.1436 12.9836 47.0993 13.8016 47.0993 15.3075V20.0284C47.0996 20.0484 47.0959 20.0683 47.0885 20.0868C47.081 20.1054 47.07 20.1223 47.0559 20.1365C47.0419 20.1508 47.0252 20.1621 47.0067 20.1698C46.9883 20.1775 46.9685 20.1815 46.9485 20.1815H45.3238C45.3038 20.1815 45.284 20.1775 45.2656 20.1698C45.2471 20.1621 45.2304 20.1508 45.2163 20.1365C45.2023 20.1223 45.1912 20.1054 45.1838 20.0868C45.1764 20.0683 45.1727 20.0484 45.173 20.0284V11.5394C45.1727 11.5194 45.1764 11.4995 45.1838 11.481C45.1912 11.4624 45.2023 11.4455 45.2163 11.4313C45.2304 11.417 45.2471 11.4057 45.2656 11.398C45.284 11.3903 45.3038 11.3863 45.3238 11.3863H46.9233C46.9636 11.3869 47.0019 11.4033 47.0301 11.4319C47.0583 11.4606 47.0742 11.4992 47.0742 11.5394V12.4534C47.7825 11.416 48.8748 11.1509 49.7728 11.1509C51.1141 11.1509 52.2064 11.7473 52.812 12.7208C53.5752 11.4617 54.9325 11.1509 56.0247 11.1509C58.1567 11.1578 59.6351 12.5997 59.6351 14.6539Z" fill="#F2385A"/>
<path d="M64.1413 20.1815H62.5189C62.4988 20.1815 62.4789 20.1775 62.4603 20.1699C62.4417 20.1622 62.4249 20.1509 62.4106 20.1367C62.3964 20.1224 62.3851 20.1056 62.3775 20.087C62.3698 20.0684 62.3658 20.0485 62.3658 20.0284V11.5394C62.3658 11.5193 62.3698 11.4994 62.3775 11.4808C62.3851 11.4622 62.3964 11.4454 62.4106 11.4311C62.4249 11.4169 62.4417 11.4057 62.4603 11.398C62.4789 11.3903 62.4988 11.3863 62.5189 11.3863H64.1413C64.1819 11.3863 64.2208 11.4024 64.2495 11.4311C64.2783 11.4599 64.2944 11.4988 64.2944 11.5394V20.0284C64.2944 20.069 64.2783 20.108 64.2495 20.1367C64.2208 20.1654 64.1819 20.1815 64.1413 20.1815Z" fill="#F2385A"/>
<path d="M75.1667 14.6539V20.0284C75.1667 20.0686 75.1509 20.1072 75.1227 20.1359C75.0945 20.1645 75.0561 20.1809 75.0159 20.1815H73.3912C73.3506 20.1815 73.3117 20.1654 73.283 20.1367C73.2542 20.108 73.2381 20.069 73.2381 20.0284V15.2892C73.2381 13.8108 72.4772 12.9836 71.193 12.9836C69.9522 12.9836 68.9079 13.8016 68.9079 15.3075V20.0284C68.9079 20.0686 68.8921 20.1072 68.8639 20.1359C68.8357 20.1645 68.7973 20.1809 68.7571 20.1815H67.1324C67.0918 20.1815 67.0529 20.1654 67.0242 20.1367C66.9955 20.108 66.9793 20.069 66.9793 20.0284V11.5394C66.9793 11.4988 66.9955 11.4599 67.0242 11.4311C67.0529 11.4024 67.0918 11.3863 67.1324 11.3863H68.732C68.7722 11.3869 68.8105 11.4033 68.8388 11.4319C68.867 11.4606 68.8828 11.4992 68.8828 11.5394V12.4534C69.5889 11.416 70.6834 11.1509 71.5815 11.1509C73.6883 11.1578 75.1667 12.5997 75.1667 14.6539Z" fill="#F2385A"/>
<path d="M63.3872 7.8993L62.496 9.43029C62.4822 9.45325 62.4748 9.47946 62.4745 9.50624C62.4742 9.53302 62.481 9.5594 62.4943 9.58267C62.5076 9.60594 62.5268 9.62525 62.55 9.63863C62.5732 9.65201 62.5995 9.65897 62.6263 9.6588H64.0933C64.1529 9.6589 64.2116 9.64333 64.2633 9.61366C64.315 9.58398 64.3581 9.54124 64.3881 9.4897L65.2633 7.99756C65.2786 7.97147 65.2867 7.94178 65.2869 7.91152C65.287 7.88126 65.2791 7.8515 65.2641 7.82527C65.249 7.79904 65.2272 7.77727 65.201 7.76218C65.1748 7.74709 65.145 7.73921 65.1147 7.73935H63.6843C63.6252 7.73835 63.5669 7.75253 63.5149 7.78054C63.4629 7.80855 63.4189 7.84944 63.3872 7.8993Z" fill="#F2385A"/>
<path d="M9.33405 20.1815C8.90651 20.2025 8.48137 20.1061 8.10474 19.9027C7.72811 19.6993 7.41436 19.3966 7.19752 19.0275C6.28349 17.4531 6.91417 14.5443 8.9433 10.7716H0.673664C0.55526 10.7715 0.438965 10.7403 0.336482 10.681C0.233999 10.6217 0.148943 10.5364 0.0898748 10.4338C0.0308062 10.3312 -0.0001919 10.2148 8.93853e-07 10.0964C0.000193688 9.97802 0.0315706 9.86176 0.0909731 9.75934C4.003 3.0184 8.31719 0.00212378 10.8536 0.00212378C11.2808 -0.0160684 11.7048 0.0828921 12.0797 0.2883C12.4547 0.493707 12.7664 0.79774 12.981 1.1675C13.895 2.7442 13.2644 5.65308 11.2329 9.42343H19.5071C19.6242 9.42681 19.7385 9.46014 19.839 9.52023C19.9396 9.58031 20.023 9.66516 20.0815 9.76668C20.1399 9.86819 20.1714 9.98298 20.1728 10.1001C20.1743 10.2172 20.1457 10.3328 20.0898 10.4357C16.1847 17.1675 11.875 20.1815 9.33405 20.1815ZM10.4766 10.7602C8.11839 14.935 7.83048 17.412 8.36518 18.342C8.48629 18.5523 8.71708 18.8287 9.32948 18.831C11.354 18.831 15.0056 16.0661 18.3189 10.7579L10.4766 10.7602ZM1.85961 9.41201H9.70194C12.0693 5.2372 12.3572 2.76248 11.8133 1.82789C11.6945 1.61995 11.4637 1.34117 10.8513 1.33888C8.82905 1.33888 5.18666 4.10609 1.86647 9.41201H1.85961Z" fill="#F2385A"/>
<path d="M83.8133 13.1938C83.8034 13.2115 83.79 13.227 83.774 13.2394C83.7579 13.2518 83.7395 13.2608 83.7199 13.2659C83.7003 13.271 83.6798 13.2721 83.6598 13.2692C83.6397 13.2662 83.6204 13.2592 83.6031 13.2486C82.7763 12.7753 81.8412 12.5234 80.8885 12.5174C79.65 12.5174 78.8319 13.0407 78.8319 13.8884C78.8319 14.6151 79.4672 14.9716 80.6051 15.1109L81.6334 15.2389C83.4774 15.4674 84.5514 16.2398 84.5514 17.6611C84.5514 19.3132 83.0639 20.3506 80.7239 20.3506C79.6431 20.3506 78.2949 20.0947 77.2118 19.3246C77.1806 19.3021 77.1592 19.2684 77.152 19.2306C77.1447 19.1928 77.1523 19.1537 77.173 19.1212L77.6437 18.3535C77.6544 18.334 77.6693 18.3171 77.6872 18.304C77.7052 18.291 77.7259 18.2821 77.7477 18.2779C77.7695 18.2738 77.792 18.2745 77.8135 18.28C77.8351 18.2856 77.8551 18.2958 77.8722 18.31C78.5189 18.7808 79.378 19.1578 80.7537 19.1578C82.2229 19.1578 83.1484 18.6711 83.1484 17.7525C83.1484 17.0555 82.5611 16.6328 81.3318 16.4866L80.2944 16.3677C78.3406 16.1392 77.422 15.2572 77.422 13.9616C77.422 12.3186 78.8068 11.3269 80.8908 11.3269C82.0594 11.31 83.2107 11.61 84.2224 12.1952C84.255 12.2164 84.2784 12.2492 84.2877 12.287C84.2971 12.3247 84.2917 12.3646 84.2726 12.3986L83.8133 13.1938Z" fill="#FA7189"/>
<path d="M87.9059 20.1815H86.8342C86.7936 20.1815 86.7546 20.1654 86.7259 20.1367C86.6972 20.1079 86.6811 20.069 86.6811 20.0284V11.6399C86.6817 11.5997 86.6981 11.5614 86.7267 11.5332C86.7554 11.5049 86.794 11.4891 86.8342 11.4891H87.9059C87.9461 11.4891 87.9847 11.5049 88.0133 11.5332C88.042 11.5614 88.0584 11.5997 88.059 11.6399V20.0284C88.059 20.069 88.0429 20.1079 88.0141 20.1367C87.9854 20.1654 87.9465 20.1815 87.9059 20.1815Z" fill="#FA7189"/>
<path d="M97.7431 12.7916V11.6491C97.7431 11.6091 97.759 11.5707 97.7873 11.5424C97.8155 11.5142 97.8539 11.4983 97.8939 11.4983H98.9679C99.0079 11.4983 99.0462 11.5142 99.0745 11.5424C99.1028 11.5707 99.1187 11.6091 99.1187 11.6491V19.5942C99.1187 22.43 97.2107 23.9998 94.5211 23.9998C93.1867 23.9998 91.843 23.6 90.9587 22.9144C90.9301 22.8926 90.9103 22.8611 90.9032 22.8258C90.896 22.7905 90.902 22.7538 90.9199 22.7225L91.3769 21.8839C91.387 21.8639 91.4014 21.8463 91.4191 21.8326C91.4368 21.8188 91.4573 21.8092 91.4792 21.8044C91.5011 21.7996 91.5238 21.7997 91.5456 21.8048C91.5674 21.8098 91.5879 21.8197 91.6054 21.8336C92.4602 22.4326 93.4796 22.752 94.5234 22.7476C96.404 22.7476 97.7454 21.6736 97.7454 19.6445V18.7533C97.085 19.6674 96.0476 20.2318 94.6423 20.2318C92.1995 20.2318 90.3372 18.4037 90.3372 15.7713C90.3372 13.1389 92.1995 11.3177 94.6423 11.3177C96.0453 11.3132 97.0827 11.8936 97.7431 12.7916ZM91.7288 15.7622C91.7288 17.524 92.9513 18.9384 94.7953 18.9384C96.5868 18.9384 97.8619 17.5674 97.8619 15.7622C97.8619 13.957 96.5891 12.5997 94.7953 12.5997C92.9513 12.5997 91.7288 14.0118 91.7288 15.7668V15.7622Z" fill="#FA7189"/>
<path d="M109.97 14.7933V20.0284C109.97 20.069 109.954 20.1079 109.926 20.1367C109.897 20.1654 109.858 20.1815 109.817 20.1815H108.753C108.712 20.1809 108.674 20.1645 108.646 20.1359C108.618 20.1072 108.602 20.0686 108.602 20.0284V15.2435C108.602 13.5914 107.688 12.6179 106.088 12.6179C104.635 12.6294 103.444 13.6279 103.444 15.28V20.0284C103.444 20.0686 103.428 20.1072 103.4 20.1359C103.372 20.1645 103.334 20.1809 103.293 20.1815H102.22C102.2 20.1815 102.18 20.1775 102.161 20.1698C102.143 20.1621 102.126 20.1508 102.112 20.1365C102.098 20.1223 102.087 20.1054 102.08 20.0868C102.072 20.0683 102.068 20.0484 102.069 20.0284V11.6399C102.069 11.5999 102.085 11.5616 102.113 11.5333C102.141 11.505 102.18 11.4891 102.22 11.4891H103.275C103.315 11.4897 103.353 11.5058 103.381 11.534C103.409 11.5621 103.425 11.6001 103.426 11.6399V12.7276C104.134 11.6902 105.291 11.3132 106.355 11.3132C108.492 11.3132 109.97 12.6911 109.97 14.7933Z" fill="#FA7189"/>
<path d="M87.7162 7.8993L86.8228 9.43029C86.809 9.45324 86.8015 9.47945 86.8012 9.50624C86.8009 9.53302 86.8077 9.5594 86.821 9.58266C86.8343 9.60593 86.8535 9.62525 86.8767 9.63863C86.8999 9.65201 86.9262 9.65897 86.953 9.65879H87.867C87.9267 9.65889 87.9853 9.64333 88.037 9.61365C88.0888 9.58398 88.1318 9.54123 88.1618 9.4897L89.0484 7.98841C89.0636 7.96215 89.0716 7.93237 89.0717 7.90204C89.0718 7.87172 89.0639 7.8419 89.0489 7.81555C89.0339 7.78921 89.0122 7.76725 88.9861 7.75188C88.9599 7.7365 88.9302 7.72824 88.8999 7.72792H88.0201C87.9587 7.72641 87.8981 7.74155 87.8446 7.77172C87.7911 7.80189 87.7467 7.84597 87.7162 7.8993Z" fill="#FA7189"/>
</g>
<defs>
<clipPath id="clip0_2658_28294">
<rect width="110" height="24" fill="white"/>
</clipPath>
</defs>
</svg>